NotoSerifLao-Regular.ufo
<glyph name="exclam" format="1">
  <advance width="682"/>
  <unicode hex="0021"/>
  <outline>
    <contour>
      <point x="221" y="1462" type="line"/>
      <point x="459" y="1462" type="line"/>
      <point x="387" y="412" type="line"/>
      <point x="293" y="412" type="line"/>
    </contour>
    <contour>
      <point x="211" y="125" type="qcurve" smooth="yes"/>
      <point x="211" y="165"/>
      <point x="231" y="218"/>
      <point x="266" y="250"/>
      <point x="313" y="264"/>
      <point x="340" y="264" type="qcurve" smooth="yes"/>
      <point x="366" y="264"/>
      <point x="413" y="250"/>
      <point x="448" y="218"/>
      <point x="469" y="165"/>
      <point x="469" y="125" type="qcurve" smooth="yes"/>
      <point x="469" y="86"/>
      <point x="448" y="32"/>
      <point x="413" y="0"/>
      <point x="366" y="-14"/>
      <point x="340" y="-14" type="qcurve" smooth="yes"/>
      <point x="313" y="-14"/>
      <point x="266" y="0"/>
      <point x="231" y="32"/>
      <point x="211" y="86"/>
    </contour>
  </outline>
</glyph>
<glyph name="quotedbl" format="1">
  <advance width="836"/>
  <unicode hex="0022"/>
  <outline>
    <contour>
      <point x="502" y="1462" type="line"/>
      <point x="719" y="1462" type="line"/>
      <point x="657" y="981" type="line"/>
      <point x="563" y="981" type="line"/>
    </contour>
    <contour>
      <point x="117" y="1462" type="line"/>
      <point x="334" y="1462" type="line"/>
      <point x="272" y="981" type="line"/>
      <point x="178" y="981" type="line"/>
    </contour>
  </outline>
</glyph>
<glyph name="numbersign" format="1">
  <advance width="1145"/>
  <unicode hex="0023"/>
  <outline>
    <contour>
      <point x="397" y="537" type="line"/>
      <point x="682" y="537" type="line"/>
      <point x="758" y="938" type="line"/>
      <point x="473" y="938" type="line"/>
    </contour>
    <contour>
      <point x="1038" y="537" type="line"/>
      <point x="1038" y="416" type="line"/>
      <point x="780" y="416" type="line"/>
      <point x="702" y="0" type="line"/>
      <point x="580" y="0" type="line"/>
      <point x="657" y="416" type="line"/>
      <point x="373" y="416" type="line"/>
      <point x="295" y="0" type="line"/>
      <point x="172" y="0" type="line"/>
      <point x="250" y="416" type="line"/>
      <point x="82" y="416" type="line"/>
      <point x="82" y="537" type="line"/>
      <point x="272" y="537" type="line"/>
      <point x="350" y="938" type="line"/>
      <point x="106" y="938" type="line"/>
      <point x="106" y="1059" type="line"/>
      <point x="373" y="1059" type="line"/>
      <point x="446" y="1462" type="line"/>
      <point x="571" y="1462" type="line"/>
      <point x="496" y="1059" type="line"/>
      <point x="780" y="1059" type="line"/>
      <point x="856" y="1462" type="line"/>
      <point x="979" y="1462" type="line"/>
      <point x="903" y="1059" type="line"/>
      <point x="1063" y="1059" type="line"/>
      <point x="1063" y="938" type="line"/>
      <point x="881" y="938" type="line"/>
      <point x="805" y="537" type="line"/>
    </contour>
  </outline>
</glyph>
<glyph name="dollar" format="1">
  <advance width="1145"/>
  <unicode hex="0024"/>
  <outline>
    <contour>
      <point x="621" y="1401" type="line"/>
      <point x="713" y="1399"/>
      <point x="842" y="1362"/>
      <point x="924" y="1301"/>
      <point x="961" y="1219"/>
      <point x="961" y="1171" type="qcurve" smooth="yes"/>
      <point x="961" y="1105"/>
      <point x="873" y="1038"/>
      <point x="799" y="1038" type="qcurve"/>
      <point x="799" y="1083"/>
      <point x="784" y="1174"/>
      <point x="745" y="1249"/>
      <point x="675" y="1301"/>
      <point x="621" y="1307" type="qcurve"/>
      <point x="621" y="829" type="line"/>
      <point x="713" y="789"/>
      <point x="855" y="709"/>
      <point x="951" y="616"/>
      <point x="1001" y="503"/>
      <point x="1001" y="430" type="qcurve" smooth="yes"/>
      <point x="1001" y="276"/>
      <point x="803" y="105"/>
      <point x="621" y="86" type="qcurve"/>
      <point x="621" y="-162" type="line"/>
      <point x="518" y="-162" type="line"/>
      <point x="518" y="82" type="line"/>
      <point x="467" y="82"/>
      <point x="363" y="91"/>
      <point x="264" y="112"/>
      <point x="173" y="144"/>
      <point x="135" y="166" type="qcurve"/>
      <point x="135" y="481" type="line"/>
      <point x="221" y="481" type="line"/>
      <point x="221" y="424"/>
      <point x="264" y="317"/>
      <point x="343" y="232"/>
      <point x="452" y="177"/>
      <point x="518" y="172" type="qcurve"/>
      <point x="518" y="678" type="line"/>
      <point x="422" y="721"/>
      <point x="289" y="805"/>
      <point x="207" y="898"/>
      <point x="170" y="1006"/>
      <point x="170" y="1073" type="qcurve" smooth="yes"/>
      <point x="170" y="1142"/>
      <point x="219" y="1254"/>
      <point x="309" y="1337"/>
      <point x="438" y="1388"/>
      <point x="518" y="1397" type="qcurve"/>
      <point x="518" y="1556" type="line"/>
      <point x="621" y="1556" type="line"/>
    </contour>
    <contour>
      <point x="813" y="399" type="qcurve" smooth="yes"/>
      <point x="813" y="440"/>
      <point x="793" y="505"/>
      <point x="747" y="561"/>
      <point x="674" y="609"/>
      <point x="621" y="633" type="qcurve"/>
      <point x="621" y="178" type="line"/>
      <point x="713" y="194"/>
      <point x="813" y="311"/>
    </contour>
    <contour>
      <point x="354" y="1090" type="qcurve" smooth="yes"/>
      <point x="354" y="1047"/>
      <point x="375" y="982"/>
      <point x="417" y="932"/>
      <point x="478" y="892"/>
      <point x="518" y="874" type="qcurve"/>
      <point x="518" y="1303" type="line"/>
      <point x="478" y="1294"/>
      <point x="416" y="1255"/>
      <point x="375" y="1200"/>
      <point x="354" y="1130"/>
    </contour>
  </outline>
</glyph>
<glyph name="percent" format="1">
  <advance width="1835"/>
  <unicode hex="0025"/>
  <outline>
    <contour>
      <point x="764" y="1030" type="qcurve" smooth="yes"/>
      <point x="764" y="927"/>
      <point x="722" y="759"/>
      <point x="638" y="639"/>
      <point x="512" y="573"/>
      <point x="428" y="573" type="qcurve" smooth="yes"/>
      <point x="340" y="573"/>
      <point x="213" y="639"/>
      <point x="131" y="759"/>
      <point x="92" y="927"/>
      <point x="92" y="1030" type="qcurve" smooth="yes"/>
      <point x="92" y="1133"/>
      <point x="131" y="1300"/>
      <point x="213" y="1419"/>
      <point x="341" y="1483"/>
      <point x="430" y="1483" type="qcurve" smooth="yes"/>
      <point x="514" y="1483"/>
      <point x="639" y="1419"/>
      <point x="722" y="1300"/>
      <point x="764" y="1133"/>
    </contour>
    <contour>
      <point x="276" y="1030" type="qcurve" smooth="yes"/>
      <point x="276" y="942"/>
      <point x="292" y="803"/>
      <point x="328" y="707"/>
      <point x="386" y="657"/>
      <point x="428" y="657" type="qcurve" smooth="yes"/>
      <point x="470" y="657"/>
      <point x="528" y="707"/>
      <point x="563" y="803"/>
      <point x="578" y="942"/>
      <point x="578" y="1030" type="qcurve" smooth="yes"/>
      <point x="578" y="1117"/>
      <point x="563" y="1253"/>
      <point x="528" y="1348"/>
      <point x="472" y="1397"/>
      <point x="430" y="1397" type="qcurve" smooth="yes"/>
      <point x="388" y="1397"/>
      <point x="329" y="1348"/>
      <point x="292" y="1253"/>
      <point x="276" y="1117"/>
    </contour>
    <contour>
      <point x="1743" y="436" type="qcurve" smooth="yes"/>
      <point x="1743" y="333"/>
      <point x="1701" y="165"/>
      <point x="1617" y="45"/>
      <point x="1491" y="-20"/>
      <point x="1407" y="-20" type="qcurve" smooth="yes"/>
      <point x="1319" y="-20"/>
      <point x="1191" y="45"/>
      <point x="1110" y="165"/>
      <point x="1071" y="333"/>
      <point x="1071" y="436" type="qcurve" smooth="yes"/>
      <point x="1071" y="539"/>
      <point x="1110" y="706"/>
      <point x="1192" y="825"/>
      <point x="1320" y="889"/>
      <point x="1409" y="889" type="qcurve" smooth="yes"/>
      <point x="1493" y="889"/>
      <point x="1618" y="825"/>
      <point x="1701" y="706"/>
      <point x="1743" y="539"/>
    </contour>
    <contour>
      <point x="1255" y="436" type="qcurve" smooth="yes"/>
      <point x="1255" y="348"/>
      <point x="1271" y="209"/>
      <point x="1307" y="113"/>
      <point x="1365" y="63"/>
      <point x="1407" y="63" type="qcurve" smooth="yes"/>
      <point x="1449" y="63"/>
      <point x="1507" y="113"/>
      <point x="1541" y="209"/>
      <point x="1556" y="348"/>
      <point x="1556" y="436" type="qcurve" smooth="yes"/>
      <point x="1556" y="523"/>
      <point x="1541" y="659"/>
      <point x="1507" y="754"/>
      <point x="1451" y="803"/>
      <point x="1409" y="803" type="qcurve" smooth="yes"/>
      <point x="1367" y="803"/>
      <point x="1308" y="754"/>
      <point x="1271" y="659"/>
      <point x="1255" y="523"/>
    </contour>
    <contour>
      <point x="616" y="0" type="line"/>
      <point x="481" y="0" type="line"/>
      <point x="1212" y="1462" type="line"/>
      <point x="1346" y="1462" type="line"/>
    </contour>
  </outline>
</glyph>
<glyph name="ampersand" format="1">
  <advance width="1520"/>
  <unicode hex="0026"/>
  <outline>
    <contour>
      <point x="1174" y="0" type="line"/>
      <point x="1004" y="180" type="line"/>
      <point x="967" y="138"/>
      <point x="878" y="65"/>
      <point x="770" y="11"/>
      <point x="639" y="-20"/>
      <point x="561" y="-20" type="qcurve" smooth="yes"/>
      <point x="438" y="-20"/>
      <point x="255" y="42"/>
      <point x="134" y="155"/>
      <point x="74" y="313"/>
      <point x="74" y="410" type="qcurve" smooth="yes"/>
      <point x="74" y="497"/>
      <point x="121" y="626"/>
      <point x="206" y="724"/>
      <point x="327" y="798"/>
      <point x="401" y="829" type="qcurve"/>
      <point x="362" y="875"/>
      <point x="303" y="960"/>
      <point x="264" y="1044"/>
      <point x="244" y="1132"/>
      <point x="244" y="1182" type="qcurve" smooth="yes"/>
      <point x="244" y="1250"/>
      <point x="288" y="1360"/>
      <point x="382" y="1440"/>
      <point x="529" y="1483"/>
      <point x="631" y="1483" type="qcurve" smooth="yes"/>
      <point x="729" y="1483"/>
      <point x="867" y="1437"/>
      <point x="954" y="1357"/>
      <point x="993" y="1251"/>
      <point x="993" y="1192" type="qcurve" smooth="yes"/>
      <point x="993" y="1126"/>
      <point x="955" y="1024"/>
      <point x="872" y="938"/>
      <point x="741" y="861"/>
      <point x="647" y="821" type="qcurve"/>
      <point x="1020" y="426" type="line"/>
      <point x="1034" y="472"/>
      <point x="1052" y="567"/>
      <point x="1063" y="658"/>
      <point x="1067" y="745"/>
      <point x="1067" y="782" type="qcurve" smooth="yes"/>
      <point x="1067" y="862" type="line"/>
      <point x="1436" y="862" type="line"/>
      <point x="1436" y="776" type="line"/>
      <point x="1417" y="776" type="line" smooth="yes"/>
      <point x="1383" y="776"/>
      <point x="1317" y="768"/>
      <point x="1260" y="739"/>
      <point x="1215" y="684"/>
      <point x="1202" y="637" type="qcurve" smooth="yes"/>
      <point x="1184" y="571"/>
      <point x="1137" y="417"/>
      <point x="1102" y="340" type="qcurve"/>
      <point x="1292" y="137" type="line" smooth="yes"/>
      <point x="1307" y="122"/>
      <point x="1339" y="102"/>
      <point x="1382" y="90"/>
      <point x="1441" y="86"/>
      <point x="1483" y="86" type="qcurve" smooth="yes"/>
      <point x="1501" y="86" type="line"/>
      <point x="1501" y="0" type="line"/>
    </contour>
    <contour>
      <point x="580" y="94" type="qcurve" smooth="yes"/>
      <point x="640" y="94"/>
      <point x="743" y="119"/>
      <point x="829" y="163"/>
      <point x="901" y="224"/>
      <point x="930" y="260" type="qcurve"/>
      <point x="477" y="745" type="line"/>
      <point x="430" y="719"/>
      <point x="355" y="656"/>
      <point x="302" y="573"/>
      <point x="274" y="469"/>
      <point x="274" y="403" type="qcurve" smooth="yes"/>
      <point x="274" y="328"/>
      <point x="318" y="213"/>
      <point x="399" y="134"/>
      <point x="511" y="94"/>
    </contour>
    <contour>
      <point x="813" y="1190" type="qcurve" smooth="yes"/>
      <point x="813" y="1231"/>
      <point x="793" y="1301"/>
      <point x="748" y="1352"/>
      <point x="675" y="1382"/>
      <point x="623" y="1382" type="qcurve" smooth="yes"/>
      <point x="532" y="1382"/>
      <point x="434" y="1276"/>
      <point x="434" y="1188" type="qcurve" smooth="yes"/>
      <point x="434" y="1149"/>
      <point x="450" y="1081"/>
      <point x="485" y="1014"/>
      <point x="539" y="942"/>
      <point x="578" y="899" type="qcurve"/>
      <point x="638" y="925"/>
      <point x="727" y="983"/>
      <point x="785" y="1052"/>
      <point x="813" y="1136"/>
    </contour>
  </outline>
</glyph>
<glyph name="quotesingle" format="1">
  <advance width="451"/>
  <unicode hex="0027"/>
  <outline>
    <contour>
      <point x="117" y="1462" type="line"/>
      <point x="334" y="1462" type="line"/>
      <point x="272" y="981" type="line"/>
      <point x="178" y="981" type="line"/>
    </contour>
  </outline>
</glyph>
<glyph name="parenleft" format="1">
  <advance width="709"/>
  <unicode hex="0028"/>
  <outline>
    <contour>
      <point x="330" y="649" type="qcurve" smooth="yes"/>
      <point x="330" y="527"/>
      <point x="349" y="289"/>
      <point x="413" y="76"/>
      <point x="538" y="-104"/>
      <point x="643" y="-168" type="qcurve"/>
      <point x="643" y="-262" type="line"/>
      <point x="502" y="-206"/>
      <point x="302" y="-46"/>
      <point x="175" y="175"/>
      <point x="117" y="464"/>
      <point x="117" y="649" type="qcurve" smooth="yes"/>
      <point x="117" y="834"/>
      <point x="175" y="1121"/>
      <point x="302" y="1341"/>
      <point x="502" y="1500"/>
      <point x="643" y="1556" type="qcurve"/>
      <point x="643" y="1464" type="line"/>
      <point x="538" y="1400"/>
      <point x="413" y="1221"/>
      <point x="349" y="1009"/>
      <point x="330" y="771"/>
    </contour>
  </outline>
</glyph>
<glyph name="parenright" format="1">
  <advance width="709"/>
  <unicode hex="0029"/>
  <outline>
    <contour>
      <point x="379" y="649" type="qcurve" smooth="yes"/>
      <point x="379" y="771"/>
      <point x="360" y="1009"/>
      <point x="295" y="1221"/>
      <point x="171" y="1400"/>
      <point x="66" y="1464" type="qcurve"/>
      <point x="66" y="1556" type="line"/>
      <point x="207" y="1500"/>
      <point x="407" y="1341"/>
      <point x="533" y="1121"/>
      <point x="592" y="834"/>
      <point x="592" y="649" type="qcurve" smooth="yes"/>
      <point x="592" y="464"/>
      <point x="533" y="175"/>
      <point x="407" y="-46"/>
      <point x="207" y="-206"/>
      <point x="66" y="-262" type="qcurve"/>
      <point x="66" y="-168" type="line"/>
      <point x="171" y="-104"/>
      <point x="295" y="76"/>
      <point x="360" y="289"/>
      <point x="379" y="527"/>
    </contour>
  </outline>
</glyph>
<glyph name="asterisk" format="1">
  <advance width="1024"/>
  <unicode hex="002A"/>
  <outline>
    <contour>
      <point x="84" y="1268" type="line"/>
      <point x="156" y="1430" type="line"/>
      <point x="471" y="1231" type="line"/>
      <point x="418" y="1556" type="line"/>
      <point x="596" y="1556" type="line"/>
      <point x="539" y="1233" type="line"/>
      <point x="856" y="1425" type="line"/>
      <point x="928" y="1266" type="line"/>
      <point x="582" y="1165" type="line"/>
      <point x="928" y="1065" type="line"/>
      <point x="856" y="907" type="line"/>
      <point x="539" y="1098" type="line"/>
      <point x="596" y="774" type="line"/>
      <point x="418" y="774" type="line"/>
      <point x="469" y="1098" type="line"/>
      <point x="156" y="903" type="line"/>
      <point x="84" y="1063" type="line"/>
      <point x="428" y="1165" type="line"/>
    </contour>
  </outline>
</glyph>
<glyph name="plus" format="1">
  <advance width="1145"/>
  <unicode hex="002B"/>
  <outline>
    <contour>
      <point x="633" y="672" type="line"/>
      <point x="633" y="293" type="line"/>
      <point x="510" y="293" type="line"/>
      <point x="510" y="672" type="line"/>
      <point x="133" y="672" type="line"/>
      <point x="133" y="793" type="line"/>
      <point x="510" y="793" type="line"/>
      <point x="510" y="1171" type="line"/>
      <point x="633" y="1171" type="line"/>
      <point x="633" y="793" type="line"/>
      <point x="1012" y="793" type="line"/>
      <point x="1012" y="672" type="line"/>
    </contour>
  </outline>
</glyph>
<glyph name="comma" format="1">
  <advance width="512"/>
  <unicode hex="002C"/>
  <outline>
    <contour>
      <point x="397" y="86" type="qcurve" smooth="yes"/>
      <point x="397" y="21"/>
      <point x="361" y="-101"/>
      <point x="280" y="-205"/>
      <point x="153" y="-288"/>
      <point x="61" y="-315" type="qcurve"/>
      <point x="61" y="-229" type="line"/>
      <point x="162" y="-197"/>
      <point x="256" y="-105"/>
      <point x="256" y="-45" type="qcurve" smooth="yes"/>
      <point x="256" y="-25"/>
      <point x="234" y="2"/>
      <point x="200" y="23"/>
      <point x="162" y="43"/>
      <point x="128" y="71"/>
      <point x="106" y="112"/>
      <point x="106" y="143" type="qcurve" smooth="yes"/>
      <point x="106" y="202"/>
      <point x="183" y="264"/>
      <point x="240" y="264" type="qcurve" smooth="yes"/>
      <point x="272" y="264"/>
      <point x="328" y="241"/>
      <point x="372" y="196"/>
      <point x="397" y="129"/>
    </contour>
  </outline>
</glyph>
<glyph name="hyphen" format="1">
  <advance width="635"/>
  <unicode hex="002D"/>
  <unicode hex="00AD"/>
  <outline>
    <contour>
      <point x="51" y="481" type="line"/>
      <point x="51" y="635" type="line"/>
      <point x="584" y="635" type="line"/>
      <point x="584" y="481" type="line"/>
    </contour>
  </outline>
</glyph>
<glyph name="period" format="1">
  <advance width="586"/>
  <unicode hex="002E"/>
  <outline>
    <contour>
      <point x="164" y="125" type="qcurve" smooth="yes"/>
      <point x="164" y="165"/>
      <point x="184" y="218"/>
      <point x="219" y="250"/>
      <point x="266" y="264"/>
      <point x="293" y="264" type="qcurve" smooth="yes"/>
      <point x="319" y="264"/>
      <point x="366" y="250"/>
      <point x="401" y="218"/>
      <point x="422" y="165"/>
      <point x="422" y="125" type="qcurve" smooth="yes"/>
      <point x="422" y="86"/>
      <point x="401" y="32"/>
      <point x="366" y="0"/>
      <point x="319" y="-14"/>
      <point x="293" y="-14" type="qcurve" smooth="yes"/>
      <point x="266" y="-14"/>
      <point x="219" y="0"/>
      <point x="184" y="32"/>
      <point x="164" y="86"/>
    </contour>
  </outline>
</glyph>
<glyph name="slash" format="1">
  <advance width="590"/>
  <unicode hex="002F"/>
  <outline>
    <contour>
      <point x="121" y="-248" type="line"/>
      <point x="0" y="-248" type="line"/>
      <point x="471" y="1556" type="line"/>
      <point x="590" y="1556" type="line"/>
    </contour>
  </outline>
</glyph>
<glyph name="zero" format="1">
  <advance width="1145"/>
  <unicode hex="0030"/>
  <outline>
    <contour>
      <point x="1053" y="733" type="qcurve" smooth="yes"/>
      <point x="1053" y="564"/>
      <point x="994" y="286"/>
      <point x="874" y="88"/>
      <point x="694" y="-20"/>
      <point x="573" y="-20" type="qcurve" smooth="yes"/>
      <point x="447" y="-20"/>
      <point x="265" y="88"/>
      <point x="148" y="286"/>
      <point x="92" y="565"/>
      <point x="92" y="735" type="qcurve" smooth="yes"/>
      <point x="92" y="905"/>
      <point x="148" y="1181"/>
      <point x="265" y="1377"/>
      <point x="448" y="1483"/>
      <point x="575" y="1483" type="qcurve" smooth="yes"/>
      <point x="695" y="1483"/>
      <point x="874" y="1377"/>
      <point x="994" y="1181"/>
      <point x="1053" y="904"/>
    </contour>
    <contour>
      <point x="305" y="733" type="qcurve" smooth="yes"/>
      <point x="305" y="581"/>
      <point x="333" y="342"/>
      <point x="396" y="177"/>
      <point x="499" y="90"/>
      <point x="573" y="90" type="qcurve" smooth="yes"/>
      <point x="648" y="90"/>
      <point x="750" y="177"/>
      <point x="813" y="342"/>
      <point x="840" y="581"/>
      <point x="840" y="733" type="qcurve" smooth="yes"/>
      <point x="840" y="885"/>
      <point x="813" y="1123"/>
      <point x="750" y="1287"/>
      <point x="649" y="1372"/>
      <point x="575" y="1372" type="qcurve" smooth="yes"/>
      <point x="500" y="1372"/>
      <point x="397" y="1287"/>
      <point x="333" y="1123"/>
      <point x="305" y="885"/>
    </contour>
  </outline>
</glyph>
<glyph name="one" format="1">
  <advance width="1145"/>
  <unicode hex="0031"/>
  <outline>
    <contour>
      <point x="197" y="0" type="line"/>
      <point x="197" y="86" type="line"/>
      <point x="334" y="86" type="line" smooth="yes"/>
      <point x="369" y="86"/>
      <point x="430" y="96"/>
      <point x="475" y="127"/>
      <point x="502" y="185"/>
      <point x="502" y="233" type="qcurve" smooth="yes"/>
      <point x="502" y="1309" type="line"/>
      <point x="463" y="1261"/>
      <point x="393" y="1183"/>
      <point x="329" y="1127"/>
      <point x="268" y="1096"/>
      <point x="238" y="1096" type="qcurve" smooth="yes"/>
      <point x="193" y="1096"/>
      <point x="135" y="1157"/>
      <point x="135" y="1206" type="qcurve"/>
      <point x="166" y="1214"/>
      <point x="229" y="1237"/>
      <point x="300" y="1274"/>
      <point x="383" y="1327"/>
      <point x="434" y="1364" type="qcurve" smooth="yes"/>
      <point x="578" y="1470" type="line"/>
      <point x="709" y="1470" type="line"/>
      <point x="709" y="233" type="line" smooth="yes"/>
      <point x="709" y="185"/>
      <point x="735" y="127"/>
      <point x="781" y="96"/>
      <point x="842" y="86"/>
      <point x="877" y="86" type="qcurve" smooth="yes"/>
      <point x="977" y="86" type="line"/>
      <point x="977" y="0" type="line"/>
    </contour>
  </outline>
</glyph>
<glyph name="two" format="1">
  <advance width="1145"/>
  <unicode hex="0032"/>
  <outline>
    <contour>
      <point x="944" y="1141" type="qcurve" smooth="yes"/>
      <point x="944" y="1069"/>
      <point x="898" y="933"/>
      <point x="810" y="790"/>
      <point x="683" y="636"/>
      <point x="602" y="547" type="qcurve" smooth="yes"/>
      <point x="256" y="164" type="line"/>
      <point x="729" y="164" type="line" smooth="yes"/>
      <point x="775" y="164"/>
      <point x="835" y="190"/>
      <point x="873" y="232"/>
      <point x="894" y="287"/>
      <point x="901" y="317" type="qcurve" smooth="yes"/>
      <point x="909" y="354" type="line"/>
      <point x="995" y="354" type="line"/>
      <point x="985" y="0" type="line"/>
      <point x="104" y="0" type="line"/>
      <point x="104" y="150" type="line"/>
      <point x="446" y="545" type="line" smooth="yes"/>
      <point x="528" y="640"/>
      <point x="639" y="790"/>
      <point x="707" y="923"/>
      <point x="737" y="1050"/>
      <point x="737" y="1120" type="qcurve" smooth="yes"/>
      <point x="737" y="1179"/>
      <point x="712" y="1274"/>
      <point x="661" y="1343"/>
      <point x="582" y="1380"/>
      <point x="528" y="1380" type="qcurve" smooth="yes"/>
      <point x="458" y="1380"/>
      <point x="371" y="1330"/>
      <point x="321" y="1246"/>
      <point x="303" y="1136"/>
      <point x="303" y="1075" type="qcurve"/>
      <point x="266" y="1075"/>
      <point x="202" y="1087"/>
      <point x="154" y="1118"/>
      <point x="127" y="1169"/>
      <point x="127" y="1208" type="qcurve" smooth="yes"/>
      <point x="127" y="1267"/>
      <point x="178" y="1368"/>
      <point x="279" y="1442"/>
      <point x="429" y="1483"/>
      <point x="528" y="1483" type="qcurve" smooth="yes"/>
      <point x="625" y="1483"/>
      <point x="779" y="1434"/>
      <point x="887" y="1345"/>
      <point x="944" y="1219"/>
    </contour>
  </outline>
</glyph>
<glyph name="three" format="1">
  <advance width="1145"/>
  <unicode hex="0033"/>
  <outline>
    <contour>
      <point x="508" y="90" type="qcurve" smooth="yes"/>
      <point x="569" y="90"/>
      <point x="679" y="124"/>
      <point x="763" y="202"/>
      <point x="813" y="328"/>
      <point x="813" y="420" type="qcurve" smooth="yes"/>
      <point x="813" y="485"/>
      <point x="762" y="590"/>
      <point x="666" y="664"/>
      <point x="528" y="705"/>
      <point x="442" y="705" type="qcurve" smooth="yes"/>
      <point x="377" y="705" type="line"/>
      <point x="377" y="809" type="line"/>
      <point x="442" y="809" type="line" smooth="yes"/>
      <point x="510" y="809"/>
      <point x="627" y="854"/>
      <point x="714" y="936"/>
      <point x="764" y="1053"/>
      <point x="764" y="1126" type="qcurve" smooth="yes"/>
      <point x="764" y="1186"/>
      <point x="740" y="1280"/>
      <point x="687" y="1346"/>
      <point x="604" y="1380"/>
      <point x="545" y="1380" type="qcurve" smooth="yes"/>
      <point x="475" y="1380"/>
      <point x="387" y="1330"/>
      <point x="337" y="1246"/>
      <point x="319" y="1136"/>
      <point x="319" y="1075" type="qcurve"/>
      <point x="282" y="1075"/>
      <point x="218" y="1087"/>
      <point x="170" y="1118"/>
      <point x="143" y="1169"/>
      <point x="143" y="1208" type="qcurve" smooth="yes"/>
      <point x="143" y="1267"/>
      <point x="194" y="1368"/>
      <point x="296" y="1442"/>
      <point x="446" y="1483"/>
      <point x="545" y="1483" type="qcurve" smooth="yes"/>
      <point x="642" y="1483"/>
      <point x="800" y="1439"/>
      <point x="913" y="1356"/>
      <point x="975" y="1235"/>
      <point x="975" y="1157" type="qcurve" smooth="yes"/>
      <point x="975" y="1088"/>
      <point x="926" y="966"/>
      <point x="838" y="867"/>
      <point x="718" y="797"/>
      <point x="647" y="780" type="qcurve"/>
      <point x="685" y="776"/>
      <point x="771" y="757"/>
      <point x="855" y="721"/>
      <point x="932" y="667"/>
      <point x="991" y="589"/>
      <point x="1026" y="486"/>
      <point x="1026" y="418" type="qcurve" smooth="yes"/>
      <point x="1026" y="336"/>
      <point x="982" y="206"/>
      <point x="905" y="109"/>
      <point x="803" y="41"/>
      <point x="687" y="-1"/>
      <point x="565" y="-20"/>
      <point x="506" y="-20" type="qcurve" smooth="yes"/>
      <point x="405" y="-20"/>
      <point x="259" y="17"/>
      <point x="164" y="79"/>
      <point x="119" y="162"/>
      <point x="119" y="207" type="qcurve" smooth="yes"/>
      <point x="119" y="269"/>
      <point x="189" y="338"/>
      <point x="248" y="338" type="qcurve"/>
      <point x="248" y="284"/>
      <point x="283" y="193"/>
      <point x="349" y="127"/>
      <point x="446" y="90"/>
    </contour>
  </outline>
</glyph>
<glyph name="four" format="1">
  <advance width="1145"/>
  <unicode hex="0034"/>
  <outline>
    <contour>
      <point x="862" y="401" type="line"/>
      <point x="862" y="233" type="line" smooth="yes"/>
      <point x="862" y="185"/>
      <point x="889" y="127"/>
      <point x="934" y="96"/>
      <point x="996" y="86"/>
      <point x="1030" y="86" type="qcurve" smooth="yes"/>
      <point x="1057" y="86" type="line"/>
      <point x="1057" y="0" type="line"/>
      <point x="440" y="0" type="line"/>
      <point x="440" y="86" type="line"/>
      <point x="498" y="86" type="line" smooth="yes"/>
      <point x="533" y="86"/>
      <point x="594" y="96"/>
      <point x="639" y="127"/>
      <point x="666" y="185"/>
      <point x="666" y="233" type="qcurve" smooth="yes"/>
      <point x="666" y="401" type="line"/>
      <point x="35" y="401" type="line"/>
      <point x="35" y="485" type="line"/>
      <point x="668" y="1462" type="line"/>
      <point x="862" y="1462" type="line"/>
      <point x="862" y="516" type="line"/>
      <point x="1116" y="516" type="line"/>
      <point x="1116" y="401" type="line"/>
    </contour>
    <contour>
      <point x="666" y="895" type="line" smooth="yes"/>
      <point x="666" y="940"/>
      <point x="668" y="1048"/>
      <point x="671" y="1160"/>
      <point x="676" y="1271"/>
      <point x="680" y="1319" type="qcurve"/>
      <point x="673" y="1305"/>
      <point x="647" y="1258"/>
      <point x="614" y="1200"/>
      <point x="577" y="1136"/>
      <point x="540" y="1075"/>
      <point x="508" y="1022"/>
      <point x="496" y="1004" type="qcurve" smooth="yes"/>
      <point x="182" y="516" type="line"/>
      <point x="666" y="516" type="line"/>
    </contour>
  </outline>
</glyph>
<glyph name="five" format="1">
  <advance width="1145"/>
  <unicode hex="0035"/>
  <outline>
    <contour>
      <point x="489" y="100" type="qcurve" smooth="yes"/>
      <point x="552" y="100"/>
      <point x="659" y="135"/>
      <point x="738" y="216"/>
      <point x="782" y="349"/>
      <point x="782" y="446" type="qcurve" smooth="yes"/>
      <point x="782" y="527"/>
      <point x="738" y="647"/>
      <point x="656" y="727"/>
      <point x="542" y="766"/>
      <point x="471" y="766" type="qcurve" smooth="yes"/>
      <point x="418" y="766"/>
      <point x="341" y="758"/>
      <point x="282" y="745"/>
      <point x="238" y="729"/>
      <point x="219" y="721" type="qcurve"/>
      <point x="170" y="735" type="line"/>
      <point x="236" y="1460" type="line"/>
      <point x="920" y="1460" type="line"/>
      <point x="930" y="1151" type="line"/>
      <point x="844" y="1151" type="line"/>
      <point x="836" y="1212" type="line" smooth="yes"/>
      <point x="833" y="1234"/>
      <point x="822" y="1265"/>
      <point x="798" y="1286"/>
      <point x="757" y="1296"/>
      <point x="725" y="1296" type="qcurve" smooth="yes"/>
      <point x="328" y="1296" type="line"/>
      <point x="289" y="846" type="line"/>
      <point x="320" y="857"/>
      <point x="437" y="879"/>
      <point x="528" y="879" type="qcurve" smooth="yes"/>
      <point x="627" y="879"/>
      <point x="798" y="825"/>
      <point x="924" y="717"/>
      <point x="995" y="554"/>
      <point x="995" y="446" type="qcurve" smooth="yes"/>
      <point x="995" y="342"/>
      <point x="928" y="170"/>
      <point x="801" y="47"/>
      <point x="617" y="-20"/>
      <point x="500" y="-20" type="qcurve" smooth="yes"/>
      <point x="386" y="-20"/>
      <point x="237" y="19"/>
      <point x="149" y="79"/>
      <point x="113" y="152"/>
      <point x="113" y="186" type="qcurve" smooth="yes"/>
      <point x="113" y="243"/>
      <point x="176" y="307"/>
      <point x="242" y="307" type="qcurve"/>
      <point x="242" y="263"/>
      <point x="273" y="187"/>
      <point x="334" y="132"/>
      <point x="427" y="100"/>
    </contour>
  </outline>
</glyph>
<glyph name="six" format="1">
  <advance width="1145"/>
  <unicode hex="0036"/>
  <outline>
    <contour>
      <point x="659" y="1384" type="qcurve" smooth="yes"/>
      <point x="505" y="1384"/>
      <point x="347" y="1081"/>
      <point x="336" y="782" type="qcurve"/>
      <point x="361" y="803"/>
      <point x="422" y="842"/>
      <point x="494" y="871"/>
      <point x="579" y="889"/>
      <point x="629" y="889" type="qcurve" smooth="yes"/>
      <point x="723" y="889"/>
      <point x="875" y="831"/>
      <point x="982" y="723"/>
      <point x="1040" y="567"/>
      <point x="1040" y="469" type="qcurve" smooth="yes"/>
      <point x="1040" y="361"/>
      <point x="981" y="181"/>
      <point x="868" y="52"/>
      <point x="705" y="-20"/>
      <point x="600" y="-20" type="qcurve" smooth="yes"/>
      <point x="498" y="-20"/>
      <point x="324" y="65"/>
      <point x="197" y="248"/>
      <point x="125" y="535"/>
      <point x="125" y="737" type="qcurve" smooth="yes"/>
      <point x="125" y="834"/>
      <point x="154" y="1020"/>
      <point x="212" y="1186"/>
      <point x="300" y="1326"/>
      <point x="419" y="1427"/>
      <point x="569" y="1483"/>
      <point x="659" y="1483" type="qcurve" smooth="yes"/>
      <point x="745" y="1483"/>
      <point x="872" y="1447"/>
      <point x="956" y="1387"/>
      <point x="997" y="1309"/>
      <point x="997" y="1268" type="qcurve" smooth="yes"/>
      <point x="997" y="1209"/>
      <point x="917" y="1145"/>
      <point x="840" y="1145" type="qcurve"/>
      <point x="840" y="1195"/>
      <point x="821" y="1282"/>
      <point x="777" y="1347"/>
      <point x="709" y="1384"/>
    </contour>
    <contour>
      <point x="588" y="784" type="qcurve" smooth="yes"/>
      <point x="548" y="784"/>
      <point x="474" y="763"/>
      <point x="409" y="730"/>
      <point x="355" y="687"/>
      <point x="334" y="666" type="qcurve"/>
      <point x="336" y="512"/>
      <point x="375" y="294"/>
      <point x="445" y="156"/>
      <point x="545" y="92"/>
      <point x="606" y="92" type="qcurve" smooth="yes"/>
      <point x="716" y="92"/>
      <point x="831" y="263"/>
      <point x="831" y="449" type="qcurve" smooth="yes"/>
      <point x="831" y="624"/>
      <point x="706" y="784"/>
    </contour>
  </outline>
</glyph>
<glyph name="seven" format="1">
  <advance width="1145"/>
  <unicode hex="0037"/>
  <outline>
    <contour>
      <point x="389" y="0" type="line"/>
      <point x="872" y="1296" type="line"/>
      <point x="334" y="1296" type="line" smooth="yes"/>
      <point x="224" y="1296"/>
      <point x="215" y="1192" type="qcurve" smooth="yes"/>
      <point x="207" y="1090" type="line"/>
      <point x="121" y="1090" type="line"/>
      <point x="131" y="1460" type="line"/>
      <point x="1047" y="1460" type="line"/>
      <point x="1047" y="1401" type="line"/>
      <point x="543" y="0" type="line"/>
    </contour>
  </outline>
</glyph>
<glyph name="eight" format="1">
  <advance width="1145"/>
  <unicode hex="0038"/>
  <outline>
    <contour>
      <point x="94" y="367" type="qcurve" smooth="yes"/>
      <point x="94" y="441"/>
      <point x="141" y="552"/>
      <point x="225" y="639"/>
      <point x="339" y="709"/>
      <point x="406" y="741" type="qcurve"/>
      <point x="348" y="774"/>
      <point x="250" y="851"/>
      <point x="180" y="943"/>
      <point x="141" y="1052"/>
      <point x="141" y="1116" type="qcurve" smooth="yes"/>
      <point x="141" y="1187"/>
      <point x="191" y="1319"/>
      <point x="297" y="1421"/>
      <point x="466" y="1483"/>
      <point x="584" y="1483" type="qcurve" smooth="yes"/>
      <point x="680" y="1483"/>
      <point x="830" y="1430"/>
      <point x="933" y="1336"/>
      <point x="987" y="1207"/>
      <point x="987" y="1130" type="qcurve" smooth="yes"/>
      <point x="987" y="1063"/>
      <point x="947" y="961"/>
      <point x="875" y="880"/>
      <point x="773" y="815"/>
      <point x="711" y="784" type="qcurve"/>
      <point x="787" y="748"/>
      <point x="912" y="666"/>
      <point x="1002" y="570"/>
      <point x="1051" y="458"/>
      <point x="1051" y="391" type="qcurve" smooth="yes"/>
      <point x="1051" y="294"/>
      <point x="981" y="141"/>
      <point x="853" y="35"/>
      <point x="671" y="-20"/>
      <point x="559" y="-20" type="qcurve" smooth="yes"/>
      <point x="444" y="-20"/>
      <point x="270" y="40"/>
      <point x="153" y="145"/>
      <point x="94" y="286"/>
    </contour>
    <contour>
      <point x="569" y="74" type="qcurve" smooth="yes"/>
      <point x="636" y="74"/>
      <point x="745" y="115"/>
      <point x="822" y="187"/>
      <point x="864" y="287"/>
      <point x="864" y="346" type="qcurve" smooth="yes"/>
      <point x="864" y="398"/>
      <point x="826" y="487"/>
      <point x="740" y="570"/>
      <point x="603" y="649"/>
      <point x="504" y="692" type="qcurve"/>
      <point x="407" y="640"/>
      <point x="293" y="474"/>
      <point x="293" y="358" type="qcurve" smooth="yes"/>
      <point x="293" y="294"/>
      <point x="328" y="190"/>
      <point x="397" y="115"/>
      <point x="501" y="74"/>
    </contour>
    <contour>
      <point x="805" y="1135" type="qcurve" smooth="yes"/>
      <point x="805" y="1182"/>
      <point x="780" y="1272"/>
      <point x="725" y="1343"/>
      <point x="636" y="1386"/>
      <point x="571" y="1386" type="qcurve" smooth="yes"/>
      <point x="514" y="1386"/>
      <point x="425" y="1349"/>
      <point x="365" y="1284"/>
      <point x="334" y="1194"/>
      <point x="334" y="1141" type="qcurve" smooth="yes"/>
      <point x="334" y="1086"/>
      <point x="369" y="998"/>
      <point x="438" y="926"/>
      <point x="542" y="863"/>
      <point x="610" y="831" type="qcurve"/>
      <point x="668" y="860"/>
      <point x="743" y="921"/>
      <point x="787" y="994"/>
      <point x="805" y="1081"/>
    </contour>
  </outline>
</glyph>
<glyph name="nine" format="1">
  <advance width="1145"/>
  <unicode hex="0039"/>
  <outline>
    <contour>
      <point x="467" y="90" type="qcurve" smooth="yes"/>
      <point x="637" y="90"/>
      <point x="799" y="394"/>
      <point x="809" y="702" type="qcurve"/>
      <point x="787" y="675"/>
      <point x="728" y="625"/>
      <point x="653" y="586"/>
      <point x="562" y="563"/>
      <point x="508" y="563" type="qcurve" smooth="yes"/>
      <point x="419" y="563"/>
      <point x="270" y="615"/>
      <point x="163" y="719"/>
      <point x="104" y="875"/>
      <point x="104" y="979" type="qcurve" smooth="yes"/>
      <point x="104" y="1090"/>
      <point x="164" y="1275"/>
      <point x="277" y="1408"/>
      <point x="440" y="1483"/>
      <point x="543" y="1483" type="qcurve" smooth="yes"/>
      <point x="647" y="1483"/>
      <point x="821" y="1403"/>
      <point x="949" y="1235"/>
      <point x="1020" y="975"/>
      <point x="1020" y="795" type="qcurve" smooth="yes"/>
      <point x="1020" y="688"/>
      <point x="993" y="483"/>
      <point x="936" y="301"/>
      <point x="847" y="149"/>
      <point x="724" y="38"/>
      <point x="564" y="-23"/>
      <point x="465" y="-23" type="qcurve" smooth="yes"/>
      <point x="378" y="-23"/>
      <point x="263" y="8"/>
      <point x="196" y="58"/>
      <point x="168" y="122"/>
      <point x="168" y="154" type="qcurve" smooth="yes"/>
      <point x="168" y="192"/>
      <point x="206" y="244"/>
      <point x="229" y="252" type="qcurve"/>
      <point x="243" y="220"/>
      <point x="284" y="161"/>
      <point x="343" y="116"/>
      <point x="419" y="90"/>
    </contour>
    <contour>
      <point x="553" y="684" type="qcurve" smooth="yes"/>
      <point x="603" y="685"/>
      <point x="686" y="712"/>
      <point x="750" y="757"/>
      <point x="797" y="817"/>
      <point x="811" y="850" type="qcurve"/>
      <point x="811" y="854" type="line" smooth="yes"/>
      <point x="809" y="989"/>
      <point x="769" y="1184"/>
      <point x="699" y="1310"/>
      <point x="602" y="1370"/>
      <point x="543" y="1370" type="qcurve" smooth="yes"/>
      <point x="434" y="1370"/>
      <point x="315" y="1180"/>
      <point x="315" y="999" type="qcurve" smooth="yes"/>
      <point x="315" y="915"/>
      <point x="345" y="795"/>
      <point x="405" y="719"/>
      <point x="494" y="684"/>
    </contour>
  </outline>
</glyph>
<glyph name="colon" format="1">
  <advance width="588"/>
  <unicode hex="003A"/>
  <outline>
    <contour>
      <point x="166" y="125" type="qcurve" smooth="yes"/>
      <point x="166" y="165"/>
      <point x="186" y="218"/>
      <point x="221" y="250"/>
      <point x="268" y="264"/>
      <point x="295" y="264" type="qcurve" smooth="yes"/>
      <point x="321" y="264"/>
      <point x="368" y="250"/>
      <point x="403" y="218"/>
      <point x="424" y="165"/>
      <point x="424" y="125" type="qcurve" smooth="yes"/>
      <point x="424" y="86"/>
      <point x="403" y="32"/>
      <point x="368" y="0"/>
      <point x="321" y="-14"/>
      <point x="295" y="-14" type="qcurve" smooth="yes"/>
      <point x="268" y="-14"/>
      <point x="221" y="0"/>
      <point x="186" y="32"/>
      <point x="166" y="86"/>
    </contour>
    <contour>
      <point x="166" y="969" type="qcurve" smooth="yes"/>
      <point x="166" y="1009"/>
      <point x="186" y="1062"/>
      <point x="221" y="1094"/>
      <point x="268" y="1108"/>
      <point x="295" y="1108" type="qcurve" smooth="yes"/>
      <point x="321" y="1108"/>
      <point x="368" y="1094"/>
      <point x="403" y="1062"/>
      <point x="424" y="1009"/>
      <point x="424" y="969" type="qcurve" smooth="yes"/>
      <point x="424" y="930"/>
      <point x="403" y="876"/>
      <point x="368" y="843"/>
      <point x="321" y="829"/>
      <point x="295" y="829" type="qcurve" smooth="yes"/>
      <point x="268" y="829"/>
      <point x="221" y="843"/>
      <point x="186" y="876"/>
      <point x="166" y="930"/>
    </contour>
  </outline>
</glyph>
<glyph name="semicolon" format="1">
  <advance width="512"/>
  <unicode hex="003B"/>
  <unicode hex="037E"/>
  <outline>
    <contour>
      <point x="397" y="86" type="qcurve" smooth="yes"/>
      <point x="397" y="21"/>
      <point x="361" y="-101"/>
      <point x="280" y="-205"/>
      <point x="153" y="-288"/>
      <point x="61" y="-315" type="qcurve"/>
      <point x="61" y="-229" type="line"/>
      <point x="162" y="-197"/>
      <point x="256" y="-105"/>
      <point x="256" y="-45" type="qcurve" smooth="yes"/>
      <point x="256" y="-25"/>
      <point x="234" y="2"/>
      <point x="200" y="23"/>
      <point x="162" y="43"/>
      <point x="128" y="71"/>
      <point x="106" y="112"/>
      <point x="106" y="143" type="qcurve" smooth="yes"/>
      <point x="106" y="202"/>
      <point x="183" y="264"/>
      <point x="240" y="264" type="qcurve" smooth="yes"/>
      <point x="272" y="264"/>
      <point x="328" y="241"/>
      <point x="372" y="196"/>
      <point x="397" y="129"/>
    </contour>
    <contour>
      <point x="129" y="969" type="qcurve" smooth="yes"/>
      <point x="129" y="1009"/>
      <point x="149" y="1062"/>
      <point x="184" y="1094"/>
      <point x="231" y="1108"/>
      <point x="258" y="1108" type="qcurve" smooth="yes"/>
      <point x="284" y="1108"/>
      <point x="331" y="1094"/>
      <point x="366" y="1062"/>
      <point x="387" y="1009"/>
      <point x="387" y="969" type="qcurve" smooth="yes"/>
      <point x="387" y="930"/>
      <point x="366" y="876"/>
      <point x="331" y="843"/>
      <point x="284" y="829"/>
      <point x="258" y="829" type="qcurve" smooth="yes"/>
      <point x="231" y="829"/>
      <point x="184" y="843"/>
      <point x="149" y="876"/>
      <point x="129" y="930"/>
    </contour>
  </outline>
</glyph>
<glyph name="less" format="1">
  <advance width="1145"/>
  <unicode hex="003C"/>
  <outline>
    <contour>
      <point x="133" y="696" type="line"/>
      <point x="133" y="768" type="line"/>
      <point x="1012" y="1241" type="line"/>
      <point x="1012" y="1104" type="line"/>
      <point x="324" y="731" type="line"/>
      <point x="1012" y="362" type="line"/>
      <point x="1012" y="225" type="line"/>
    </contour>
  </outline>
</glyph>
<glyph name="equal" format="1">
  <advance width="1145"/>
  <unicode hex="003D"/>
  <outline>
    <contour>
      <point x="1012" y="590" type="line"/>
      <point x="1012" y="469" type="line"/>
      <point x="133" y="469" type="line"/>
      <point x="133" y="590" type="line"/>
    </contour>
    <contour>
      <point x="1012" y="993" type="line"/>
      <point x="1012" y="872" type="line"/>
      <point x="133" y="872" type="line"/>
      <point x="133" y="993" type="line"/>
    </contour>
  </outline>
</glyph>
<glyph name="greater" format="1">
  <advance width="1145"/>
  <unicode hex="003E"/>
  <outline>
    <contour>
      <point x="133" y="225" type="line"/>
      <point x="133" y="362" type="line"/>
      <point x="821" y="731" type="line"/>
      <point x="133" y="1104" type="line"/>
      <point x="133" y="1241" type="line"/>
      <point x="1012" y="768" type="line"/>
      <point x="1012" y="696" type="line"/>
    </contour>
  </outline>
</glyph>
<glyph name="question" format="1">
  <advance width="1024"/>
  <unicode hex="003F"/>
  <outline>
    <contour>
      <point x="522" y="412" type="line"/>
      <point x="397" y="412" type="line"/>
      <point x="397" y="723" type="line"/>
      <point x="486" y="759"/>
      <point x="607" y="854"/>
      <point x="680" y="965"/>
      <point x="711" y="1086"/>
      <point x="711" y="1147" type="qcurve" smooth="yes"/>
      <point x="711" y="1200"/>
      <point x="685" y="1287"/>
      <point x="631" y="1348"/>
      <point x="546" y="1382"/>
      <point x="487" y="1382" type="qcurve" smooth="yes"/>
      <point x="423" y="1382"/>
      <point x="336" y="1340"/>
      <point x="282" y="1268"/>
      <point x="258" y="1173"/>
      <point x="258" y="1120" type="qcurve"/>
      <point x="221" y="1120"/>
      <point x="159" y="1137"/>
      <point x="114" y="1170"/>
      <point x="88" y="1220"/>
      <point x="88" y="1253" type="qcurve" smooth="yes"/>
      <point x="88" y="1302"/>
      <point x="133" y="1386"/>
      <point x="228" y="1448"/>
      <point x="372" y="1483"/>
      <point x="471" y="1483" type="qcurve" smooth="yes"/>
      <point x="568" y="1483"/>
      <point x="732" y="1433"/>
      <point x="852" y="1338"/>
      <point x="920" y="1200"/>
      <point x="920" y="1112" type="qcurve" smooth="yes"/>
      <point x="920" y="1028"/>
      <point x="867" y="890"/>
      <point x="765" y="776"/>
      <point x="617" y="682"/>
      <point x="522" y="643" type="qcurve"/>
    </contour>
    <contour>
      <point x="328" y="125" type="qcurve" smooth="yes"/>
      <point x="328" y="165"/>
      <point x="348" y="218"/>
      <point x="383" y="250"/>
      <point x="430" y="264"/>
      <point x="457" y="264" type="qcurve" smooth="yes"/>
      <point x="483" y="264"/>
      <point x="530" y="250"/>
      <point x="565" y="218"/>
      <point x="586" y="165"/>
      <point x="586" y="125" type="qcurve" smooth="yes"/>
      <point x="586" y="86"/>
      <point x="565" y="32"/>
      <point x="530" y="0"/>
      <point x="483" y="-14"/>
      <point x="457" y="-14" type="qcurve" smooth="yes"/>
      <point x="430" y="-14"/>
      <point x="383" y="0"/>
      <point x="348" y="32"/>
      <point x="328" y="86"/>
    </contour>
  </outline>
</glyph>
<glyph name="at" format="1">
  <advance width="1886"/>
  <unicode hex="0040"/>
  <outline>
    <contour>
      <point x="1778" y="803" type="qcurve" smooth="yes"/>
      <point x="1778" y="655"/>
      <point x="1706" y="416"/>
      <point x="1590" y="248"/>
      <point x="1447" y="158"/>
      <point x="1376" y="158" type="qcurve" smooth="yes"/>
      <point x="1285" y="158"/>
      <point x="1164" y="256"/>
      <point x="1135" y="344" type="qcurve"/>
      <point x="1124" y="344" type="line"/>
      <point x="1103" y="304"/>
      <point x="1050" y="236"/>
      <point x="983" y="186"/>
      <point x="900" y="158"/>
      <point x="848" y="158" type="qcurve" smooth="yes"/>
      <point x="786" y="158"/>
      <point x="673" y="200"/>
      <point x="588" y="286"/>
      <point x="537" y="418"/>
      <point x="537" y="508" type="qcurve" smooth="yes"/>
      <point x="537" y="563"/>
      <point x="562" y="691"/>
      <point x="615" y="818"/>
      <point x="698" y="937"/>
      <point x="814" y="1028"/>
      <point x="965" y="1083"/>
      <point x="1059" y="1083" type="qcurve" smooth="yes"/>
      <point x="1125" y="1083"/>
      <point x="1220" y="1047"/>
      <point x="1251" y="1022" type="qcurve"/>
      <point x="1333" y="1065" type="line"/>
      <point x="1382" y="1065" type="line"/>
      <point x="1278" y="543" type="line" smooth="yes"/>
      <point x="1275" y="519"/>
      <point x="1271" y="495" type="qcurve" smooth="yes"/>
      <point x="1268" y="475"/>
      <point x="1264" y="427"/>
      <point x="1264" y="406" type="qcurve" smooth="yes"/>
      <point x="1264" y="370"/>
      <point x="1285" y="317"/>
      <point x="1319" y="282"/>
      <point x="1364" y="266"/>
      <point x="1389" y="266" type="qcurve" smooth="yes"/>
      <point x="1434" y="266"/>
      <point x="1528" y="338"/>
      <point x="1604" y="477"/>
      <point x="1653" y="679"/>
      <point x="1653" y="809" type="qcurve" smooth="yes"/>
      <point x="1653" y="943"/>
      <point x="1567" y="1148"/>
      <point x="1414" y="1287"/>
      <point x="1201" y="1358"/>
      <point x="1073" y="1358" type="qcurve" smooth="yes"/>
      <point x="973" y="1358"/>
      <point x="780" y="1302"/>
      <point x="608" y="1193"/>
      <point x="461" y="1036"/>
      <point x="355" y="835"/>
      <point x="295" y="591"/>
      <point x="295" y="451" type="qcurve" smooth="yes"/>
      <point x="295" y="280"/>
      <point x="393" y="39"/>
      <point x="560" y="-114"/>
      <point x="781" y="-184"/>
      <point x="905" y="-184" type="qcurve" smooth="yes"/>
      <point x="989" y="-184"/>
      <point x="1139" y="-155"/>
      <point x="1270" y="-107"/>
      <point x="1381" y="-46"/>
      <point x="1425" y="-14" type="qcurve"/>
      <point x="1473" y="-88" type="line"/>
      <point x="1422" y="-126"/>
      <point x="1296" y="-199"/>
      <point x="1149" y="-256"/>
      <point x="980" y="-291"/>
      <point x="885" y="-291" type="qcurve" smooth="yes"/>
      <point x="720" y="-291"/>
      <point x="444" y="-200"/>
      <point x="245" y="-16"/>
      <point x="133" y="260"/>
      <point x="133" y="446" type="qcurve" smooth="yes"/>
      <point x="133" y="591"/>
      <point x="196" y="854"/>
      <point x="315" y="1080"/>
      <point x="484" y="1263"/>
      <point x="696" y="1392"/>
      <point x="945" y="1462"/>
      <point x="1085" y="1462" type="qcurve" smooth="yes"/>
      <point x="1257" y="1462"/>
      <point x="1517" y="1360"/>
      <point x="1691" y="1183"/>
      <point x="1778" y="942"/>
    </contour>
    <contour>
      <point x="727" y="479" type="qcurve" smooth="yes"/>
      <point x="727" y="371"/>
      <point x="814" y="266"/>
      <point x="883" y="266" type="qcurve" smooth="yes"/>
      <point x="935" y="266"/>
      <point x="1011" y="311"/>
      <point x="1063" y="383"/>
      <point x="1095" y="475"/>
      <point x="1104" y="522" type="qcurve" smooth="yes"/>
      <point x="1182" y="938" type="line"/>
      <point x="1169" y="967"/>
      <point x="1104" y="999"/>
      <point x="1067" y="999" type="qcurve" smooth="yes"/>
      <point x="1006" y="999"/>
      <point x="907" y="946"/>
      <point x="832" y="860"/>
      <point x="778" y="749"/>
      <point x="743" y="633"/>
      <point x="727" y="523"/>
    </contour>
  </outline>
</glyph>
<glyph name="uni0E81" format="1">
  <advance width="1446"/>
  <unicode hex="0E81"/>
  <outline>
    <contour>
      <point x="198" y="191" type="qcurve" smooth="yes"/>
      <point x="198" y="116"/>
      <point x="273" y="116" type="qcurve" smooth="yes"/>
      <point x="349" y="116"/>
      <point x="349" y="191" type="qcurve" smooth="yes"/>
      <point x="349" y="267"/>
      <point x="273" y="267" type="qcurve" smooth="yes"/>
      <point x="198" y="267"/>
    </contour>
    <contour>
      <point x="340" y="1045" type="qcurve"/>
      <point x="340" y="1068" type="line" smooth="yes"/>
      <point x="340" y="1186"/>
      <point x="268" y="1186" type="qcurve" smooth="yes"/>
      <point x="198" y="1186"/>
      <point x="198" y="1115" type="qcurve" smooth="yes"/>
      <point x="198" y="1044"/>
      <point x="311" y="1044" type="qcurve" smooth="yes"/>
      <point x="326" y="1044"/>
    </contour>
    <contour>
      <point x="273" y="0" type="qcurve" smooth="yes"/>
      <point x="171" y="0"/>
      <point x="124" y="54" type="qcurve" smooth="yes"/>
      <point x="82" y="102"/>
      <point x="82" y="191" type="qcurve" smooth="yes"/>
      <point x="82" y="281"/>
      <point x="124" y="328" type="qcurve" smooth="yes"/>
      <point x="172" y="382"/>
      <point x="273" y="382" type="qcurve" smooth="yes"/>
      <point x="310" y="382"/>
      <point x="340" y="375" type="qcurve"/>
      <point x="340" y="930" type="line"/>
      <point x="313" y="930" type="line" smooth="yes"/>
      <point x="189" y="930"/>
      <point x="132" y="983" type="qcurve" smooth="yes"/>
      <point x="82" y="1029"/>
      <point x="82" y="1115" type="qcurve" smooth="yes"/>
      <point x="82" y="1209"/>
      <point x="131" y="1255" type="qcurve" smooth="yes"/>
      <point x="179" y="1300"/>
      <point x="273" y="1300" type="qcurve" smooth="yes"/>
      <point x="475" y="1300"/>
      <point x="517" y="1159" type="qcurve"/>
      <point x="628" y="1300"/>
      <point x="846" y="1300" type="qcurve" smooth="yes"/>
      <point x="1063" y="1300"/>
      <point x="1278" y="1124"/>
      <point x="1278" y="950" type="qcurve" smooth="yes"/>
      <point x="1278" y="200" type="line" smooth="yes"/>
      <point x="1278" y="105"/>
      <point x="1228" y="0" type="qcurve"/>
      <point x="1040" y="0" type="line"/>
      <point x="1090" y="75"/>
      <point x="1090" y="200" type="qcurve" smooth="yes"/>
      <point x="1090" y="950" type="line" smooth="yes"/>
      <point x="1090" y="1039"/>
      <point x="968" y="1190"/>
      <point x="846" y="1190" type="qcurve" smooth="yes"/>
      <point x="658" y="1190"/>
      <point x="561" y="1033" type="qcurve"/>
      <point x="528" y="985" type="line"/>
      <point x="528" y="260" type="line" smooth="yes"/>
      <point x="528" y="123"/>
      <point x="457" y="58" type="qcurve" smooth="yes"/>
      <point x="394" y="0"/>
    </contour>
  </outline>
</glyph>
<glyph name="uni0E82" format="1">
  <advance width="1354"/>
  <unicode hex="0E82"/>
  <outline>
    <contour>
      <point x="417" y="700" type="qcurve" smooth="yes"/>
      <point x="147" y="700"/>
      <point x="147" y="961" type="qcurve" smooth="yes"/>
      <point x="147" y="1300"/>
      <point x="677" y="1300" type="qcurve" smooth="yes"/>
      <point x="957" y="1300"/>
      <point x="1207" y="1136"/>
      <point x="1207" y="921" type="qcurve" smooth="yes"/>
      <point x="1207" y="750"/>
      <point x="912" y="572"/>
      <point x="677" y="514" type="qcurve" smooth="yes"/>
      <point x="506" y="470" type="line" smooth="yes"/>
      <point x="335" y="425"/>
      <point x="335" y="230" type="qcurve" smooth="yes"/>
      <point x="335" y="110"/>
      <point x="439" y="110" type="qcurve" smooth="yes"/>
      <point x="543" y="110"/>
      <point x="850" y="364"/>
      <point x="1002" y="364" type="qcurve" smooth="yes"/>
      <point x="1233" y="364"/>
      <point x="1297" y="87" type="qcurve"/>
      <point x="1237" y="-20" type="line"/>
      <point x="1196" y="96"/>
      <point x="1090" y="200"/>
      <point x="1002" y="200" type="qcurve" smooth="yes"/>
      <point x="893" y="200"/>
      <point x="593" y="0"/>
      <point x="439" y="0" type="qcurve" smooth="yes"/>
      <point x="293" y="0"/>
      <point x="147" y="115"/>
      <point x="147" y="230" type="qcurve" smooth="yes"/>
      <point x="147" y="495"/>
      <point x="396" y="558" type="qcurve" smooth="yes"/>
      <point x="644" y="622" type="line" smooth="yes"/>
      <point x="802" y="662"/>
      <point x="1019" y="802"/>
      <point x="1019" y="921" type="qcurve" smooth="yes"/>
      <point x="1019" y="1064"/>
      <point x="863" y="1190"/>
      <point x="677" y="1190" type="qcurve" smooth="yes"/>
      <point x="291" y="1190"/>
      <point x="291" y="961" type="qcurve" smooth="yes"/>
      <point x="291" y="960" type="line"/>
      <point x="310" y="984"/>
      <point x="338" y="1000" type="qcurve" smooth="yes"/>
      <point x="376" y="1020"/>
      <point x="417" y="1020" type="qcurve" smooth="yes"/>
      <point x="457" y="1020"/>
      <point x="534" y="979"/>
      <point x="577" y="902"/>
      <point x="577" y="860" type="qcurve" smooth="yes"/>
      <point x="577" y="818"/>
      <point x="535" y="742"/>
      <point x="459" y="700"/>
    </contour>
    <contour>
      <point x="368" y="910"/>
      <point x="350" y="878"/>
      <point x="350" y="860" type="qcurve" smooth="yes"/>
      <point x="350" y="842"/>
      <point x="367" y="810"/>
      <point x="399" y="793"/>
      <point x="417" y="793" type="qcurve" smooth="yes"/>
      <point x="435" y="793"/>
      <point x="467" y="810"/>
      <point x="485" y="842"/>
      <point x="485" y="860" type="qcurve" smooth="yes"/>
      <point x="485" y="878"/>
      <point x="466" y="910"/>
      <point x="434" y="928"/>
      <point x="417" y="928" type="qcurve" smooth="yes"/>
      <point x="400" y="928"/>
    </contour>
  </outline>
</glyph>
<glyph name="uni0E87" format="1">
  <advance width="910"/>
  <unicode hex="0E87"/>
  <outline>
    <contour>
      <point x="198" y="1040" type="qcurve" smooth="yes"/>
      <point x="198" y="966"/>
      <point x="273" y="966" type="qcurve" smooth="yes"/>
      <point x="349" y="966"/>
      <point x="349" y="1041" type="qcurve" smooth="yes"/>
      <point x="349" y="1117"/>
      <point x="273" y="1117" type="qcurve" smooth="yes"/>
      <point x="198" y="1117"/>
    </contour>
    <contour>
      <point x="420" y="-400" type="qcurve" smooth="yes"/>
      <point x="191" y="-400"/>
      <point x="32" y="-196" type="qcurve"/>
      <point x="191" y="-296"/>
      <point x="330" y="-296" type="qcurve" smooth="yes"/>
      <point x="453" y="-296"/>
      <point x="554" y="-112"/>
      <point x="554" y="0" type="qcurve" smooth="yes"/>
      <point x="554" y="920" type="line" smooth="yes"/>
      <point x="554" y="1137"/>
      <point x="413" y="1163" type="qcurve"/>
      <point x="464" y="1117"/>
      <point x="464" y="1040" type="qcurve" smooth="yes"/>
      <point x="464" y="850"/>
      <point x="272" y="850" type="qcurve" smooth="yes"/>
      <point x="82" y="850"/>
      <point x="82" y="1040" type="qcurve" smooth="yes"/>
      <point x="82" y="1300"/>
      <point x="387" y="1300" type="qcurve" smooth="yes"/>
      <point x="742" y="1300"/>
      <point x="742" y="920" type="qcurve" smooth="yes"/>
      <point x="742" y="0" type="line" smooth="yes"/>
      <point x="742" y="-190"/>
      <point x="549" y="-400"/>
    </contour>
  </outline>
</glyph>
<glyph name="uni0E88" format="1">
  <advance width="1250"/>
  <unicode hex="0E88"/>
  <outline>
    <contour>
      <point x="584" y="591" type="line" smooth="yes"/>
      <point x="659" y="592"/>
      <point x="659" y="661" type="qcurve" smooth="yes"/>
      <point x="659" y="728"/>
      <point x="587" y="728" type="qcurve" smooth="yes"/>
      <point x="513" y="728"/>
      <point x="510" y="660" type="qcurve" smooth="yes"/>
      <point x="510" y="655" type="line" smooth="yes"/>
      <point x="510" y="591"/>
      <point x="582" y="591" type="qcurve" smooth="yes"/>
    </contour>
    <contour>
      <point x="799" y="0" type="qcurve" smooth="yes"/>
      <point x="623" y="0"/>
      <point x="581" y="105" type="qcurve" smooth="yes"/>
      <point x="561" y="151"/>
      <point x="561" y="228" type="qcurve" smooth="yes"/>
      <point x="561" y="323"/>
      <point x="588" y="378" type="qcurve" smooth="yes"/>
      <point x="639" y="481"/>
      <point x="639" y="486" type="qcurve"/>
      <point x="618" y="467"/>
      <point x="554" y="467" type="qcurve" smooth="yes"/>
      <point x="548" y="467" type="line"/>
      <point x="467" y="479"/>
      <point x="425" y="526" type="qcurve" smooth="yes"/>
      <point x="382" y="573"/>
      <point x="379" y="657" type="qcurve" smooth="yes"/>
      <point x="379" y="667" type="line" smooth="yes"/>
      <point x="379" y="743"/>
      <point x="422" y="790" type="qcurve" smooth="yes"/>
      <point x="468" y="838"/>
      <point x="561" y="854" type="qcurve"/>
      <point x="566" y="854" type="line" smooth="yes"/>
      <point x="664" y="854"/>
      <point x="720" y="815" type="qcurve" smooth="yes"/>
      <point x="771" y="779"/>
      <point x="784" y="710" type="qcurve" smooth="yes"/>
      <point x="794" y="659"/>
      <point x="794" y="612" type="qcurve" smooth="yes"/>
      <point x="794" y="536"/>
      <point x="767" y="473" type="qcurve" smooth="yes"/>
      <point x="723" y="370"/>
      <point x="723" y="241" type="qcurve" smooth="yes"/>
      <point x="723" y="110"/>
      <point x="799" y="110" type="qcurve" smooth="yes"/>
      <point x="894" y="110"/>
      <point x="894" y="205" type="qcurve" smooth="yes"/>
      <point x="894" y="902" type="line" smooth="yes"/>
      <point x="894" y="1009"/>
      <point x="741" y="1176"/>
      <point x="547" y="1176" type="qcurve" smooth="yes"/>
      <point x="428" y="1176"/>
      <point x="200" y="1100"/>
      <point x="82" y="863" type="qcurve"/>
      <point x="82" y="1126"/>
      <point x="206" y="1213" type="qcurve" smooth="yes"/>
      <point x="331" y="1300"/>
      <point x="542" y="1300" type="qcurve" smooth="yes"/>
      <point x="833" y="1300"/>
      <point x="1082" y="1075"/>
      <point x="1082" y="902" type="qcurve" smooth="yes"/>
      <point x="1082" y="201" type="line" smooth="yes"/>
      <point x="1082" y="108"/>
      <point x="1028" y="58" type="qcurve" smooth="yes"/>
      <point x="965" y="0"/>
    </contour>
  </outline>
</glyph>
<glyph name="uni0E8A" format="1">
  <advance width="1354"/>
  <unicode hex="0E8A"/>
  <outline>
    <contour>
      <point x="350" y="860" type="qcurve" smooth="yes"/>
      <point x="350" y="842"/>
      <point x="367" y="810"/>
      <point x="399" y="793"/>
      <point x="417" y="793" type="qcurve" smooth="yes"/>
      <point x="435" y="793"/>
      <point x="467" y="810"/>
      <point x="485" y="842"/>
      <point x="485" y="860" type="qcurve" smooth="yes"/>
      <point x="485" y="878"/>
      <point x="466" y="910"/>
      <point x="434" y="928"/>
      <point x="417" y="928" type="qcurve" smooth="yes"/>
      <point x="400" y="928"/>
      <point x="368" y="910"/>
      <point x="350" y="878"/>
    </contour>
    <contour>
      <point x="1019" y="921" type="qcurve" smooth="yes"/>
      <point x="1019" y="1064"/>
      <point x="863" y="1190"/>
      <point x="677" y="1190" type="qcurve" smooth="yes"/>
      <point x="291" y="1190"/>
      <point x="291" y="961" type="qcurve" smooth="yes"/>
      <point x="291" y="960" type="line"/>
      <point x="310" y="984"/>
      <point x="338" y="1000" type="qcurve" smooth="yes"/>
      <point x="376" y="1020"/>
      <point x="417" y="1020" type="qcurve" smooth="yes"/>
      <point x="457" y="1020"/>
      <point x="534" y="979"/>
      <point x="577" y="902"/>
      <point x="577" y="860" type="qcurve" smooth="yes"/>
      <point x="577" y="818"/>
      <point x="535" y="742"/>
      <point x="459" y="700"/>
      <point x="417" y="700" type="qcurve" smooth="yes"/>
      <point x="147" y="700"/>
      <point x="147" y="961" type="qcurve" smooth="yes"/>
      <point x="147" y="1300"/>
      <point x="677" y="1300" type="qcurve" smooth="yes"/>
      <point x="957" y="1300"/>
      <point x="1207" y="1136"/>
      <point x="1207" y="921" type="qcurve" smooth="yes"/>
      <point x="1207" y="750"/>
      <point x="912" y="572"/>
      <point x="677" y="514" type="qcurve" smooth="yes"/>
      <point x="506" y="470" type="line" smooth="yes"/>
      <point x="335" y="425"/>
      <point x="335" y="230" type="qcurve" smooth="yes"/>
      <point x="335" y="110"/>
      <point x="409" y="110" type="qcurve" smooth="yes"/>
      <point x="483" y="110"/>
      <point x="838" y="305"/>
      <point x="945" y="305" type="qcurve" smooth="yes"/>
      <point x="1070" y="305"/>
      <point x="1133" y="243" type="qcurve" smooth="yes"/>
      <point x="1197" y="179"/>
      <point x="1197" y="-60" type="qcurve" smooth="yes"/>
      <point x="1197" y="-270"/>
      <point x="1300" y="-390" type="qcurve"/>
      <point x="1009" y="-300"/>
      <point x="1009" y="-60" type="qcurve" smooth="yes"/>
      <point x="1009" y="161"/>
      <point x="945" y="161" type="qcurve" smooth="yes"/>
      <point x="841" y="161"/>
      <point x="533" y="0"/>
      <point x="409" y="0" type="qcurve" smooth="yes"/>
      <point x="293" y="0"/>
      <point x="147" y="115"/>
      <point x="147" y="230" type="qcurve" smooth="yes"/>
      <point x="147" y="495"/>
      <point x="396" y="558" type="qcurve" smooth="yes"/>
      <point x="644" y="622" type="line" smooth="yes"/>
      <point x="802" y="662"/>
      <point x="1019" y="802"/>
    </contour>
  </outline>
</glyph>
<glyph name="uni0E8D" format="1">
  <advance width="1365"/>
  <unicode hex="0E8D"/>
  <outline>
    <contour>
      <point x="457" y="1184" type="qcurve" smooth="yes"/>
      <point x="426" y="1184"/>
      <point x="408" y="1172" type="qcurve" smooth="yes"/>
      <point x="381" y="1154"/>
      <point x="381" y="1109" type="qcurve" smooth="yes"/>
      <point x="381" y="1033"/>
      <point x="457" y="1033" type="qcurve" smooth="yes"/>
      <point x="496" y="1033"/>
      <point x="515" y="1054" type="qcurve" smooth="yes"/>
      <point x="532" y="1073"/>
      <point x="532" y="1109" type="qcurve" smooth="yes"/>
      <point x="532" y="1150"/>
      <point x="510" y="1169" type="qcurve" smooth="yes"/>
      <point x="491" y="1184"/>
    </contour>
    <contour>
      <point x="1197" y="380" type="line" smooth="yes"/>
      <point x="1197" y="187"/>
      <point x="1067" y="92" type="qcurve" smooth="yes"/>
      <point x="943" y="0"/>
      <point x="668" y="0" type="qcurve" smooth="yes"/>
      <point x="392" y="0"/>
      <point x="267" y="83" type="qcurve" smooth="yes"/>
      <point x="147" y="163"/>
      <point x="147" y="350" type="qcurve" smooth="yes"/>
      <point x="147" y="574"/>
      <point x="310" y="640" type="qcurve"/>
      <point x="147" y="713"/>
      <point x="147" y="870" type="qcurve" smooth="yes"/>
      <point x="147" y="1005" type="line" smooth="yes"/>
      <point x="147" y="1177"/>
      <point x="252" y="1248" type="qcurve" smooth="yes"/>
      <point x="327" y="1300"/>
      <point x="457" y="1300" type="qcurve" smooth="yes"/>
      <point x="552" y="1300"/>
      <point x="599" y="1253" type="qcurve" smooth="yes"/>
      <point x="647" y="1205"/>
      <point x="647" y="1110" type="qcurve" smooth="yes"/>
      <point x="647" y="1014"/>
      <point x="600" y="966" type="qcurve" smooth="yes"/>
      <point x="552" y="918"/>
      <point x="457" y="918" type="qcurve" smooth="yes"/>
      <point x="381" y="918"/>
      <point x="335" y="948" type="qcurve"/>
      <point x="335" y="870" type="line" smooth="yes"/>
      <point x="335" y="704"/>
      <point x="547" y="704" type="qcurve" smooth="yes"/>
      <point x="627" y="704" type="line"/>
      <point x="627" y="570" type="line"/>
      <point x="547" y="570" type="line" smooth="yes"/>
      <point x="335" y="570"/>
      <point x="335" y="350" type="qcurve" smooth="yes"/>
      <point x="335" y="229"/>
      <point x="488" y="110"/>
      <point x="668" y="110" type="qcurve" smooth="yes"/>
      <point x="848" y="110"/>
      <point x="1009" y="253"/>
      <point x="1009" y="380" type="qcurve" smooth="yes"/>
      <point x="1009" y="1100" type="line" smooth="yes"/>
      <point x="1009" y="1195"/>
      <point x="1059" y="1300" type="qcurve"/>
      <point x="1247" y="1300" type="line"/>
      <point x="1197" y="1225"/>
      <point x="1197" y="1100" type="qcurve" smooth="yes"/>
    </contour>
  </outline>
</glyph>
<glyph name="uni0E94" format="1">
  <advance width="1386"/>
  <unicode hex="0E94"/>
  <outline>
    <contour>
      <point x="531" y="131" type="qcurve" smooth="yes"/>
      <point x="553" y="150"/>
      <point x="553" y="191" type="qcurve" smooth="yes"/>
      <point x="553" y="227"/>
      <point x="536" y="246" type="qcurve" smooth="yes"/>
      <point x="517" y="267"/>
      <point x="478" y="267" type="qcurve" smooth="yes"/>
      <point x="402" y="267"/>
      <point x="402" y="191" type="qcurve" smooth="yes"/>
      <point x="402" y="146"/>
      <point x="429" y="128" type="qcurve" smooth="yes"/>
      <point x="447" y="116"/>
      <point x="478" y="116" type="qcurve" smooth="yes"/>
      <point x="512" y="116"/>
    </contour>
    <contour>
      <point x="1030" y="920" type="line" smooth="yes"/>
      <point x="1030" y="1047"/>
      <point x="869" y="1190"/>
      <point x="689" y="1190" type="qcurve" smooth="yes"/>
      <point x="509" y="1190"/>
      <point x="356" y="1047"/>
      <point x="356" y="920" type="qcurve" smooth="yes"/>
      <point x="356" y="352" type="line"/>
      <point x="402" y="382"/>
      <point x="478" y="382" type="qcurve" smooth="yes"/>
      <point x="573" y="382"/>
      <point x="621" y="334" type="qcurve" smooth="yes"/>
      <point x="668" y="286"/>
      <point x="668" y="190" type="qcurve" smooth="yes"/>
      <point x="668" y="95"/>
      <point x="620" y="47" type="qcurve" smooth="yes"/>
      <point x="573" y="0"/>
      <point x="478" y="0" type="qcurve" smooth="yes"/>
      <point x="348" y="0"/>
      <point x="273" y="52" type="qcurve" smooth="yes"/>
      <point x="168" y="123"/>
      <point x="168" y="295" type="qcurve" smooth="yes"/>
      <point x="168" y="920" type="line" smooth="yes"/>
      <point x="168" y="1113"/>
      <point x="413" y="1300"/>
      <point x="689" y="1300" type="qcurve" smooth="yes"/>
      <point x="964" y="1300"/>
      <point x="1218" y="1113"/>
      <point x="1218" y="920" type="qcurve" smooth="yes"/>
      <point x="1218" y="200" type="line" smooth="yes"/>
      <point x="1218" y="105"/>
      <point x="1168" y="0" type="qcurve"/>
      <point x="980" y="0" type="line"/>
      <point x="1030" y="75"/>
      <point x="1030" y="200" type="qcurve" smooth="yes"/>
    </contour>
  </outline>
</glyph>
<glyph name="uni0E95" format="1">
  <advance width="1386"/>
  <unicode hex="0E95"/>
  <outline>
    <contour>
      <point x="531" y="131" type="qcurve" smooth="yes"/>
      <point x="553" y="150"/>
      <point x="553" y="191" type="qcurve" smooth="yes"/>
      <point x="553" y="227"/>
      <point x="536" y="246" type="qcurve" smooth="yes"/>
      <point x="517" y="267"/>
      <point x="478" y="267" type="qcurve" smooth="yes"/>
      <point x="402" y="267"/>
      <point x="402" y="191" type="qcurve" smooth="yes"/>
      <point x="402" y="146"/>
      <point x="429" y="128" type="qcurve" smooth="yes"/>
      <point x="447" y="116"/>
      <point x="478" y="116" type="qcurve" smooth="yes"/>
      <point x="512" y="116"/>
    </contour>
    <contour>
      <point x="356" y="352" type="line"/>
      <point x="402" y="382"/>
      <point x="478" y="382" type="qcurve" smooth="yes"/>
      <point x="573" y="382"/>
      <point x="621" y="334" type="qcurve" smooth="yes"/>
      <point x="668" y="286"/>
      <point x="668" y="190" type="qcurve" smooth="yes"/>
      <point x="668" y="95"/>
      <point x="620" y="47" type="qcurve" smooth="yes"/>
      <point x="573" y="0"/>
      <point x="478" y="0" type="qcurve" smooth="yes"/>
      <point x="348" y="0"/>
      <point x="273" y="52" type="qcurve" smooth="yes"/>
      <point x="168" y="123"/>
      <point x="168" y="295" type="qcurve" smooth="yes"/>
      <point x="168" y="920" type="line" smooth="yes"/>
      <point x="168" y="1135"/>
      <point x="263" y="1228" type="qcurve" smooth="yes"/>
      <point x="335" y="1300"/>
      <point x="464" y="1300" type="qcurve" smooth="yes"/>
      <point x="597" y="1300"/>
      <point x="693" y="1127" type="qcurve"/>
      <point x="789" y="1300"/>
      <point x="922" y="1300" type="qcurve" smooth="yes"/>
      <point x="1052" y="1300"/>
      <point x="1126" y="1226" type="qcurve" smooth="yes"/>
      <point x="1218" y="1132"/>
      <point x="1218" y="920" type="qcurve" smooth="yes"/>
      <point x="1218" y="200" type="line" smooth="yes"/>
      <point x="1218" y="105"/>
      <point x="1168" y="0" type="qcurve"/>
      <point x="980" y="0" type="line"/>
      <point x="1030" y="75"/>
      <point x="1030" y="200" type="qcurve" smooth="yes"/>
      <point x="1030" y="920" type="line" smooth="yes"/>
      <point x="1030" y="1066"/>
      <point x="960" y="1186"/>
      <point x="922" y="1186" type="qcurve" smooth="yes"/>
      <point x="852" y="1186"/>
      <point x="693" y="973" type="qcurve"/>
      <point x="534" y="1186"/>
      <point x="464" y="1186" type="qcurve" smooth="yes"/>
      <point x="426" y="1186"/>
      <point x="356" y="1066"/>
      <point x="356" y="920" type="qcurve" smooth="yes"/>
    </contour>
  </outline>
</glyph>
<glyph name="uni0E99" format="1">
  <advance width="1446"/>
  <unicode hex="0E99"/>
  <outline>
    <contour>
      <point x="273" y="1033" type="qcurve" smooth="yes"/>
      <point x="349" y="1033"/>
      <point x="349" y="1109" type="qcurve" smooth="yes"/>
      <point x="349" y="1184"/>
      <point x="273" y="1184" type="qcurve" smooth="yes"/>
      <point x="198" y="1184"/>
      <point x="198" y="1109" type="qcurve" smooth="yes"/>
      <point x="198" y="1033"/>
    </contour>
    <contour>
      <point x="340" y="925" type="line"/>
      <point x="310" y="918"/>
      <point x="273" y="918" type="qcurve" smooth="yes"/>
      <point x="172" y="918"/>
      <point x="124" y="972" type="qcurve" smooth="yes"/>
      <point x="82" y="1019"/>
      <point x="82" y="1109" type="qcurve" smooth="yes"/>
      <point x="82" y="1198"/>
      <point x="124" y="1246" type="qcurve" smooth="yes"/>
      <point x="171" y="1300"/>
      <point x="273" y="1300" type="qcurve" smooth="yes"/>
      <point x="394" y="1300"/>
      <point x="457" y="1242" type="qcurve" smooth="yes"/>
      <point x="528" y="1177"/>
      <point x="528" y="1040" type="qcurve" smooth="yes"/>
      <point x="528" y="390" type="line" smooth="yes"/>
      <point x="528" y="307"/>
      <point x="519" y="252" type="qcurve"/>
      <point x="577" y="247"/>
      <point x="634" y="190" type="qcurve"/>
      <point x="691" y="110"/>
      <point x="849" y="110" type="qcurve" smooth="yes"/>
      <point x="968" y="110"/>
      <point x="1090" y="256"/>
      <point x="1090" y="360" type="qcurve" smooth="yes"/>
      <point x="1090" y="1100" type="line" smooth="yes"/>
      <point x="1090" y="1225"/>
      <point x="1040" y="1300" type="qcurve"/>
      <point x="1228" y="1300" type="line"/>
      <point x="1278" y="1195"/>
      <point x="1278" y="1100" type="qcurve" smooth="yes"/>
      <point x="1278" y="360" type="line" smooth="yes"/>
      <point x="1278" y="183"/>
      <point x="1071" y="0"/>
      <point x="869" y="0" type="qcurve" smooth="yes"/>
      <point x="648" y="0"/>
      <point x="550" y="106" type="qcurve" smooth="yes"/>
      <point x="517" y="141"/>
      <point x="479" y="144" type="qcurve"/>
      <point x="391" y="0"/>
      <point x="147" y="0" type="qcurve"/>
      <point x="147" y="144" type="line"/>
      <point x="244" y="144"/>
      <point x="340" y="247"/>
      <point x="340" y="390" type="qcurve" smooth="yes"/>
    </contour>
  </outline>
</glyph>
<glyph name="uni0E9B" format="1">
  <advance width="1365"/>
  <unicode hex="0E9B"/>
  <outline>
    <contour>
      <point x="310" y="1053" type="qcurve" smooth="yes"/>
      <point x="371" y="1053"/>
      <point x="371" y="1117" type="qcurve" smooth="yes"/>
      <point x="371" y="1180"/>
      <point x="310" y="1180" type="qcurve" smooth="yes"/>
      <point x="249" y="1180"/>
      <point x="249" y="1117" type="qcurve" smooth="yes"/>
      <point x="249" y="1053"/>
    </contour>
    <contour>
      <point x="1197" y="430" type="line" smooth="yes"/>
      <point x="1197" y="190"/>
      <point x="1072" y="95" type="qcurve" smooth="yes"/>
      <point x="947" y="0"/>
      <point x="671" y="0" type="qcurve" smooth="yes"/>
      <point x="395" y="0"/>
      <point x="270" y="92" type="qcurve" smooth="yes"/>
      <point x="147" y="183"/>
      <point x="147" y="413" type="qcurve" smooth="yes"/>
      <point x="147" y="691"/>
      <point x="259" y="846" type="qcurve" smooth="yes"/>
      <point x="297" y="898"/>
      <point x="322" y="945" type="qcurve"/>
      <point x="230" y="946"/>
      <point x="186" y="994" type="qcurve" smooth="yes"/>
      <point x="147" y="1037"/>
      <point x="147" y="1117" type="qcurve" smooth="yes"/>
      <point x="147" y="1206"/>
      <point x="189" y="1251" type="qcurve" smooth="yes"/>
      <point x="233" y="1300"/>
      <point x="325" y="1300" type="qcurve" smooth="yes"/>
      <point x="426" y="1300"/>
      <point x="476" y="1252" type="qcurve" smooth="yes"/>
      <point x="523" y="1206"/>
      <point x="523" y="1117" type="qcurve" smooth="yes"/>
      <point x="523" y="970"/>
      <point x="335" y="647"/>
      <point x="335" y="413" type="qcurve" smooth="yes"/>
      <point x="335" y="223"/>
      <point x="491" y="110"/>
      <point x="672" y="110" type="qcurve" smooth="yes"/>
      <point x="852" y="110"/>
      <point x="1009" y="232"/>
      <point x="1009" y="430" type="qcurve" smooth="yes"/>
      <point x="1009" y="1270" type="line" smooth="yes"/>
      <point x="1009" y="1355"/>
      <point x="1116" y="1575"/>
      <point x="1280" y="1635" type="qcurve"/>
      <point x="1197" y="1485"/>
      <point x="1197" y="1270" type="qcurve" smooth="yes"/>
    </contour>
  </outline>
</glyph>
<glyph name="uni0E9D" format="1">
  <advance width="1376"/>
  <unicode hex="0E9D"/>
  <outline>
    <contour>
      <point x="494" y="1130" type="qcurve" smooth="yes"/>
      <point x="494" y="1194"/>
      <point x="430" y="1194" type="qcurve" smooth="yes"/>
      <point x="365" y="1194"/>
      <point x="365" y="1130" type="qcurve" smooth="yes"/>
      <point x="365" y="1067"/>
      <point x="430" y="1067" type="qcurve" smooth="yes"/>
      <point x="494" y="1067"/>
    </contour>
    <contour>
      <point x="1208" y="380" type="line" smooth="yes"/>
      <point x="1208" y="165"/>
      <point x="1116" y="71" type="qcurve" smooth="yes"/>
      <point x="1046" y="0"/>
      <point x="912" y="0" type="qcurve" smooth="yes"/>
      <point x="759" y="0"/>
      <point x="688" y="117" type="qcurve"/>
      <point x="617" y="0"/>
      <point x="464" y="0" type="qcurve" smooth="yes"/>
      <point x="331" y="0"/>
      <point x="261" y="70" type="qcurve" smooth="yes"/>
      <point x="168" y="163"/>
      <point x="168" y="380" type="qcurve" smooth="yes"/>
      <point x="168" y="1037" type="line" smooth="yes"/>
      <point x="168" y="1190"/>
      <point x="257" y="1254" type="qcurve" smooth="yes"/>
      <point x="320" y="1300"/>
      <point x="420" y="1300" type="qcurve" smooth="yes"/>
      <point x="500" y="1300"/>
      <point x="590" y="1205"/>
      <point x="590" y="1131" type="qcurve" smooth="yes"/>
      <point x="590" y="1045"/>
      <point x="550" y="1002" type="qcurve" smooth="yes"/>
      <point x="510" y="960"/>
      <point x="430" y="960" type="qcurve" smooth="yes"/>
      <point x="387" y="960"/>
      <point x="356" y="971" type="qcurve"/>
      <point x="356" y="380" type="line" smooth="yes"/>
      <point x="356" y="227"/>
      <point x="410" y="110"/>
      <point x="464" y="110" type="qcurve" smooth="yes"/>
      <point x="619" y="110"/>
      <point x="676" y="400" type="qcurve"/>
      <point x="700" y="400" type="line"/>
      <point x="757" y="110"/>
      <point x="912" y="110" type="qcurve" smooth="yes"/>
      <point x="968" y="110"/>
      <point x="1020" y="232"/>
      <point x="1020" y="380" type="qcurve" smooth="yes"/>
      <point x="1020" y="1270" type="line" smooth="yes"/>
      <point x="1020" y="1355"/>
      <point x="1127" y="1575"/>
      <point x="1291" y="1635" type="qcurve"/>
      <point x="1208" y="1485"/>
      <point x="1208" y="1270" type="qcurve" smooth="yes"/>
    </contour>
  </outline>
</glyph>
<glyph name="uni0E9F" format="1">
  <advance width="1589"/>
  <unicode hex="0E9F"/>
  <outline>
    <contour>
      <point x="310" y="1053" type="qcurve" smooth="yes"/>
      <point x="371" y="1053"/>
      <point x="371" y="1117" type="qcurve" smooth="yes"/>
      <point x="371" y="1180"/>
      <point x="310" y="1180" type="qcurve" smooth="yes"/>
      <point x="249" y="1180"/>
      <point x="249" y="1117" type="qcurve" smooth="yes"/>
      <point x="249" y="1053"/>
    </contour>
    <contour>
      <point x="1421" y="373" type="line" smooth="yes"/>
      <point x="1421" y="169"/>
      <point x="1322" y="79" type="qcurve" smooth="yes"/>
      <point x="1236" y="0"/>
      <point x="1055" y="0" type="qcurve" smooth="yes"/>
      <point x="870" y="0"/>
      <point x="784" y="110" type="qcurve"/>
      <point x="698" y="0"/>
      <point x="513" y="0" type="qcurve" smooth="yes"/>
      <point x="333" y="0"/>
      <point x="247" y="78" type="qcurve" smooth="yes"/>
      <point x="147" y="168"/>
      <point x="147" y="373" type="qcurve" smooth="yes"/>
      <point x="147" y="691"/>
      <point x="259" y="846" type="qcurve" smooth="yes"/>
      <point x="297" y="898"/>
      <point x="322" y="945" type="qcurve"/>
      <point x="226" y="946"/>
      <point x="183" y="998" type="qcurve" smooth="yes"/>
      <point x="147" y="1040"/>
      <point x="147" y="1117" type="qcurve" smooth="yes"/>
      <point x="147" y="1216"/>
      <point x="199" y="1261" type="qcurve" smooth="yes"/>
      <point x="243" y="1300"/>
      <point x="325" y="1300" type="qcurve" smooth="yes"/>
      <point x="422" y="1300"/>
      <point x="471" y="1256" type="qcurve" smooth="yes"/>
      <point x="523" y="1211"/>
      <point x="523" y="1117" type="qcurve" smooth="yes"/>
      <point x="523" y="970"/>
      <point x="335" y="647"/>
      <point x="335" y="373" type="qcurve" smooth="yes"/>
      <point x="335" y="220"/>
      <point x="424" y="110"/>
      <point x="513" y="110" type="qcurve" smooth="yes"/>
      <point x="690" y="110"/>
      <point x="690" y="360" type="qcurve" smooth="yes"/>
      <point x="690" y="1100" type="line" smooth="yes"/>
      <point x="690" y="1195"/>
      <point x="740" y="1300" type="qcurve"/>
      <point x="928" y="1300" type="line"/>
      <point x="878" y="1225"/>
      <point x="878" y="1100" type="qcurve" smooth="yes"/>
      <point x="878" y="360" type="line" smooth="yes"/>
      <point x="878" y="110"/>
      <point x="1056" y="110" type="qcurve" smooth="yes"/>
      <point x="1146" y="110"/>
      <point x="1233" y="222"/>
      <point x="1233" y="373" type="qcurve" smooth="yes"/>
      <point x="1233" y="1270" type="line" smooth="yes"/>
      <point x="1233" y="1355"/>
      <point x="1340" y="1575"/>
      <point x="1504" y="1635" type="qcurve"/>
      <point x="1421" y="1485"/>
      <point x="1421" y="1270" type="qcurve" smooth="yes"/>
    </contour>
  </outline>
</glyph>
<glyph name="uni0EA1" format="1">
  <advance width="1571"/>
  <unicode hex="0EA1"/>
  <outline>
    <contour>
      <point x="243" y="158" type="qcurve" smooth="yes"/>
      <point x="305" y="158"/>
      <point x="305" y="220" type="qcurve" smooth="yes"/>
      <point x="305" y="281"/>
      <point x="243" y="281" type="qcurve" smooth="yes"/>
      <point x="182" y="281"/>
      <point x="182" y="220" type="qcurve" smooth="yes"/>
      <point x="182" y="158"/>
    </contour>
    <contour>
      <point x="653" y="380" type="line" smooth="yes"/>
      <point x="653" y="207"/>
      <point x="799" y="110"/>
      <point x="939" y="110" type="qcurve" smooth="yes"/>
      <point x="1079" y="110"/>
      <point x="1215" y="257"/>
      <point x="1215" y="380" type="qcurve" smooth="yes"/>
      <point x="1215" y="1100" type="line" smooth="yes"/>
      <point x="1215" y="1225"/>
      <point x="1165" y="1300" type="qcurve"/>
      <point x="1353" y="1300" type="line"/>
      <point x="1403" y="1195"/>
      <point x="1403" y="1100" type="qcurve" smooth="yes"/>
      <point x="1403" y="380" type="line" smooth="yes"/>
      <point x="1403" y="190"/>
      <point x="1173" y="0"/>
      <point x="944" y="0" type="qcurve" smooth="yes"/>
      <point x="715" y="0"/>
      <point x="590" y="95" type="qcurve"/>
      <point x="589" y="96" type="line"/>
      <point x="511" y="0"/>
      <point x="340" y="0" type="qcurve" smooth="yes"/>
      <point x="82" y="0"/>
      <point x="82" y="220" type="qcurve" smooth="yes"/>
      <point x="82" y="382"/>
      <point x="243" y="382" type="qcurve" smooth="yes"/>
      <point x="405" y="382"/>
      <point x="405" y="220" type="qcurve" smooth="yes"/>
      <point x="405" y="155"/>
      <point x="362" y="116" type="qcurve"/>
      <point x="465" y="138"/>
      <point x="465" y="322" type="qcurve" smooth="yes"/>
      <point x="465" y="1100" type="line" smooth="yes"/>
      <point x="465" y="1225"/>
      <point x="415" y="1300" type="qcurve"/>
      <point x="603" y="1300" type="line"/>
      <point x="653" y="1195"/>
      <point x="653" y="1100" type="qcurve" smooth="yes"/>
    </contour>
  </outline>
</glyph>
<glyph name="uni0EA7" format="1">
  <advance width="1315"/>
  <unicode hex="0EA7"/>
  <outline>
    <contour>
      <point x="263" y="380" type="qcurve" smooth="yes"/>
      <point x="263" y="360"/>
      <point x="282" y="324"/>
      <point x="318" y="305"/>
      <point x="338" y="305" type="qcurve" smooth="yes"/>
      <point x="358" y="305"/>
      <point x="394" y="324"/>
      <point x="414" y="360"/>
      <point x="414" y="380" type="qcurve" smooth="yes"/>
      <point x="414" y="400"/>
      <point x="393" y="436"/>
      <point x="357" y="456"/>
      <point x="338" y="456" type="qcurve" smooth="yes"/>
      <point x="319" y="456"/>
      <point x="283" y="436"/>
      <point x="263" y="400"/>
    </contour>
    <contour>
      <point x="1147" y="380" type="line" smooth="yes"/>
      <point x="1147" y="190"/>
      <point x="897" y="0"/>
      <point x="647" y="0" type="qcurve" smooth="yes"/>
      <point x="397" y="0"/>
      <point x="147" y="190"/>
      <point x="147" y="380" type="qcurve" smooth="yes"/>
      <point x="147" y="430"/>
      <point x="198" y="522"/>
      <point x="290" y="571"/>
      <point x="338" y="571" type="qcurve" smooth="yes"/>
      <point x="386" y="571"/>
      <point x="477" y="522"/>
      <point x="529" y="430"/>
      <point x="529" y="380" type="qcurve" smooth="yes"/>
      <point x="529" y="330"/>
      <point x="479" y="239"/>
      <point x="434" y="214" type="qcurve" smooth="yes"/>
      <point x="408" y="200"/>
      <point x="380" y="194" type="qcurve"/>
      <point x="482" y="110"/>
      <point x="647" y="110" type="qcurve" smooth="yes"/>
      <point x="803" y="110"/>
      <point x="959" y="257"/>
      <point x="959" y="380" type="qcurve" smooth="yes"/>
      <point x="959" y="902" type="line" smooth="yes"/>
      <point x="959" y="1009"/>
      <point x="806" y="1176"/>
      <point x="612" y="1176" type="qcurve" smooth="yes"/>
      <point x="493" y="1176"/>
      <point x="265" y="1100"/>
      <point x="147" y="863" type="qcurve"/>
      <point x="147" y="1126"/>
      <point x="271" y="1213" type="qcurve" smooth="yes"/>
      <point x="396" y="1300"/>
      <point x="607" y="1300" type="qcurve" smooth="yes"/>
      <point x="898" y="1300"/>
      <point x="1147" y="1075"/>
      <point x="1147" y="902" type="qcurve" smooth="yes"/>
    </contour>
  </outline>
</glyph>
<glyph name="uni0EAA" format="1">
  <advance width="1315"/>
  <unicode hex="0EAA"/>
  <outline>
    <contour>
      <point x="902" y="1058" type="qcurve"/>
      <point x="879" y="1079"/>
      <point x="848" y="1098" type="qcurve" smooth="yes"/>
      <point x="716" y="1196"/>
      <point x="570" y="1196" type="qcurve" smooth="yes"/>
      <point x="463" y="1196"/>
      <point x="335" y="1119"/>
      <point x="335" y="1036" type="qcurve" smooth="yes"/>
      <point x="335" y="953"/>
      <point x="463" y="906"/>
      <point x="570" y="906" type="qcurve" smooth="yes"/>
      <point x="716" y="906"/>
      <point x="868" y="1030" type="qcurve" smooth="yes"/>
      <point x="886" y="1042"/>
    </contour>
    <contour>
      <point x="415" y="84" type="qcurve" smooth="yes"/>
      <point x="485" y="84"/>
      <point x="485" y="154" type="qcurve" smooth="yes"/>
      <point x="485" y="224"/>
      <point x="415" y="224" type="qcurve" smooth="yes"/>
      <point x="345" y="224"/>
      <point x="345" y="154" type="qcurve" smooth="yes"/>
      <point x="345" y="84"/>
    </contour>
    <contour>
      <point x="959" y="905" type="line"/>
      <point x="813" y="802"/>
      <point x="570" y="802" type="qcurve" smooth="yes"/>
      <point x="366" y="802"/>
      <point x="147" y="906"/>
      <point x="147" y="1036" type="qcurve" smooth="yes"/>
      <point x="147" y="1166"/>
      <point x="366" y="1300"/>
      <point x="570" y="1300" type="qcurve" smooth="yes"/>
      <point x="829" y="1300"/>
      <point x="981" y="1210" type="qcurve"/>
      <point x="996" y="1271"/>
      <point x="1000" y="1350" type="qcurve"/>
      <point x="1147" y="1320" type="line"/>
      <point x="1133" y="1195"/>
      <point x="1100" y="1103" type="qcurve"/>
      <point x="1147" y="1036"/>
      <point x="1147" y="952" type="qcurve" smooth="yes"/>
      <point x="1147" y="220" type="line" smooth="yes"/>
      <point x="1147" y="106"/>
      <point x="1081" y="51" type="qcurve" smooth="yes"/>
      <point x="1020" y="0"/>
      <point x="903" y="0" type="qcurve" smooth="yes"/>
      <point x="844" y="0"/>
      <point x="721" y="79"/>
      <point x="691" y="273"/>
      <point x="577" y="490"/>
      <point x="455" y="490" type="qcurve" smooth="yes"/>
      <point x="336" y="490"/>
      <point x="308" y="281" type="qcurve"/>
      <point x="351" y="323"/>
      <point x="407" y="323" type="qcurve" smooth="yes"/>
      <point x="502" y="323"/>
      <point x="548" y="285" type="qcurve" smooth="yes"/>
      <point x="591" y="250"/>
      <point x="591" y="182" type="qcurve" smooth="yes"/>
      <point x="593" y="165"/>
      <point x="593" y="150" type="qcurve" smooth="yes"/>
      <point x="593" y="83"/>
      <point x="553" y="46" type="qcurve" smooth="yes"/>
      <point x="504" y="1"/>
      <point x="397" y="0" type="qcurve" smooth="yes"/>
      <point x="273" y="3"/>
      <point x="211" y="67" type="qcurve" smooth="yes"/>
      <point x="147" y="132"/>
      <point x="147" y="261" type="qcurve" smooth="yes"/>
      <point x="147" y="451"/>
      <point x="225" y="522" type="qcurve" smooth="yes"/>
      <point x="304" y="594"/>
      <point x="455" y="594" type="qcurve" smooth="yes"/>
      <point x="609" y="594"/>
      <point x="799" y="407"/>
      <point x="847" y="144"/>
      <point x="903" y="144" type="qcurve" smooth="yes"/>
      <point x="959" y="144"/>
      <point x="959" y="220" type="qcurve" smooth="yes"/>
    </contour>
  </outline>
</glyph>
<glyph name="uni0EAD" format="1">
  <advance width="1315"/>
  <unicode hex="0EAD"/>
  <outline>
    <contour>
      <point x="951" y="939" type="qcurve"/>
      <point x="934" y="1100"/>
      <point x="793" y="1196"/>
      <point x="647" y="1196" type="qcurve" smooth="yes"/>
      <point x="461" y="1196"/>
      <point x="335" y="1093"/>
      <point x="335" y="940" type="qcurve" smooth="yes"/>
      <point x="335" y="787"/>
      <point x="491" y="684"/>
      <point x="647" y="684" type="qcurve" smooth="yes"/>
      <point x="803" y="684"/>
      <point x="934" y="779"/>
    </contour>
    <contour>
      <point x="255" y="326" type="qcurve" smooth="yes"/>
      <point x="255" y="315"/>
      <point x="257" y="304" type="qcurve" smooth="yes"/>
      <point x="259" y="297"/>
      <point x="263" y="290" type="qcurve" smooth="yes"/>
      <point x="271" y="275"/>
      <point x="301" y="259"/>
      <point x="318" y="259" type="qcurve" smooth="yes"/>
      <point x="335" y="259"/>
      <point x="366" y="275"/>
      <point x="383" y="305"/>
      <point x="383" y="322" type="qcurve" smooth="yes"/>
      <point x="383" y="339"/>
      <point x="365" y="370"/>
      <point x="334" y="387"/>
      <point x="318" y="387" type="qcurve" smooth="yes"/>
      <point x="302" y="387"/>
      <point x="272" y="370"/>
      <point x="264" y="355" type="qcurve" smooth="yes"/>
      <point x="256" y="341"/>
    </contour>
    <contour>
      <point x="389" y="176" type="qcurve"/>
      <point x="484" y="110"/>
      <point x="647" y="110" type="qcurve" smooth="yes"/>
      <point x="959" y="110"/>
      <point x="959" y="380" type="qcurve" smooth="yes"/>
      <point x="959" y="637" type="line"/>
      <point x="840" y="580"/>
      <point x="647" y="580" type="qcurve" smooth="yes"/>
      <point x="397" y="580"/>
      <point x="147" y="770"/>
      <point x="147" y="940" type="qcurve" smooth="yes"/>
      <point x="147" y="1130"/>
      <point x="377" y="1300"/>
      <point x="647" y="1300" type="qcurve"/>
      <point x="877" y="1290"/>
      <point x="1147" y="1110"/>
      <point x="1147" y="870" type="qcurve" smooth="yes"/>
      <point x="1147" y="380" type="line" smooth="yes"/>
      <point x="1147" y="0"/>
      <point x="647" y="0" type="qcurve" smooth="yes"/>
      <point x="147" y="0"/>
      <point x="147" y="332" type="qcurve"/>
      <point x="148" y="332" type="line"/>
      <point x="151" y="369"/>
      <point x="171" y="402" type="qcurve" smooth="yes"/>
      <point x="193" y="440"/>
      <point x="274" y="483"/>
      <point x="317" y="483" type="qcurve" smooth="yes"/>
      <point x="360" y="483"/>
      <point x="442" y="440"/>
      <point x="490" y="364"/>
      <point x="490" y="321" type="qcurve" smooth="yes"/>
      <point x="490" y="279"/>
      <point x="444" y="203"/>
      <point x="404" y="183" type="qcurve" smooth="yes"/>
      <point x="396" y="179"/>
    </contour>
  </outline>
</glyph>
<glyph name="uni0EAF" format="1">
  <advance width="1334"/>
  <unicode hex="0EAF"/>
  <outline>
    <contour>
      <point x="435" y="1208" type="qcurve" smooth="yes"/>
      <point x="365" y="1208"/>
      <point x="365" y="1139" type="qcurve" smooth="yes"/>
      <point x="365" y="1070"/>
      <point x="435" y="1070" type="qcurve" smooth="yes"/>
      <point x="505" y="1070"/>
      <point x="505" y="1139" type="qcurve" smooth="yes"/>
      <point x="505" y="1208"/>
    </contour>
    <contour>
      <point x="540" y="870" type="qcurve" smooth="yes"/>
      <point x="651" y="870"/>
      <point x="936" y="1134"/>
      <point x="1023" y="1300" type="qcurve"/>
      <point x="1187" y="1218" type="line"/>
      <point x="511" y="-257" type="line"/>
      <point x="349" y="-189" type="line"/>
      <point x="854" y="881" type="line"/>
      <point x="701" y="717"/>
      <point x="540" y="717" type="qcurve" smooth="yes"/>
      <point x="147" y="717"/>
      <point x="147" y="1039" type="qcurve" smooth="yes"/>
      <point x="147" y="1294"/>
      <point x="397" y="1300" type="qcurve"/>
      <point x="598" y="1298"/>
      <point x="598" y="1144" type="qcurve" smooth="yes"/>
      <point x="598" y="1132"/>
      <point x="597" y="1118" type="qcurve" smooth="yes"/>
      <point x="597" y="977"/>
      <point x="405" y="977" type="qcurve" smooth="yes"/>
      <point x="359" y="977"/>
      <point x="323" y="1019" type="qcurve"/>
      <point x="335" y="870"/>
    </contour>
  </outline>
</glyph>
<glyph name="uni0EB0" format="1">
  <advance width="1182"/>
  <unicode hex="0EB0"/>
  <outline>
    <contour>
      <point x="260" y="366"/>
      <point x="243" y="335"/>
      <point x="243" y="318" type="qcurve" smooth="yes"/>
      <point x="243" y="301"/>
      <point x="259" y="270"/>
      <point x="290" y="254"/>
      <point x="307" y="254" type="qcurve" smooth="yes"/>
      <point x="324" y="254"/>
      <point x="355" y="270"/>
      <point x="373" y="301"/>
      <point x="373" y="318" type="qcurve" smooth="yes"/>
      <point x="373" y="335"/>
      <point x="354" y="366"/>
      <point x="323" y="384"/>
      <point x="307" y="384" type="qcurve" smooth="yes"/>
      <point x="291" y="384"/>
    </contour>
    <contour>
      <point x="402" y="188" type="qcurve"/>
      <point x="463" y="138"/>
      <point x="547" y="138" type="qcurve" smooth="yes"/>
      <point x="673" y="138"/>
      <point x="831" y="309"/>
      <point x="847" y="458" type="qcurve"/>
      <point x="1035" y="458" type="line"/>
      <point x="1008" y="237"/>
      <point x="872" y="134" type="qcurve" smooth="yes"/>
      <point x="752" y="44"/>
      <point x="547" y="44" type="qcurve" smooth="yes"/>
      <point x="377" y="44"/>
      <point x="262" y="113" type="qcurve" smooth="yes"/>
      <point x="147" y="181"/>
      <point x="147" y="318" type="qcurve" smooth="yes"/>
      <point x="147" y="360"/>
      <point x="190" y="437"/>
      <point x="266" y="478"/>
      <point x="307" y="478" type="qcurve" smooth="yes"/>
      <point x="347" y="478"/>
      <point x="424" y="437"/>
      <point x="467" y="360"/>
      <point x="467" y="318" type="qcurve" smooth="yes"/>
      <point x="467" y="276"/>
      <point x="446" y="238" type="qcurve" smooth="yes"/>
      <point x="429" y="208"/>
    </contour>
    <contour>
      <point x="260" y="1088"/>
      <point x="243" y="1057"/>
      <point x="243" y="1040" type="qcurve" smooth="yes"/>
      <point x="243" y="1023"/>
      <point x="259" y="992"/>
      <point x="290" y="976"/>
      <point x="307" y="976" type="qcurve" smooth="yes"/>
      <point x="324" y="976"/>
      <point x="355" y="992"/>
      <point x="373" y="1023"/>
      <point x="373" y="1040" type="qcurve" smooth="yes"/>
      <point x="373" y="1057"/>
      <point x="354" y="1088"/>
      <point x="323" y="1106"/>
      <point x="307" y="1106" type="qcurve" smooth="yes"/>
      <point x="291" y="1106"/>
    </contour>
    <contour>
      <point x="402" y="910" type="qcurve"/>
      <point x="463" y="860"/>
      <point x="547" y="860" type="qcurve" smooth="yes"/>
      <point x="673" y="860"/>
      <point x="831" y="1031"/>
      <point x="847" y="1180" type="qcurve"/>
      <point x="1035" y="1180" type="line"/>
      <point x="1008" y="959"/>
      <point x="872" y="856" type="qcurve" smooth="yes"/>
      <point x="752" y="766"/>
      <point x="547" y="766" type="qcurve" smooth="yes"/>
      <point x="377" y="766"/>
      <point x="262" y="835" type="qcurve" smooth="yes"/>
      <point x="147" y="903"/>
      <point x="147" y="1040" type="qcurve" smooth="yes"/>
      <point x="147" y="1082"/>
      <point x="190" y="1159"/>
      <point x="266" y="1200"/>
      <point x="307" y="1200" type="qcurve" smooth="yes"/>
      <point x="347" y="1200"/>
      <point x="424" y="1159"/>
      <point x="467" y="1082"/>
      <point x="467" y="1040" type="qcurve" smooth="yes"/>
      <point x="467" y="998"/>
      <point x="446" y="960" type="qcurve" smooth="yes"/>
      <point x="429" y="930"/>
    </contour>
  </outline>
</glyph>
<glyph name="uni0EB1" format="1">
  <advance width="0"/>
  <unicode hex="0EB1"/>
  <outline>
    <contour>
      <point x="-940" y="1629" type="qcurve" smooth="yes"/>
      <point x="-940" y="1664"/>
      <point x="-897" y="1728"/>
      <point x="-822" y="1763"/>
      <point x="-782" y="1763" type="qcurve" smooth="yes"/>
      <point x="-742" y="1763"/>
      <point x="-657" y="1728"/>
      <point x="-615" y="1664"/>
      <point x="-615" y="1629" type="qcurve" smooth="yes"/>
      <point x="-615" y="1594"/>
      <point x="-635" y="1572" type="qcurve" smooth="yes"/>
      <point x="-636" y="1570"/>
      <point x="-636" y="1569" type="qcurve" smooth="yes"/>
      <point x="-602" y="1526"/>
      <point x="-546" y="1526" type="qcurve" smooth="yes"/>
      <point x="-299" y="1526"/>
      <point x="-278" y="1754" type="qcurve"/>
      <point x="-101" y="1754" type="line"/>
      <point x="-184" y="1450"/>
      <point x="-546" y="1450" type="qcurve" smooth="yes"/>
      <point x="-940" y="1450"/>
    </contour>
    <contour>
      <point x="-829" y="1670"/>
      <point x="-847" y="1643"/>
      <point x="-847" y="1629" type="qcurve" smooth="yes"/>
      <point x="-847" y="1615"/>
      <point x="-829" y="1588"/>
      <point x="-798" y="1573"/>
      <point x="-782" y="1573" type="qcurve" smooth="yes"/>
      <point x="-764" y="1573"/>
      <point x="-733" y="1588"/>
      <point x="-716" y="1615"/>
      <point x="-716" y="1629" type="qcurve" smooth="yes"/>
      <point x="-716" y="1643"/>
      <point x="-733" y="1670"/>
      <point x="-764" y="1685"/>
      <point x="-782" y="1685" type="qcurve" smooth="yes"/>
      <point x="-798" y="1685"/>
    </contour>
  </outline>
</glyph>
<glyph name="uni0EB2" format="1">
  <advance width="960"/>
  <unicode hex="0EB2"/>
  <outline>
    <contour>
      <point x="198" y="1040" type="qcurve" smooth="yes"/>
      <point x="198" y="966"/>
      <point x="273" y="966" type="qcurve" smooth="yes"/>
      <point x="349" y="966"/>
      <point x="349" y="1041" type="qcurve" smooth="yes"/>
      <point x="349" y="1117"/>
      <point x="273" y="1117" type="qcurve" smooth="yes"/>
      <point x="198" y="1117"/>
    </contour>
    <contour>
      <point x="604" y="920" type="line" smooth="yes"/>
      <point x="604" y="1177"/>
      <point x="373" y="1203" type="qcurve"/>
      <point x="464" y="1157"/>
      <point x="464" y="1040" type="qcurve" smooth="yes"/>
      <point x="464" y="850"/>
      <point x="272" y="850" type="qcurve" smooth="yes"/>
      <point x="82" y="850"/>
      <point x="82" y="1040" type="qcurve" smooth="yes"/>
      <point x="82" y="1300"/>
      <point x="437" y="1300" type="qcurve" smooth="yes"/>
      <point x="792" y="1300"/>
      <point x="792" y="920" type="qcurve" smooth="yes"/>
      <point x="792" y="200" type="line" smooth="yes"/>
      <point x="792" y="105"/>
      <point x="742" y="0" type="qcurve"/>
      <point x="554" y="0" type="line"/>
      <point x="604" y="75"/>
      <point x="604" y="200" type="qcurve" smooth="yes"/>
    </contour>
  </outline>
</glyph>
<glyph name="uni0EB3" format="1">
  <advance width="960"/>
  <unicode hex="0EB3"/>
  <outline>
    <contour>
      <point x="-557" y="1709"/>
      <point x="-579" y="1671"/>
      <point x="-579" y="1650" type="qcurve" smooth="yes"/>
      <point x="-579" y="1629"/>
      <point x="-557" y="1591"/>
      <point x="-519" y="1570"/>
      <point x="-499" y="1570" type="qcurve" smooth="yes"/>
      <point x="-478" y="1570"/>
      <point x="-440" y="1591"/>
      <point x="-419" y="1629"/>
      <point x="-419" y="1650" type="qcurve" smooth="yes"/>
      <point x="-419" y="1671"/>
      <point x="-440" y="1709"/>
      <point x="-478" y="1730"/>
      <point x="-499" y="1730" type="qcurve" smooth="yes"/>
      <point x="-519" y="1730"/>
    </contour>
    <contour>
      <point x="-499" y="1850" type="qcurve" smooth="yes"/>
      <point x="-448" y="1850"/>
      <point x="-353" y="1798"/>
      <point x="-299" y="1702"/>
      <point x="-299" y="1650" type="qcurve" smooth="yes"/>
      <point x="-299" y="1598"/>
      <point x="-351" y="1503"/>
      <point x="-447" y="1450"/>
      <point x="-499" y="1450" type="qcurve" smooth="yes"/>
      <point x="-550" y="1450"/>
      <point x="-646" y="1503"/>
      <point x="-699" y="1598"/>
      <point x="-699" y="1650" type="qcurve" smooth="yes"/>
      <point x="-699" y="1702"/>
      <point x="-645" y="1798"/>
      <point x="-549" y="1850"/>
    </contour>
    <contour>
      <point x="198" y="1040" type="qcurve" smooth="yes"/>
      <point x="198" y="966"/>
      <point x="273" y="966" type="qcurve" smooth="yes"/>
      <point x="349" y="966"/>
      <point x="349" y="1041" type="qcurve" smooth="yes"/>
      <point x="349" y="1117"/>
      <point x="273" y="1117" type="qcurve" smooth="yes"/>
      <point x="198" y="1117"/>
    </contour>
    <contour>
      <point x="604" y="920" type="line" smooth="yes"/>
      <point x="604" y="1177"/>
      <point x="373" y="1203" type="qcurve"/>
      <point x="464" y="1157"/>
      <point x="464" y="1040" type="qcurve" smooth="yes"/>
      <point x="464" y="850"/>
      <point x="272" y="850" type="qcurve" smooth="yes"/>
      <point x="82" y="850"/>
      <point x="82" y="1040" type="qcurve" smooth="yes"/>
      <point x="82" y="1300"/>
      <point x="437" y="1300" type="qcurve" smooth="yes"/>
      <point x="792" y="1300"/>
      <point x="792" y="920" type="qcurve" smooth="yes"/>
      <point x="792" y="200" type="line" smooth="yes"/>
      <point x="792" y="105"/>
      <point x="742" y="0" type="qcurve"/>
      <point x="554" y="0" type="line"/>
      <point x="604" y="75"/>
      <point x="604" y="200" type="qcurve" smooth="yes"/>
    </contour>
  </outline>
</glyph>
<glyph name="uni0EB4" format="1">
  <advance width="0"/>
  <unicode hex="0EB4"/>
  <outline>
    <contour>
      <point x="-649" y="1797" type="qcurve" smooth="yes"/>
      <point x="-489" y="1797"/>
      <point x="-305" y="1760"/>
      <point x="-198" y="1667"/>
      <point x="-198" y="1628" type="qcurve"/>
      <point x="-204" y="1594"/>
      <point x="-228" y="1558"/>
      <point x="-301" y="1507"/>
      <point x="-375" y="1472"/>
      <point x="-429" y="1451" type="qcurve" smooth="yes"/>
      <point x="-437" y="1451"/>
      <point x="-443" y="1450" type="qcurve"/>
      <point x="-503" y="1530" type="line"/>
      <point x="-370" y="1574"/>
      <point x="-370" y="1624" type="qcurve" smooth="yes"/>
      <point x="-370" y="1673"/>
      <point x="-436" y="1690" type="qcurve" smooth="yes"/>
      <point x="-496" y="1705"/>
      <point x="-649" y="1705" type="qcurve" smooth="yes"/>
      <point x="-802" y="1705"/>
      <point x="-862" y="1690" type="qcurve" smooth="yes"/>
      <point x="-928" y="1673"/>
      <point x="-928" y="1624" type="qcurve" smooth="yes"/>
      <point x="-928" y="1574"/>
      <point x="-795" y="1530" type="qcurve"/>
      <point x="-855" y="1450" type="line"/>
      <point x="-861" y="1451"/>
      <point x="-869" y="1451" type="qcurve" smooth="yes"/>
      <point x="-923" y="1472"/>
      <point x="-997" y="1507"/>
      <point x="-1070" y="1558"/>
      <point x="-1094" y="1594"/>
      <point x="-1100" y="1628" type="qcurve"/>
      <point x="-1100" y="1667"/>
      <point x="-993" y="1760"/>
      <point x="-809" y="1797"/>
    </contour>
  </outline>
</glyph>
<glyph name="uni0EB5" format="1">
  <advance width="0"/>
  <unicode hex="0EB5"/>
  <outline>
    <contour>
      <point x="-532" y="1532" type="line" smooth="yes"/>
      <point x="-529" y="1534"/>
      <point x="-515" y="1536" type="qcurve" smooth="yes"/>
      <point x="-399" y="1577"/>
      <point x="-399" y="1624" type="qcurve" smooth="yes"/>
      <point x="-399" y="1673"/>
      <point x="-465" y="1690" type="qcurve" smooth="yes"/>
      <point x="-522" y="1704"/>
      <point x="-663" y="1704" type="qcurve" smooth="yes"/>
      <point x="-805" y="1704"/>
      <point x="-862" y="1690" type="qcurve" smooth="yes"/>
      <point x="-928" y="1673"/>
      <point x="-928" y="1624" type="qcurve" smooth="yes"/>
      <point x="-928" y="1574"/>
      <point x="-795" y="1530" type="qcurve"/>
      <point x="-855" y="1450" type="line"/>
      <point x="-861" y="1451"/>
      <point x="-869" y="1451" type="qcurve" smooth="yes"/>
      <point x="-923" y="1472"/>
      <point x="-997" y="1507"/>
      <point x="-1070" y="1558"/>
      <point x="-1094" y="1594"/>
      <point x="-1100" y="1628" type="qcurve"/>
      <point x="-1100" y="1667"/>
      <point x="-993" y="1760"/>
      <point x="-901" y="1779" type="qcurve" smooth="yes"/>
      <point x="-818" y="1795"/>
      <point x="-663" y="1795" type="qcurve" smooth="yes"/>
      <point x="-509" y="1795"/>
      <point x="-426" y="1779" type="qcurve" smooth="yes"/>
      <point x="-334" y="1760"/>
      <point x="-227" y="1667"/>
      <point x="-227" y="1628" type="qcurve"/>
      <point x="-233" y="1594"/>
      <point x="-245" y="1576" type="qcurve" smooth="yes"/>
      <point x="-253" y="1563"/>
      <point x="-274" y="1547" type="qcurve"/>
      <point x="-120" y="1547" type="line"/>
      <point x="-120" y="1450" type="line"/>
      <point x="-532" y="1450" type="line"/>
    </contour>
  </outline>
</glyph>
<glyph name="uni0EB6" format="1">
  <advance width="0"/>
  <unicode hex="0EB6"/>
  <outline>
    <contour>
      <point x="-650" y="1658" type="qcurve" smooth="yes"/>
      <point x="-625" y="1658"/>
      <point x="-581" y="1644"/>
      <point x="-556" y="1617"/>
      <point x="-556" y="1603" type="qcurve" smooth="yes"/>
      <point x="-556" y="1589"/>
      <point x="-580" y="1562"/>
      <point x="-624" y="1548"/>
      <point x="-650" y="1548" type="qcurve" smooth="yes"/>
      <point x="-674" y="1548"/>
      <point x="-718" y="1562"/>
      <point x="-743" y="1589"/>
      <point x="-743" y="1603" type="qcurve" smooth="yes"/>
      <point x="-743" y="1617"/>
      <point x="-718" y="1644"/>
      <point x="-673" y="1658"/>
    </contour>
    <contour>
      <point x="-649" y="1797" type="qcurve" smooth="yes"/>
      <point x="-489" y="1797"/>
      <point x="-305" y="1760"/>
      <point x="-198" y="1667"/>
      <point x="-198" y="1628" type="qcurve"/>
      <point x="-204" y="1594"/>
      <point x="-228" y="1558"/>
      <point x="-301" y="1507"/>
      <point x="-375" y="1472"/>
      <point x="-429" y="1451" type="qcurve" smooth="yes"/>
      <point x="-437" y="1451"/>
      <point x="-443" y="1450" type="qcurve"/>
      <point x="-503" y="1530" type="line"/>
      <point x="-370" y="1574"/>
      <point x="-370" y="1624" type="qcurve" smooth="yes"/>
      <point x="-370" y="1673"/>
      <point x="-436" y="1690" type="qcurve" smooth="yes"/>
      <point x="-496" y="1705"/>
      <point x="-649" y="1705" type="qcurve" smooth="yes"/>
      <point x="-802" y="1705"/>
      <point x="-862" y="1690" type="qcurve" smooth="yes"/>
      <point x="-928" y="1673"/>
      <point x="-928" y="1624" type="qcurve" smooth="yes"/>
      <point x="-928" y="1574"/>
      <point x="-795" y="1530" type="qcurve"/>
      <point x="-855" y="1450" type="line"/>
      <point x="-861" y="1451"/>
      <point x="-869" y="1451" type="qcurve" smooth="yes"/>
      <point x="-923" y="1472"/>
      <point x="-997" y="1507"/>
      <point x="-1070" y="1558"/>
      <point x="-1094" y="1594"/>
      <point x="-1100" y="1628" type="qcurve"/>
      <point x="-1100" y="1667"/>
      <point x="-993" y="1760"/>
      <point x="-809" y="1797"/>
    </contour>
  </outline>
</glyph>
<glyph name="uni0EB8" format="1">
  <advance width="0"/>
  <unicode hex="0EB8"/>
  <outline>
    <contour>
      <point x="-449" y="-173"/>
      <point x="-462" y="-193"/>
      <point x="-462" y="-205" type="qcurve" smooth="yes"/>
      <point x="-462" y="-216"/>
      <point x="-449" y="-236"/>
      <point x="-426" y="-249"/>
      <point x="-414" y="-249" type="qcurve" smooth="yes"/>
      <point x="-400" y="-249"/>
      <point x="-378" y="-236"/>
      <point x="-367" y="-216"/>
      <point x="-367" y="-205" type="qcurve" smooth="yes"/>
      <point x="-367" y="-193"/>
      <point x="-378" y="-173"/>
      <point x="-401" y="-161"/>
      <point x="-414" y="-161" type="qcurve" smooth="yes"/>
      <point x="-425" y="-161"/>
    </contour>
    <contour>
      <point x="-435" y="-347" type="qcurve"/>
      <point x="-465" y="-343"/>
      <point x="-492" y="-329" type="qcurve" smooth="yes"/>
      <point x="-531" y="-310"/>
      <point x="-572" y="-243"/>
      <point x="-572" y="-205" type="qcurve" smooth="yes"/>
      <point x="-572" y="-166"/>
      <point x="-528" y="-97"/>
      <point x="-454" y="-61"/>
      <point x="-414" y="-61" type="qcurve" smooth="yes"/>
      <point x="-374" y="-61"/>
      <point x="-299" y="-97"/>
      <point x="-257" y="-166"/>
      <point x="-257" y="-205" type="qcurve" smooth="yes"/>
      <point x="-257" y="-448"/>
      <point x="-487" y="-511" type="qcurve"/>
      <point x="-556" y="-423" type="line"/>
      <point x="-472" y="-411"/>
    </contour>
  </outline>
</glyph>
<glyph name="uni0EB9" format="1">
  <advance width="0"/>
  <unicode hex="0EB9"/>
  <outline>
    <contour>
      <point x="-630" y="-184"/>
      <point x="-630" y="-196" type="qcurve" smooth="yes"/>
      <point x="-630" y="-209"/>
      <point x="-618" y="-229"/>
      <point x="-598" y="-242"/>
      <point x="-562" y="-244" type="qcurve"/>
      <point x="-544" y="-218"/>
      <point x="-544" y="-196" type="qcurve" smooth="yes"/>
      <point x="-544" y="-184"/>
      <point x="-556" y="-163"/>
      <point x="-576" y="-150"/>
      <point x="-587" y="-150" type="qcurve" smooth="yes"/>
      <point x="-596" y="-150"/>
      <point x="-618" y="-163"/>
    </contour>
    <contour>
      <point x="-470" y="-278" type="qcurve" smooth="yes"/>
      <point x="-483" y="-315"/>
      <point x="-483" y="-351" type="qcurve" smooth="yes"/>
      <point x="-483" y="-366"/>
      <point x="-481" y="-381" type="qcurve" smooth="yes"/>
      <point x="-473" y="-406"/>
      <point x="-428" y="-406" type="qcurve" smooth="yes"/>
      <point x="-372" y="-406"/>
      <point x="-372" y="-262" type="qcurve" smooth="yes"/>
      <point x="-372" y="-61" type="line"/>
      <point x="-239" y="-61" type="line"/>
      <point x="-239" y="-268" type="line" smooth="yes"/>
      <point x="-239" y="-511"/>
      <point x="-428" y="-511" type="qcurve" smooth="yes"/>
      <point x="-555" y="-511"/>
      <point x="-586" y="-446" type="qcurve" smooth="yes"/>
      <point x="-605" y="-408"/>
      <point x="-605" y="-374" type="qcurve" smooth="yes"/>
      <point x="-605" y="-348"/>
      <point x="-594" y="-324" type="qcurve"/>
      <point x="-627" y="-324"/>
      <point x="-658" y="-307" type="qcurve" smooth="yes"/>
      <point x="-692" y="-289"/>
      <point x="-724" y="-226"/>
      <point x="-724" y="-193" type="qcurve" smooth="yes"/>
      <point x="-724" y="-158"/>
      <point x="-692" y="-94"/>
      <point x="-625" y="-61"/>
      <point x="-591" y="-61" type="qcurve" smooth="yes"/>
      <point x="-555" y="-61"/>
      <point x="-489" y="-94"/>
      <point x="-452" y="-158"/>
      <point x="-452" y="-193" type="qcurve" smooth="yes"/>
      <point x="-452" y="-224"/>
    </contour>
  </outline>
</glyph>
<glyph name="uni0EBB" format="1">
  <advance width="0"/>
  <unicode hex="0EBB"/>
  <outline>
    <contour>
      <point x="-935" y="1566" type="qcurve" smooth="yes"/>
      <point x="-936" y="1575"/>
      <point x="-936" y="1583" type="qcurve" smooth="yes"/>
      <point x="-936" y="1745"/>
      <point x="-579" y="1756" type="qcurve"/>
      <point x="-552" y="1756" type="line" smooth="yes"/>
      <point x="-199" y="1756"/>
      <point x="-87" y="1450" type="qcurve"/>
      <point x="-263" y="1450" type="line"/>
      <point x="-309" y="1640"/>
      <point x="-459" y="1673" type="qcurve" smooth="yes"/>
      <point x="-522" y="1687"/>
      <point x="-564" y="1687" type="qcurve" smooth="yes"/>
      <point x="-622" y="1687"/>
      <point x="-639" y="1660" type="qcurve" smooth="yes"/>
      <point x="-639" y="1659"/>
      <point x="-638" y="1657" type="qcurve" smooth="yes"/>
      <point x="-616" y="1637"/>
      <point x="-612" y="1603" type="qcurve" smooth="yes"/>
      <point x="-611" y="1596"/>
      <point x="-611" y="1590" type="qcurve" smooth="yes"/>
      <point x="-611" y="1562"/>
      <point x="-625" y="1534" type="qcurve" smooth="yes"/>
      <point x="-643" y="1500"/>
      <point x="-723" y="1455"/>
      <point x="-763" y="1451" type="qcurve" smooth="yes"/>
      <point x="-774" y="1450"/>
      <point x="-784" y="1450" type="qcurve" smooth="yes"/>
      <point x="-814" y="1450"/>
      <point x="-842" y="1460" type="qcurve" smooth="yes"/>
      <point x="-881" y="1473"/>
      <point x="-931" y="1532"/>
    </contour>
    <contour>
      <point x="-772" y="1528" type="line" smooth="yes"/>
      <point x="-754" y="1530"/>
      <point x="-725" y="1549"/>
      <point x="-718" y="1563" type="qcurve" smooth="yes"/>
      <point x="-712" y="1575"/>
      <point x="-712" y="1588" type="qcurve" smooth="yes"/>
      <point x="-712" y="1591" type="line" smooth="yes"/>
      <point x="-714" y="1605"/>
      <point x="-734" y="1630"/>
      <point x="-750" y="1636" type="qcurve" smooth="yes"/>
      <point x="-762" y="1641"/>
      <point x="-775" y="1641" type="qcurve" smooth="yes"/>
      <point x="-779" y="1641"/>
      <point x="-784" y="1640" type="qcurve" smooth="yes"/>
      <point x="-800" y="1638"/>
      <point x="-829" y="1620"/>
      <point x="-836" y="1606" type="qcurve" smooth="yes"/>
      <point x="-842" y="1594"/>
      <point x="-842" y="1583" type="qcurve" smooth="yes"/>
      <point x="-842" y="1577" type="line" smooth="yes"/>
      <point x="-841" y="1563"/>
      <point x="-820" y="1538"/>
      <point x="-804" y="1533" type="qcurve" smooth="yes"/>
      <point x="-790" y="1528"/>
      <point x="-777" y="1528" type="qcurve" smooth="yes"/>
    </contour>
  </outline>
</glyph>
<glyph name="uni0EBC" format="1">
  <advance width="0"/>
  <unicode hex="0EBC"/>
  <outline>
    <contour>
      <point x="-827" y="-221" type="qcurve" smooth="yes"/>
      <point x="-827" y="-227" type="line" smooth="yes"/>
      <point x="-827" y="-244"/>
      <point x="-818" y="-252" type="qcurve" smooth="yes"/>
      <point x="-807" y="-263"/>
      <point x="-788" y="-264" type="qcurve" smooth="yes"/>
      <point x="-770" y="-264"/>
      <point x="-758" y="-253" type="qcurve" smooth="yes"/>
      <point x="-748" y="-245"/>
      <point x="-748" y="-230" type="qcurve" smooth="yes"/>
      <point x="-748" y="-226"/>
      <point x="-749" y="-222" type="qcurve" smooth="yes"/>
      <point x="-751" y="-201"/>
      <point x="-777" y="-176" type="qcurve"/>
      <point x="-802" y="-180"/>
      <point x="-824" y="-200"/>
    </contour>
    <contour>
      <point x="-675" y="-181" type="qcurve"/>
      <point x="-659" y="-217"/>
      <point x="-659" y="-248" type="qcurve" smooth="yes"/>
      <point x="-659" y="-262"/>
      <point x="-662" y="-275" type="qcurve" smooth="yes"/>
      <point x="-673" y="-317"/>
      <point x="-735" y="-367"/>
      <point x="-785" y="-367" type="qcurve" smooth="yes"/>
      <point x="-845" y="-367"/>
      <point x="-888" y="-326" type="qcurve" smooth="yes"/>
      <point x="-928" y="-286"/>
      <point x="-928" y="-211" type="qcurve" smooth="yes"/>
      <point x="-928" y="-136"/>
      <point x="-822" y="-61"/>
      <point x="-740" y="-61" type="qcurve" smooth="yes"/>
      <point x="-658" y="-61"/>
      <point x="-539" y="-131"/>
      <point x="-474" y="-214"/>
      <point x="-427" y="-216" type="qcurve" smooth="yes"/>
      <point x="-425" y="-216" type="line" smooth="yes"/>
      <point x="-362" y="-216"/>
      <point x="-345" y="-71" type="qcurve"/>
      <point x="-206" y="-71" type="line"/>
      <point x="-244" y="-339"/>
      <point x="-419" y="-339" type="qcurve" smooth="yes"/>
      <point x="-427" y="-339" type="line" smooth="yes"/>
      <point x="-517" y="-336"/>
      <point x="-624" y="-189"/>
    </contour>
  </outline>
</glyph>
<glyph name="uni0EBD" format="1">
  <advance width="1050"/>
  <unicode hex="0EBD"/>
  <outline>
    <contour>
      <point x="283" y="-123" type="qcurve" smooth="yes"/>
      <point x="245" y="-123"/>
      <point x="223" y="-144" type="qcurve" smooth="yes"/>
      <point x="203" y="-163"/>
      <point x="203" y="-192" type="qcurve" smooth="yes"/>
      <point x="203" y="-197"/>
      <point x="204" y="-203" type="qcurve" smooth="yes"/>
      <point x="209" y="-258"/>
      <point x="325" y="-273" type="qcurve"/>
      <point x="374" y="-248"/>
      <point x="374" y="-205" type="qcurve" smooth="yes"/>
      <point x="374" y="-203" type="line" smooth="yes"/>
      <point x="374" y="-166"/>
      <point x="323" y="-123"/>
    </contour>
    <contour>
      <point x="694" y="774" type="line" smooth="yes"/>
      <point x="694" y="861"/>
      <point x="482" y="946" type="qcurve"/>
      <point x="183" y="1047" type="line" smooth="yes"/>
      <point x="82" y="1078"/>
      <point x="82" y="1161" type="qcurve" smooth="yes"/>
      <point x="82" y="1217"/>
      <point x="110" y="1247" type="qcurve" smooth="yes"/>
      <point x="137" y="1277"/>
      <point x="171" y="1289" type="qcurve" smooth="yes"/>
      <point x="205" y="1300"/>
      <point x="260" y="1300" type="qcurve" smooth="yes"/>
      <point x="315" y="1300"/>
      <point x="405" y="1283" type="qcurve" smooth="yes"/>
      <point x="494" y="1266"/>
      <point x="594" y="1233" type="qcurve" smooth="yes"/>
      <point x="619" y="1224"/>
      <point x="638" y="1224" type="qcurve" smooth="yes"/>
      <point x="814" y="1224"/>
      <point x="882" y="1329" type="qcurve"/>
      <point x="882" y="1245" type="line" smooth="yes"/>
      <point x="882" y="1188"/>
      <point x="853" y="1148" type="qcurve" smooth="yes"/>
      <point x="824" y="1108"/>
      <point x="779" y="1096" type="qcurve" smooth="yes"/>
      <point x="756" y="1090"/>
      <point x="728" y="1090" type="qcurve" smooth="yes"/>
      <point x="703" y="1090"/>
      <point x="674" y="1095" type="qcurve" smooth="yes"/>
      <point x="613" y="1106"/>
      <point x="546" y="1127" type="qcurve" smooth="yes"/>
      <point x="478" y="1147"/>
      <point x="402" y="1171" type="qcurve" smooth="yes"/>
      <point x="325" y="1194"/>
      <point x="277" y="1196" type="qcurve" smooth="yes"/>
      <point x="269" y="1196" type="line" smooth="yes"/>
      <point x="228" y="1196"/>
      <point x="223" y="1177" type="qcurve"/>
      <point x="223" y="1173" type="line" smooth="yes"/>
      <point x="223" y="1154"/>
      <point x="265" y="1144" type="qcurve" smooth="yes"/>
      <point x="312" y="1133"/>
      <point x="383" y="1115" type="qcurve" smooth="yes"/>
      <point x="453" y="1096"/>
      <point x="536" y="1071" type="qcurve" smooth="yes"/>
      <point x="619" y="1045"/>
      <point x="691" y="1010" type="qcurve" smooth="yes"/>
      <point x="763" y="975"/>
      <point x="823" y="932" type="qcurve" smooth="yes"/>
      <point x="882" y="889"/>
      <point x="882" y="836" type="qcurve" smooth="yes"/>
      <point x="882" y="0" type="line" smooth="yes"/>
      <point x="882" y="-228"/>
      <point x="779" y="-332" type="qcurve" smooth="yes"/>
      <point x="693" y="-420"/>
      <point x="535" y="-420" type="qcurve" smooth="yes"/>
      <point x="408" y="-420"/>
      <point x="264" y="-398"/>
      <point x="139" y="-343"/>
      <point x="82" y="-266"/>
      <point x="82" y="-201" type="qcurve" smooth="yes"/>
      <point x="82" y="-194" type="line" smooth="yes"/>
      <point x="82" y="-121"/>
      <point x="136" y="-68" type="qcurve" smooth="yes"/>
      <point x="191" y="-14"/>
      <point x="252" y="-8" type="qcurve" smooth="yes"/>
      <point x="269" y="-7"/>
      <point x="284" y="-7" type="qcurve" smooth="yes"/>
      <point x="323" y="-7"/>
      <point x="350" y="-16" type="qcurve" smooth="yes"/>
      <point x="388" y="-29"/>
      <point x="447" y="-77"/>
      <point x="467" y="-119" type="qcurve" smooth="yes"/>
      <point x="482" y="-150"/>
      <point x="482" y="-189" type="qcurve" smooth="yes"/>
      <point x="482" y="-203"/>
      <point x="480" y="-219" type="qcurve" smooth="yes"/>
      <point x="472" y="-276"/>
      <point x="446" y="-296" type="qcurve"/>
      <point x="492" y="-299"/>
      <point x="541" y="-299" type="qcurve" smooth="yes"/>
      <point x="608" y="-297"/>
      <point x="645" y="-241" type="qcurve" smooth="yes"/>
      <point x="694" y="-168"/>
      <point x="694" y="-6" type="qcurve" smooth="yes"/>
    </contour>
  </outline>
</glyph>
<glyph name="uni0EC0" format="1">
  <advance width="750"/>
  <unicode hex="0EC0"/>
  <outline>
    <contour>
      <point x="468" y="183"/>
      <point x="468" y="170" type="qcurve" smooth="yes"/>
      <point x="468" y="157"/>
      <point x="481" y="133"/>
      <point x="505" y="120"/>
      <point x="518" y="120" type="qcurve" smooth="yes"/>
      <point x="531" y="120"/>
      <point x="555" y="133"/>
      <point x="568" y="157"/>
      <point x="568" y="170" type="qcurve" smooth="yes"/>
      <point x="568" y="183"/>
      <point x="554" y="207"/>
      <point x="531" y="220"/>
      <point x="518" y="220" type="qcurve" smooth="yes"/>
      <point x="505" y="220"/>
      <point x="481" y="207"/>
    </contour>
    <contour>
      <point x="356" y="300" type="line" smooth="yes"/>
      <point x="356" y="240"/>
      <point x="371" y="198" type="qcurve"/>
      <point x="375" y="222"/>
      <point x="388" y="245" type="qcurve" smooth="yes"/>
      <point x="408" y="281"/>
      <point x="480" y="320"/>
      <point x="518" y="320" type="qcurve" smooth="yes"/>
      <point x="556" y="320"/>
      <point x="627" y="281"/>
      <point x="668" y="209"/>
      <point x="668" y="170" type="qcurve" smooth="yes"/>
      <point x="668" y="87"/>
      <point x="625" y="45" type="qcurve" smooth="yes"/>
      <point x="580" y="0"/>
      <point x="488" y="0" type="qcurve" smooth="yes"/>
      <point x="334" y="0"/>
      <point x="254" y="70" type="qcurve" smooth="yes"/>
      <point x="168" y="144"/>
      <point x="168" y="300" type="qcurve" smooth="yes"/>
      <point x="168" y="1000" type="line" smooth="yes"/>
      <point x="168" y="1157"/>
      <point x="254" y="1232" type="qcurve" smooth="yes"/>
      <point x="333" y="1300"/>
      <point x="462" y="1300" type="qcurve" smooth="yes"/>
      <point x="660" y="1300"/>
      <point x="698" y="1126" type="qcurve"/>
      <point x="600" y="1186"/>
      <point x="502" y="1186" type="qcurve" smooth="yes"/>
      <point x="404" y="1186"/>
      <point x="356" y="1085"/>
      <point x="356" y="1000" type="qcurve" smooth="yes"/>
    </contour>
  </outline>
</glyph>
<glyph name="uni0EC1" format="1">
  <advance width="1383"/>
  <unicode hex="0EC1"/>
  <outline>
    <contour>
      <point x="468" y="183"/>
      <point x="468" y="170" type="qcurve" smooth="yes"/>
      <point x="468" y="157"/>
      <point x="481" y="133"/>
      <point x="505" y="120"/>
      <point x="518" y="120" type="qcurve" smooth="yes"/>
      <point x="531" y="120"/>
      <point x="555" y="133"/>
      <point x="568" y="157"/>
      <point x="568" y="170" type="qcurve" smooth="yes"/>
      <point x="568" y="183"/>
      <point x="554" y="207"/>
      <point x="531" y="220"/>
      <point x="518" y="220" type="qcurve" smooth="yes"/>
      <point x="505" y="220"/>
      <point x="481" y="207"/>
    </contour>
    <contour>
      <point x="356" y="300" type="line" smooth="yes"/>
      <point x="356" y="240"/>
      <point x="371" y="198" type="qcurve"/>
      <point x="375" y="222"/>
      <point x="388" y="245" type="qcurve" smooth="yes"/>
      <point x="408" y="281"/>
      <point x="480" y="320"/>
      <point x="518" y="320" type="qcurve" smooth="yes"/>
      <point x="556" y="320"/>
      <point x="627" y="281"/>
      <point x="668" y="209"/>
      <point x="668" y="170" type="qcurve" smooth="yes"/>
      <point x="668" y="87"/>
      <point x="625" y="45" type="qcurve" smooth="yes"/>
      <point x="580" y="0"/>
      <point x="488" y="0" type="qcurve" smooth="yes"/>
      <point x="334" y="0"/>
      <point x="254" y="70" type="qcurve" smooth="yes"/>
      <point x="168" y="144"/>
      <point x="168" y="300" type="qcurve" smooth="yes"/>
      <point x="168" y="1000" type="line" smooth="yes"/>
      <point x="168" y="1157"/>
      <point x="254" y="1232" type="qcurve" smooth="yes"/>
      <point x="333" y="1300"/>
      <point x="462" y="1300" type="qcurve" smooth="yes"/>
      <point x="660" y="1300"/>
      <point x="698" y="1126" type="qcurve"/>
      <point x="600" y="1186"/>
      <point x="502" y="1186" type="qcurve" smooth="yes"/>
      <point x="404" y="1186"/>
      <point x="356" y="1085"/>
      <point x="356" y="1000" type="qcurve" smooth="yes"/>
    </contour>
    <contour>
      <point x="1100" y="183"/>
      <point x="1100" y="170" type="qcurve" smooth="yes"/>
      <point x="1100" y="157"/>
      <point x="1113" y="133"/>
      <point x="1137" y="120"/>
      <point x="1150" y="120" type="qcurve" smooth="yes"/>
      <point x="1163" y="120"/>
      <point x="1187" y="133"/>
      <point x="1200" y="157"/>
      <point x="1200" y="170" type="qcurve" smooth="yes"/>
      <point x="1200" y="183"/>
      <point x="1186" y="207"/>
      <point x="1163" y="220"/>
      <point x="1150" y="220" type="qcurve" smooth="yes"/>
      <point x="1137" y="220"/>
      <point x="1113" y="207"/>
    </contour>
    <contour>
      <point x="988" y="300" type="line" smooth="yes"/>
      <point x="988" y="240"/>
      <point x="1003" y="198" type="qcurve"/>
      <point x="1007" y="222"/>
      <point x="1020" y="245" type="qcurve" smooth="yes"/>
      <point x="1040" y="281"/>
      <point x="1112" y="320"/>
      <point x="1150" y="320" type="qcurve" smooth="yes"/>
      <point x="1188" y="320"/>
      <point x="1259" y="281"/>
      <point x="1300" y="209"/>
      <point x="1300" y="170" type="qcurve" smooth="yes"/>
      <point x="1300" y="87"/>
      <point x="1257" y="45" type="qcurve" smooth="yes"/>
      <point x="1212" y="0"/>
      <point x="1120" y="0" type="qcurve" smooth="yes"/>
      <point x="966" y="0"/>
      <point x="886" y="70" type="qcurve" smooth="yes"/>
      <point x="800" y="144"/>
      <point x="800" y="300" type="qcurve" smooth="yes"/>
      <point x="800" y="1000" type="line" smooth="yes"/>
      <point x="800" y="1157"/>
      <point x="886" y="1232" type="qcurve" smooth="yes"/>
      <point x="965" y="1300"/>
      <point x="1094" y="1300" type="qcurve" smooth="yes"/>
      <point x="1292" y="1300"/>
      <point x="1330" y="1126" type="qcurve"/>
      <point x="1232" y="1186"/>
      <point x="1134" y="1186" type="qcurve" smooth="yes"/>
      <point x="1036" y="1186"/>
      <point x="988" y="1085"/>
      <point x="988" y="1000" type="qcurve" smooth="yes"/>
    </contour>
  </outline>
</glyph>
<glyph name="uni0EC2" format="1">
  <advance width="856"/>
  <unicode hex="0EC2"/>
  <outline>
    <contour>
      <point x="509" y="170" type="qcurve" smooth="yes"/>
      <point x="509" y="157"/>
      <point x="522" y="133"/>
      <point x="546" y="120"/>
      <point x="559" y="120" type="qcurve" smooth="yes"/>
      <point x="572" y="120"/>
      <point x="596" y="133"/>
      <point x="609" y="157"/>
      <point x="609" y="170" type="qcurve" smooth="yes"/>
      <point x="609" y="183"/>
      <point x="595" y="207"/>
      <point x="572" y="220"/>
      <point x="559" y="220" type="qcurve" smooth="yes"/>
      <point x="546" y="220"/>
      <point x="522" y="207"/>
      <point x="509" y="183"/>
    </contour>
    <contour>
      <point x="604" y="1307" type="line"/>
      <point x="477" y="1223"/>
      <point x="438" y="1159" type="qcurve" smooth="yes"/>
      <point x="397" y="1093"/>
      <point x="397" y="1010" type="qcurve" smooth="yes"/>
      <point x="397" y="300" type="line" smooth="yes"/>
      <point x="397" y="240"/>
      <point x="412" y="198" type="qcurve"/>
      <point x="416" y="222"/>
      <point x="429" y="245" type="qcurve" smooth="yes"/>
      <point x="449" y="281"/>
      <point x="521" y="320"/>
      <point x="559" y="320" type="qcurve" smooth="yes"/>
      <point x="597" y="320"/>
      <point x="668" y="281"/>
      <point x="709" y="209"/>
      <point x="709" y="170" type="qcurve" smooth="yes"/>
      <point x="709" y="87"/>
      <point x="666" y="45" type="qcurve" smooth="yes"/>
      <point x="621" y="0"/>
      <point x="529" y="0" type="qcurve" smooth="yes"/>
      <point x="354" y="0"/>
      <point x="275" y="90" type="qcurve" smooth="yes"/>
      <point x="209" y="164"/>
      <point x="209" y="300" type="qcurve" smooth="yes"/>
      <point x="209" y="1010" type="line" smooth="yes"/>
      <point x="209" y="1190"/>
      <point x="373" y="1315" type="qcurve"/>
      <point x="74" y="1579" type="line" smooth="yes"/>
      <point x="7" y="1638"/>
      <point x="0" y="1735" type="qcurve"/>
      <point x="0" y="1742" type="line" smooth="yes"/>
      <point x="0" y="1814"/>
      <point x="41" y="1866" type="qcurve"/>
      <point x="102" y="1928"/>
      <point x="174" y="1933" type="qcurve" smooth="yes"/>
      <point x="185" y="1934"/>
      <point x="196" y="1934" type="qcurve" smooth="yes"/>
      <point x="285" y="1934"/>
      <point x="343" y="1883" type="qcurve" smooth="yes"/>
      <point x="450" y="1791" type="line"/>
      <point x="610" y="1647"/>
      <point x="690" y="1647" type="qcurve" smooth="yes"/>
      <point x="700" y="1647"/>
      <point x="779" y="1649" type="qcurve"/>
      <point x="700" y="1540"/>
      <point x="608" y="1540" type="qcurve" smooth="yes"/>
      <point x="515" y="1540"/>
      <point x="356" y="1683" type="qcurve" smooth="yes"/>
      <point x="239" y="1787" type="line" smooth="yes"/>
      <point x="207" y="1817"/>
      <point x="178" y="1817" type="qcurve" smooth="yes"/>
      <point x="150" y="1817"/>
      <point x="125" y="1786" type="qcurve" smooth="yes"/>
      <point x="116" y="1774"/>
      <point x="116" y="1762" type="qcurve" smooth="yes"/>
      <point x="116" y="1735"/>
      <point x="155" y="1702" type="qcurve" smooth="yes"/>
      <point x="603" y="1312" type="line"/>
      <point x="608" y="1310" type="line" smooth="yes"/>
      <point x="607" y="1309"/>
      <point x="606" y="1309" type="qcurve" smooth="yes"/>
      <point x="608" y="1307" type="line"/>
    </contour>
  </outline>
</glyph>
<glyph name="uni0EC3" format="1">
  <advance width="947"/>
  <unicode hex="0EC3"/>
  <outline>
    <contour>
      <point x="600" y="170" type="qcurve" smooth="yes"/>
      <point x="600" y="157"/>
      <point x="613" y="133"/>
      <point x="637" y="120"/>
      <point x="650" y="120" type="qcurve" smooth="yes"/>
      <point x="663" y="120"/>
      <point x="687" y="133"/>
      <point x="700" y="157"/>
      <point x="700" y="170" type="qcurve" smooth="yes"/>
      <point x="700" y="183"/>
      <point x="686" y="207"/>
      <point x="663" y="220"/>
      <point x="650" y="220" type="qcurve" smooth="yes"/>
      <point x="637" y="220"/>
      <point x="613" y="207"/>
      <point x="600" y="183"/>
    </contour>
    <contour>
      <point x="206" y="1769" type="qcurve" smooth="yes"/>
      <point x="144" y="1723"/>
      <point x="144" y="1631" type="qcurve" smooth="yes"/>
      <point x="144" y="1509"/>
      <point x="232" y="1494" type="qcurve" smooth="yes"/>
      <point x="240" y="1493"/>
      <point x="247" y="1493" type="qcurve" smooth="yes"/>
      <point x="354" y="1493"/>
      <point x="396" y="1600" type="qcurve"/>
      <point x="405" y="1561"/>
      <point x="405" y="1529" type="qcurve" smooth="yes"/>
      <point x="405" y="1466"/>
      <point x="372" y="1426" type="qcurve" smooth="yes"/>
      <point x="321" y="1366"/>
      <point x="256" y="1366" type="qcurve" smooth="yes"/>
      <point x="242" y="1366"/>
      <point x="227" y="1369" type="qcurve" smooth="yes"/>
      <point x="170" y="1373"/>
      <point x="84" y="1429"/>
      <point x="23" y="1502"/>
      <point x="0" y="1582"/>
      <point x="0" y="1631" type="qcurve" smooth="yes"/>
      <point x="0" y="1784"/>
      <point x="96" y="1862" type="qcurve" smooth="yes"/>
      <point x="196" y="1944"/>
      <point x="401" y="1944" type="qcurve" smooth="yes"/>
      <point x="605" y="1944"/>
      <point x="704" y="1857" type="qcurve" smooth="yes"/>
      <point x="800" y="1774"/>
      <point x="800" y="1610" type="qcurve" smooth="yes"/>
      <point x="800" y="1458"/>
      <point x="614" y="1286" type="qcurve" smooth="yes"/>
      <point x="488" y="1172"/>
      <point x="488" y="1081" type="qcurve" smooth="yes"/>
      <point x="488" y="300" type="line" smooth="yes"/>
      <point x="488" y="240"/>
      <point x="503" y="198" type="qcurve"/>
      <point x="507" y="222"/>
      <point x="520" y="245" type="qcurve" smooth="yes"/>
      <point x="540" y="281"/>
      <point x="612" y="320"/>
      <point x="650" y="320" type="qcurve" smooth="yes"/>
      <point x="688" y="320"/>
      <point x="759" y="281"/>
      <point x="800" y="209"/>
      <point x="800" y="170" type="qcurve" smooth="yes"/>
      <point x="800" y="87"/>
      <point x="757" y="45" type="qcurve" smooth="yes"/>
      <point x="712" y="0"/>
      <point x="620" y="0" type="qcurve" smooth="yes"/>
      <point x="445" y="0"/>
      <point x="366" y="90" type="qcurve" smooth="yes"/>
      <point x="300" y="164"/>
      <point x="300" y="300" type="qcurve" smooth="yes"/>
      <point x="300" y="1081" type="line" smooth="yes"/>
      <point x="300" y="1219"/>
      <point x="509" y="1378" type="qcurve" smooth="yes"/>
      <point x="666" y="1494"/>
      <point x="666" y="1610" type="qcurve" smooth="yes"/>
      <point x="666" y="1712"/>
      <point x="602" y="1764" type="qcurve" smooth="yes"/>
      <point x="535" y="1817"/>
      <point x="401" y="1817" type="qcurve" smooth="yes"/>
      <point x="271" y="1817"/>
    </contour>
  </outline>
</glyph>
<glyph name="uni0EC4" format="1">
  <advance width="856"/>
  <unicode hex="0EC4"/>
  <outline>
    <contour>
      <point x="509" y="170" type="qcurve" smooth="yes"/>
      <point x="509" y="157"/>
      <point x="522" y="133"/>
      <point x="546" y="120"/>
      <point x="559" y="120" type="qcurve" smooth="yes"/>
      <point x="572" y="120"/>
      <point x="596" y="133"/>
      <point x="609" y="157"/>
      <point x="609" y="170" type="qcurve" smooth="yes"/>
      <point x="609" y="183"/>
      <point x="595" y="207"/>
      <point x="572" y="220"/>
      <point x="559" y="220" type="qcurve" smooth="yes"/>
      <point x="546" y="220"/>
      <point x="522" y="207"/>
      <point x="509" y="183"/>
    </contour>
    <contour>
      <point x="397" y="300" type="line" smooth="yes"/>
      <point x="397" y="240"/>
      <point x="412" y="198" type="qcurve"/>
      <point x="416" y="222"/>
      <point x="429" y="245" type="qcurve" smooth="yes"/>
      <point x="449" y="281"/>
      <point x="521" y="320"/>
      <point x="559" y="320" type="qcurve" smooth="yes"/>
      <point x="597" y="320"/>
      <point x="668" y="281"/>
      <point x="709" y="209"/>
      <point x="709" y="170" type="qcurve" smooth="yes"/>
      <point x="709" y="87"/>
      <point x="666" y="45" type="qcurve" smooth="yes"/>
      <point x="621" y="0"/>
      <point x="529" y="0" type="qcurve" smooth="yes"/>
      <point x="354" y="0"/>
      <point x="275" y="90" type="qcurve" smooth="yes"/>
      <point x="209" y="164"/>
      <point x="209" y="300" type="qcurve" smooth="yes"/>
      <point x="209" y="1010" type="line" smooth="yes"/>
      <point x="209" y="1115"/>
      <point x="369" y="1212" type="qcurve" smooth="yes"/>
      <point x="529" y="1309"/>
      <point x="558" y="1336"/>
      <point x="558" y="1352" type="qcurve" smooth="yes"/>
      <point x="558" y="1368"/>
      <point x="536" y="1379"/>
      <point x="524" y="1379" type="qcurve" smooth="yes"/>
      <point x="501" y="1379"/>
      <point x="381" y="1325"/>
      <point x="350" y="1325" type="qcurve" smooth="yes"/>
      <point x="291" y="1325"/>
      <point x="221" y="1407"/>
      <point x="197" y="1505" type="qcurve" smooth="yes"/>
      <point x="156" y="1666"/>
      <point x="92" y="1844"/>
      <point x="-40" y="1912" type="qcurve"/>
      <point x="155" y="1907"/>
      <point x="242" y="1795"/>
      <point x="277" y="1697"/>
      <point x="287" y="1670"/>
      <point x="298" y="1628" type="qcurve" smooth="yes"/>
      <point x="309" y="1592"/>
      <point x="324" y="1523"/>
      <point x="336" y="1486"/>
      <point x="354" y="1458"/>
      <point x="371" y="1458" type="qcurve" smooth="yes"/>
      <point x="393" y="1458"/>
      <point x="491" y="1512"/>
      <point x="542" y="1512" type="qcurve" smooth="yes"/>
      <point x="593" y="1512"/>
      <point x="709" y="1440"/>
      <point x="709" y="1372" type="qcurve" smooth="yes"/>
      <point x="709" y="1275"/>
      <point x="549" y="1184" type="qcurve" smooth="yes"/>
      <point x="397" y="1093"/>
      <point x="397" y="1010" type="qcurve" smooth="yes"/>
    </contour>
  </outline>
</glyph>
<glyph name="uni0EC6" format="1">
  <advance width="1315"/>
  <unicode hex="0EC6"/>
  <outline>
    <contour>
      <point x="385" y="946" type="qcurve" smooth="yes"/>
      <point x="316" y="946"/>
      <point x="316" y="877" type="qcurve" smooth="yes"/>
      <point x="316" y="808"/>
      <point x="385" y="808" type="qcurve" smooth="yes"/>
      <point x="454" y="808"/>
      <point x="454" y="877" type="qcurve" smooth="yes"/>
      <point x="454" y="946"/>
    </contour>
    <contour>
      <point x="1147" y="-50" type="line" smooth="yes"/>
      <point x="1147" y="-420"/>
      <point x="692" y="-420" type="qcurve" smooth="yes"/>
      <point x="580" y="-420"/>
      <point x="377" y="-393"/>
      <point x="240" y="-276"/>
      <point x="199" y="-119" type="qcurve"/>
      <point x="245" y="-197"/>
      <point x="421" y="-293"/>
      <point x="692" y="-293" type="qcurve" smooth="yes"/>
      <point x="969" y="-293"/>
      <point x="969" y="-50" type="qcurve" smooth="yes"/>
      <point x="969" y="950" type="line"/>
      <point x="963" y="1156"/>
      <point x="891" y="1156" type="qcurve" smooth="yes"/>
      <point x="831" y="1156"/>
      <point x="765" y="1107" type="qcurve" smooth="yes"/>
      <point x="703" y="1061"/>
      <point x="646" y="1061" type="qcurve" smooth="yes"/>
      <point x="642" y="1061"/>
      <point x="638" y="1062" type="qcurve" smooth="yes"/>
      <point x="577" y="1065"/>
      <point x="437" y="1156"/>
      <point x="376" y="1156" type="qcurve" smooth="yes"/>
      <point x="333" y="1156"/>
      <point x="311" y="1114" type="qcurve" smooth="yes"/>
      <point x="291" y="1076"/>
      <point x="291" y="1014" type="qcurve" smooth="yes"/>
      <point x="291" y="997" type="line"/>
      <point x="332" y="1039"/>
      <point x="385" y="1039" type="qcurve" smooth="yes"/>
      <point x="558" y="1039"/>
      <point x="558" y="898" type="qcurve"/>
      <point x="548" y="718"/>
      <point x="375" y="716" type="qcurve"/>
      <point x="147" y="722"/>
      <point x="147" y="977" type="qcurve" smooth="yes"/>
      <point x="147" y="1145"/>
      <point x="291" y="1300"/>
      <point x="392" y="1300" type="qcurve" smooth="yes"/>
      <point x="437" y="1300"/>
      <point x="517" y="1257"/>
      <point x="563" y="1228" type="qcurve" smooth="yes"/>
      <point x="606" y="1200"/>
      <point x="641" y="1200" type="qcurve" smooth="yes"/>
      <point x="644" y="1200" type="line" smooth="yes"/>
      <point x="679" y="1201"/>
      <point x="773" y="1258"/>
      <point x="836" y="1300"/>
      <point x="893" y="1300" type="qcurve" smooth="yes"/>
      <point x="1147" y="1300"/>
      <point x="1147" y="950" type="qcurve" smooth="yes"/>
    </contour>
  </outline>
</glyph>
<glyph name="uni0EC9" format="1">
  <advance width="0"/>
  <unicode hex="0EC9"/>
  <outline>
    <contour>
      <point x="-667" y="2040" type="qcurve"/>
      <point x="-660" y="2053"/>
      <point x="-660" y="2062" type="qcurve" smooth="yes"/>
      <point x="-660" y="2068"/>
      <point x="-663" y="2073" type="qcurve" smooth="yes"/>
      <point x="-675" y="2091"/>
      <point x="-697" y="2091" type="qcurve" smooth="yes"/>
      <point x="-706" y="2091" type="line"/>
      <point x="-735" y="2086"/>
      <point x="-736" y="2065" type="qcurve" smooth="yes"/>
      <point x="-737" y="2064"/>
      <point x="-737" y="2063" type="qcurve" smooth="yes"/>
      <point x="-737" y="2044"/>
      <point x="-711" y="2041" type="qcurve" smooth="yes"/>
      <point x="-697" y="2039"/>
      <point x="-682" y="2039" type="qcurve" smooth="yes"/>
      <point x="-675" y="2039"/>
    </contour>
    <contour>
      <point x="-802" y="2012" type="qcurve" smooth="yes"/>
      <point x="-834" y="2032"/>
      <point x="-834" y="2065" type="qcurve" smooth="yes"/>
      <point x="-834" y="2072" type="line"/>
      <point x="-830" y="2110"/>
      <point x="-786" y="2133" type="qcurve" smooth="yes"/>
      <point x="-750" y="2150"/>
      <point x="-703" y="2150" type="qcurve" smooth="yes"/>
      <point x="-693" y="2150"/>
      <point x="-682" y="2149" type="qcurve" smooth="yes"/>
      <point x="-611" y="2144"/>
      <point x="-589" y="2115" type="qcurve" smooth="yes"/>
      <point x="-569" y="2088"/>
      <point x="-569" y="2049" type="qcurve" smooth="yes"/>
      <point x="-569" y="2042" type="line" smooth="yes"/>
      <point x="-571" y="1998"/>
      <point x="-648" y="1937" type="qcurve"/>
      <point x="-520" y="1945"/>
      <point x="-362" y="2043"/>
      <point x="-321" y="2125" type="qcurve"/>
      <point x="-191" y="2082" type="line"/>
      <point x="-252" y="1994"/>
      <point x="-374" y="1913"/>
      <point x="-556" y="1860"/>
      <point x="-696" y="1860" type="qcurve" smooth="yes"/>
      <point x="-910" y="1860" type="line"/>
      <point x="-910" y="1925" type="line"/>
      <point x="-774" y="1945"/>
      <point x="-720" y="1989" type="qcurve"/>
      <point x="-772" y="1994"/>
    </contour>
  </outline>
</glyph>
<glyph name="uni0ECB" format="1">
  <advance width="0"/>
  <unicode hex="0ECB"/>
  <outline>
    <contour>
      <point x="-573" y="1840" type="line"/>
      <point x="-573" y="1944" type="line"/>
      <point x="-707" y="1944" type="line"/>
      <point x="-707" y="2041" type="line"/>
      <point x="-573" y="2041" type="line"/>
      <point x="-573" y="2145" type="line"/>
      <point x="-440" y="2145" type="line"/>
      <point x="-440" y="2041" type="line"/>
      <point x="-307" y="2041" type="line"/>
      <point x="-307" y="1944" type="line"/>
      <point x="-440" y="1944" type="line"/>
      <point x="-440" y="1840" type="line"/>
    </contour>
  </outline>
</glyph>
<glyph name="uni0ECC" format="1">
  <advance width="0"/>
  <unicode hex="0ECC"/>
  <outline>
    <contour>
      <point x="-718" y="1913" type="qcurve" smooth="yes"/>
      <point x="-720" y="1926"/>
      <point x="-720" y="1936" type="qcurve" smooth="yes"/>
      <point x="-720" y="1977"/>
      <point x="-697" y="2006" type="qcurve" smooth="yes"/>
      <point x="-669" y="2043"/>
      <point x="-627" y="2056" type="qcurve" smooth="yes"/>
      <point x="-600" y="2064"/>
      <point x="-554" y="2064" type="qcurve" smooth="yes"/>
      <point x="-528" y="2064"/>
      <point x="-497" y="2062" type="qcurve" smooth="yes"/>
      <point x="-480" y="2060"/>
      <point x="-463" y="2060" type="qcurve" smooth="yes"/>
      <point x="-395" y="2060"/>
      <point x="-337" y="2083" type="qcurve" smooth="yes"/>
      <point x="-265" y="2113"/>
      <point x="-235" y="2175" type="qcurve"/>
      <point x="-180" y="2078" type="line"/>
      <point x="-213" y="2020"/>
      <point x="-268" y="1991" type="qcurve" smooth="yes"/>
      <point x="-318" y="1964"/>
      <point x="-386" y="1964" type="qcurve" smooth="yes"/>
      <point x="-401" y="1964" type="line"/>
      <point x="-399" y="1954"/>
      <point x="-399" y="1941" type="qcurve" smooth="yes"/>
      <point x="-399" y="1921"/>
      <point x="-404" y="1894" type="qcurve" smooth="yes"/>
      <point x="-414" y="1850"/>
      <point x="-488" y="1800"/>
      <point x="-555" y="1800" type="qcurve" smooth="yes"/>
      <point x="-622" y="1800"/>
      <point x="-710" y="1858"/>
    </contour>
    <contour>
      <point x="-593" y="1887" type="qcurve" smooth="yes"/>
      <point x="-579" y="1878"/>
      <point x="-561" y="1878" type="qcurve" smooth="yes"/>
      <point x="-550" y="1878" type="line"/>
      <point x="-525" y="1883"/>
      <point x="-512" y="1899" type="qcurve" smooth="yes"/>
      <point x="-502" y="1911"/>
      <point x="-502" y="1925" type="qcurve" smooth="yes"/>
      <point x="-502" y="1930"/>
      <point x="-503" y="1934" type="qcurve" smooth="yes"/>
      <point x="-508" y="1953"/>
      <point x="-527" y="1965" type="qcurve" smooth="yes"/>
      <point x="-541" y="1973"/>
      <point x="-558" y="1973" type="qcurve" smooth="yes"/>
      <point x="-571" y="1973" type="line"/>
      <point x="-594" y="1969"/>
      <point x="-607" y="1953" type="qcurve" smooth="yes"/>
      <point x="-617" y="1940"/>
      <point x="-617" y="1925" type="qcurve" smooth="yes"/>
      <point x="-617" y="1921"/>
      <point x="-616" y="1916" type="qcurve" smooth="yes"/>
      <point x="-612" y="1898"/>
    </contour>
  </outline>
</glyph>
<glyph name="uni0ECD" format="1">
  <advance width="0"/>
  <unicode hex="0ECD"/>
  <outline>
    <contour>
      <point x="-575" y="2035"/>
      <point x="-597" y="2001"/>
      <point x="-597" y="1982" type="qcurve" smooth="yes"/>
      <point x="-597" y="1962"/>
      <point x="-575" y="1928"/>
      <point x="-537" y="1909"/>
      <point x="-517" y="1909" type="qcurve" smooth="yes"/>
      <point x="-496" y="1909"/>
      <point x="-458" y="1928"/>
      <point x="-437" y="1962"/>
      <point x="-437" y="1982" type="qcurve" smooth="yes"/>
      <point x="-437" y="2001"/>
      <point x="-458" y="2035"/>
      <point x="-496" y="2054"/>
      <point x="-517" y="2054" type="qcurve" smooth="yes"/>
      <point x="-537" y="2054"/>
    </contour>
    <contour>
      <point x="-517" y="2163" type="qcurve" smooth="yes"/>
      <point x="-466" y="2163"/>
      <point x="-371" y="2116"/>
      <point x="-317" y="2029"/>
      <point x="-317" y="1982" type="qcurve" smooth="yes"/>
      <point x="-317" y="1934"/>
      <point x="-369" y="1848"/>
      <point x="-465" y="1800"/>
      <point x="-517" y="1800" type="qcurve" smooth="yes"/>
      <point x="-568" y="1800"/>
      <point x="-664" y="1848"/>
      <point x="-717" y="1934"/>
      <point x="-717" y="1982" type="qcurve" smooth="yes"/>
      <point x="-717" y="2029"/>
      <point x="-663" y="2116"/>
      <point x="-567" y="2163"/>
    </contour>
  </outline>
</glyph>
<glyph name="uni0ED0" format="1">
  <advance width="1194"/>
  <unicode hex="0ED0"/>
  <outline>
    <contour>
      <point x="597" y="1200" type="qcurve" smooth="yes"/>
      <point x="466" y="1200"/>
      <point x="335" y="941"/>
      <point x="335" y="651" type="qcurve" smooth="yes"/>
      <point x="335" y="360"/>
      <point x="466" y="110"/>
      <point x="597" y="110" type="qcurve" smooth="yes"/>
      <point x="728" y="110"/>
      <point x="859" y="360"/>
      <point x="859" y="651" type="qcurve" smooth="yes"/>
      <point x="859" y="941"/>
      <point x="728" y="1200"/>
    </contour>
    <contour>
      <point x="597" y="0" type="qcurve" smooth="yes"/>
      <point x="372" y="0"/>
      <point x="147" y="288"/>
      <point x="147" y="651" type="qcurve" smooth="yes"/>
      <point x="147" y="1013"/>
      <point x="372" y="1300"/>
      <point x="597" y="1300" type="qcurve" smooth="yes"/>
      <point x="822" y="1300"/>
      <point x="1047" y="1013"/>
      <point x="1047" y="651" type="qcurve" smooth="yes"/>
      <point x="1047" y="288"/>
      <point x="822" y="0"/>
    </contour>
  </outline>
</glyph>
<glyph name="uni0ED3" format="1">
  <advance width="1493"/>
  <unicode hex="0ED3"/>
  <outline>
    <contour>
      <point x="243" y="158" type="qcurve" smooth="yes"/>
      <point x="305" y="158"/>
      <point x="305" y="220" type="qcurve" smooth="yes"/>
      <point x="305" y="281"/>
      <point x="243" y="281" type="qcurve" smooth="yes"/>
      <point x="182" y="281"/>
      <point x="182" y="220" type="qcurve" smooth="yes"/>
      <point x="182" y="158"/>
    </contour>
    <contour>
      <point x="1137" y="1178" type="line" smooth="yes"/>
      <point x="1137" y="1221"/>
      <point x="933" y="1344"/>
      <point x="631" y="1474"/>
      <point x="549" y="1588"/>
      <point x="549" y="1646" type="qcurve" smooth="yes"/>
      <point x="549" y="1723"/>
      <point x="638" y="1799"/>
      <point x="704" y="1799" type="qcurve" smooth="yes"/>
      <point x="827" y="1799"/>
      <point x="939" y="1743" type="qcurve"/>
      <point x="1325" y="1572" type="line"/>
      <point x="1252" y="1464" type="line"/>
      <point x="890" y="1628" type="line"/>
      <point x="760" y="1682"/>
      <point x="723" y="1682" type="qcurve" smooth="yes"/>
      <point x="706" y="1682"/>
      <point x="687" y="1650"/>
      <point x="687" y="1639" type="qcurve" smooth="yes"/>
      <point x="687" y="1621"/>
      <point x="717" y="1583"/>
      <point x="739" y="1568" type="qcurve"/>
      <point x="1159" y="1373" type="line" smooth="yes"/>
      <point x="1290" y="1310"/>
      <point x="1325" y="1174" type="qcurve"/>
      <point x="1325" y="380" type="line" smooth="yes"/>
      <point x="1325" y="190"/>
      <point x="1095" y="0"/>
      <point x="900" y="0" type="qcurve" smooth="yes"/>
      <point x="715" y="0"/>
      <point x="590" y="95" type="qcurve"/>
      <point x="589" y="96" type="line"/>
      <point x="511" y="0"/>
      <point x="340" y="0" type="qcurve" smooth="yes"/>
      <point x="82" y="0"/>
      <point x="82" y="220" type="qcurve" smooth="yes"/>
      <point x="82" y="382"/>
      <point x="243" y="382" type="qcurve" smooth="yes"/>
      <point x="405" y="382"/>
      <point x="405" y="220" type="qcurve" smooth="yes"/>
      <point x="405" y="155"/>
      <point x="362" y="116" type="qcurve"/>
      <point x="465" y="138"/>
      <point x="465" y="322" type="qcurve" smooth="yes"/>
      <point x="465" y="1300" type="line"/>
      <point x="653" y="1300" type="line"/>
      <point x="653" y="380" type="line" smooth="yes"/>
      <point x="653" y="213"/>
      <point x="799" y="100"/>
      <point x="900" y="100" type="qcurve" smooth="yes"/>
      <point x="1001" y="100"/>
      <point x="1137" y="213"/>
      <point x="1137" y="380" type="qcurve" smooth="yes"/>
    </contour>
  </outline>
</glyph>
<glyph name="uni0ED4" format="1">
  <advance width="1304"/>
  <unicode hex="0ED4"/>
  <outline>
    <contour>
      <point x="988" y="623" type="qcurve" smooth="yes"/>
      <point x="935" y="623"/>
      <point x="935" y="568" type="qcurve" smooth="yes"/>
      <point x="935" y="503"/>
      <point x="988" y="503" type="qcurve" smooth="yes"/>
      <point x="1050" y="503"/>
      <point x="1050" y="568" type="qcurve" smooth="yes"/>
      <point x="1050" y="623"/>
    </contour>
    <contour>
      <point x="981" y="97" type="qcurve" smooth="yes"/>
      <point x="1037" y="97"/>
      <point x="1037" y="142" type="qcurve" smooth="yes"/>
      <point x="1037" y="187"/>
      <point x="973" y="187" type="qcurve" smooth="yes"/>
      <point x="970" y="187" type="line" smooth="yes"/>
      <point x="947" y="187"/>
      <point x="935" y="185" type="qcurve"/>
      <point x="935" y="181" type="line" smooth="yes"/>
      <point x="935" y="97"/>
    </contour>
    <contour>
      <point x="1011" y="1605" type="qcurve"/>
      <point x="1038" y="1521"/>
      <point x="1038" y="1463" type="qcurve" smooth="yes"/>
      <point x="1038" y="1415"/>
      <point x="1019" y="1386" type="qcurve" smooth="yes"/>
      <point x="978" y="1322"/>
      <point x="940" y="1305" type="qcurve" smooth="yes"/>
      <point x="509" y="1115" type="line"/>
      <point x="368" y="1022"/>
      <point x="335" y="832"/>
      <point x="335" y="650" type="qcurve" smooth="yes"/>
      <point x="335" y="385"/>
      <point x="350" y="265" type="qcurve" smooth="yes"/>
      <point x="365" y="110"/>
      <point x="467" y="110" type="qcurve" smooth="yes"/>
      <point x="533" y="110"/>
      <point x="684" y="231"/>
      <point x="747" y="289" type="qcurve"/>
      <point x="747" y="568" type="line" smooth="yes"/>
      <point x="747" y="743"/>
      <point x="969" y="743" type="qcurve" smooth="yes"/>
      <point x="1157" y="743"/>
      <point x="1157" y="568" type="qcurve" smooth="yes"/>
      <point x="1157" y="393"/>
      <point x="969" y="393" type="qcurve" smooth="yes"/>
      <point x="947" y="393"/>
      <point x="935" y="396" type="qcurve"/>
      <point x="935" y="291" type="line"/>
      <point x="948" y="293"/>
      <point x="970" y="293" type="qcurve" smooth="yes"/>
      <point x="1133" y="293"/>
      <point x="1133" y="146" type="qcurve" smooth="yes"/>
      <point x="1133" y="0"/>
      <point x="981" y="0" type="qcurve" smooth="yes"/>
      <point x="840" y="0"/>
      <point x="747" y="125" type="qcurve"/>
      <point x="682" y="67"/>
      <point x="533" y="0"/>
      <point x="464" y="0" type="qcurve" smooth="yes"/>
      <point x="278" y="0"/>
      <point x="147" y="279"/>
      <point x="147" y="650" type="qcurve" smooth="yes"/>
      <point x="147" y="832"/>
      <point x="166" y="911" type="qcurve" smooth="yes"/>
      <point x="186" y="994"/>
      <point x="284" y="1162"/>
      <point x="384" y="1211" type="qcurve" smooth="yes"/>
      <point x="854" y="1426" type="line" smooth="yes"/>
      <point x="880" y="1439"/>
      <point x="922" y="1477"/>
      <point x="955" y="1520"/>
      <point x="978" y="1559"/>
      <point x="984" y="1570" type="qcurve" smooth="yes"/>
      <point x="997" y="1592"/>
    </contour>
  </outline>
</glyph>
<glyph name="uni0ED5" format="1">
  <advance width="1310"/>
  <unicode hex="0ED5"/>
  <outline>
    <contour>
      <point x="779" y="1424" type="qcurve" smooth="yes"/>
      <point x="779" y="1455"/>
      <point x="735" y="1496"/>
      <point x="701" y="1496" type="qcurve" smooth="yes"/>
      <point x="670" y="1496"/>
      <point x="624" y="1455"/>
      <point x="624" y="1424" type="qcurve"/>
      <point x="636" y="1357"/>
      <point x="730" y="1356" type="qcurve"/>
      <point x="779" y="1383"/>
    </contour>
    <contour>
      <point x="988" y="623" type="qcurve" smooth="yes"/>
      <point x="935" y="623"/>
      <point x="935" y="568" type="qcurve" smooth="yes"/>
      <point x="935" y="503"/>
      <point x="988" y="503" type="qcurve" smooth="yes"/>
      <point x="1050" y="503"/>
      <point x="1050" y="568" type="qcurve" smooth="yes"/>
      <point x="1050" y="623"/>
    </contour>
    <contour>
      <point x="981" y="97" type="qcurve" smooth="yes"/>
      <point x="1037" y="97"/>
      <point x="1037" y="142" type="qcurve" smooth="yes"/>
      <point x="1037" y="187"/>
      <point x="973" y="187" type="qcurve" smooth="yes"/>
      <point x="970" y="187" type="line" smooth="yes"/>
      <point x="947" y="187"/>
      <point x="935" y="185" type="qcurve"/>
      <point x="935" y="181" type="line" smooth="yes"/>
      <point x="935" y="97"/>
    </contour>
    <contour>
      <point x="1163" y="1703" type="qcurve"/>
      <point x="1163" y="1524"/>
      <point x="1079" y="1349"/>
      <point x="933" y="1244"/>
      <point x="779" y="1244" type="qcurve"/>
      <point x="766" y="1203"/>
      <point x="686" y="1170" type="qcurve" smooth="yes"/>
      <point x="413" y="1067"/>
      <point x="335" y="832"/>
      <point x="335" y="650" type="qcurve" smooth="yes"/>
      <point x="335" y="385"/>
      <point x="350" y="265" type="qcurve" smooth="yes"/>
      <point x="365" y="144"/>
      <point x="467" y="144" type="qcurve" smooth="yes"/>
      <point x="533" y="144"/>
      <point x="684" y="231"/>
      <point x="747" y="289" type="qcurve"/>
      <point x="747" y="568" type="line" smooth="yes"/>
      <point x="747" y="743"/>
      <point x="969" y="743" type="qcurve" smooth="yes"/>
      <point x="1157" y="743"/>
      <point x="1157" y="568" type="qcurve" smooth="yes"/>
      <point x="1157" y="393"/>
      <point x="969" y="393" type="qcurve" smooth="yes"/>
      <point x="947" y="393"/>
      <point x="935" y="396" type="qcurve"/>
      <point x="935" y="291" type="line"/>
      <point x="948" y="293"/>
      <point x="970" y="293" type="qcurve" smooth="yes"/>
      <point x="1133" y="293"/>
      <point x="1133" y="146" type="qcurve" smooth="yes"/>
      <point x="1133" y="0"/>
      <point x="981" y="0" type="qcurve" smooth="yes"/>
      <point x="840" y="0"/>
      <point x="747" y="125" type="qcurve"/>
      <point x="682" y="67"/>
      <point x="533" y="0"/>
      <point x="464" y="0" type="qcurve" smooth="yes"/>
      <point x="278" y="0"/>
      <point x="147" y="279"/>
      <point x="147" y="650" type="qcurve" smooth="yes"/>
      <point x="147" y="832"/>
      <point x="166" y="911" type="qcurve" smooth="yes"/>
      <point x="186" y="994"/>
      <point x="343" y="1194"/>
      <point x="605" y="1277" type="qcurve"/>
      <point x="563" y="1289"/>
      <point x="515" y="1340"/>
      <point x="488" y="1395"/>
      <point x="486" y="1422" type="qcurve" smooth="yes"/>
      <point x="484" y="1434"/>
      <point x="484" y="1444" type="qcurve" smooth="yes"/>
      <point x="484" y="1455"/>
      <point x="486" y="1463" type="qcurve" smooth="yes"/>
      <point x="493" y="1506"/>
      <point x="537" y="1565"/>
      <point x="596" y="1600"/>
      <point x="666" y="1617"/>
      <point x="699" y="1617" type="qcurve" smooth="yes"/>
      <point x="774" y="1617"/>
      <point x="860" y="1561"/>
      <point x="899" y="1490"/>
      <point x="904" y="1459" type="qcurve"/>
      <point x="904" y="1449" type="line" smooth="yes"/>
      <point x="904" y="1419"/>
      <point x="883" y="1368" type="qcurve"/>
      <point x="936" y="1384"/>
      <point x="1100" y="1545"/>
    </contour>
  </outline>
</glyph>
<glyph name="uni0ED8" format="1">
  <advance width="1394"/>
  <unicode hex="0ED8"/>
  <outline>
    <contour>
      <point x="922" y="-261" type="qcurve" smooth="yes"/>
      <point x="922" y="-277"/>
      <point x="947" y="-307"/>
      <point x="992" y="-323"/>
      <point x="1016" y="-323" type="qcurve" smooth="yes"/>
      <point x="1039" y="-323"/>
      <point x="1083" y="-307"/>
      <point x="1108" y="-277"/>
      <point x="1108" y="-261" type="qcurve" smooth="yes"/>
      <point x="1108" y="-246"/>
      <point x="1083" y="-215"/>
      <point x="1039" y="-200"/>
      <point x="1016" y="-200" type="qcurve" smooth="yes"/>
      <point x="992" y="-200"/>
      <point x="947" y="-215"/>
      <point x="922" y="-246"/>
    </contour>
    <contour>
      <point x="1030" y="0" type="qcurve" smooth="yes"/>
      <point x="1030" y="35" type="line"/>
      <point x="731" y="-39" type="line"/>
      <point x="599" y="-74" type="line"/>
      <point x="332" y="-137"/>
      <point x="332" y="-200" type="qcurve" smooth="yes"/>
      <point x="332" y="-236"/>
      <point x="385" y="-268"/>
      <point x="445" y="-268" type="qcurve" smooth="yes"/>
      <point x="529" y="-268"/>
      <point x="639" y="-205" type="qcurve" smooth="yes"/>
      <point x="761" y="-139"/>
      <point x="864" y="-119" type="qcurve"/>
      <point x="1030" y="-22"/>
    </contour>
    <contour>
      <point x="531" y="221" type="qcurve" smooth="yes"/>
      <point x="553" y="240"/>
      <point x="553" y="281" type="qcurve" smooth="yes"/>
      <point x="553" y="317"/>
      <point x="536" y="336" type="qcurve" smooth="yes"/>
      <point x="517" y="357"/>
      <point x="478" y="357" type="qcurve" smooth="yes"/>
      <point x="402" y="357"/>
      <point x="402" y="281" type="qcurve" smooth="yes"/>
      <point x="402" y="236"/>
      <point x="429" y="218" type="qcurve" smooth="yes"/>
      <point x="447" y="206"/>
      <point x="478" y="206" type="qcurve" smooth="yes"/>
      <point x="512" y="206"/>
    </contour>
    <contour>
      <point x="356" y="442" type="line"/>
      <point x="402" y="472"/>
      <point x="478" y="472" type="qcurve" smooth="yes"/>
      <point x="573" y="472"/>
      <point x="621" y="424" type="qcurve" smooth="yes"/>
      <point x="668" y="376"/>
      <point x="668" y="280" type="qcurve" smooth="yes"/>
      <point x="668" y="185"/>
      <point x="620" y="137" type="qcurve" smooth="yes"/>
      <point x="573" y="90"/>
      <point x="478" y="90" type="qcurve" smooth="yes"/>
      <point x="348" y="90"/>
      <point x="273" y="142" type="qcurve" smooth="yes"/>
      <point x="168" y="213"/>
      <point x="168" y="385" type="qcurve" smooth="yes"/>
      <point x="168" y="920" type="line" smooth="yes"/>
      <point x="168" y="1135"/>
      <point x="263" y="1228" type="qcurve" smooth="yes"/>
      <point x="335" y="1300"/>
      <point x="464" y="1300" type="qcurve" smooth="yes"/>
      <point x="597" y="1300"/>
      <point x="693" y="1127" type="qcurve"/>
      <point x="789" y="1300"/>
      <point x="922" y="1300" type="qcurve" smooth="yes"/>
      <point x="1052" y="1300"/>
      <point x="1126" y="1226" type="qcurve" smooth="yes"/>
      <point x="1218" y="1132"/>
      <point x="1218" y="920" type="qcurve" smooth="yes"/>
      <point x="1218" y="0" type="line"/>
      <point x="1184" y="-64"/>
      <point x="1119" y="-107" type="qcurve" smooth="yes"/>
      <point x="1087" y="-127" type="line"/>
      <point x="1100" y="-132"/>
      <point x="1114" y="-136" type="qcurve" smooth="yes"/>
      <point x="1166" y="-155"/>
      <point x="1226" y="-228"/>
      <point x="1226" y="-268" type="qcurve" smooth="yes"/>
      <point x="1226" y="-307"/>
      <point x="1168" y="-379"/>
      <point x="1063" y="-420"/>
      <point x="1005" y="-420" type="qcurve" smooth="yes"/>
      <point x="948" y="-420"/>
      <point x="844" y="-379"/>
      <point x="785" y="-307"/>
      <point x="785" y="-268" type="qcurve" smooth="yes"/>
      <point x="785" y="-259" type="line"/>
      <point x="754" y="-272"/>
      <point x="724" y="-291" type="qcurve" smooth="yes"/>
      <point x="580" y="-379"/>
      <point x="447" y="-379" type="qcurve" smooth="yes"/>
      <point x="307" y="-379"/>
      <point x="180" y="-274"/>
      <point x="180" y="-200" type="qcurve" smooth="yes"/>
      <point x="180" y="-60"/>
      <point x="562" y="34" type="qcurve" smooth="yes"/>
      <point x="1030" y="149" type="line"/>
      <point x="1030" y="920" type="line" smooth="yes"/>
      <point x="1030" y="1066"/>
      <point x="960" y="1186"/>
      <point x="922" y="1186" type="qcurve" smooth="yes"/>
      <point x="852" y="1186"/>
      <point x="693" y="973" type="qcurve"/>
      <point x="534" y="1186"/>
      <point x="464" y="1186" type="qcurve" smooth="yes"/>
      <point x="426" y="1186"/>
      <point x="356" y="1066"/>
      <point x="356" y="920" type="qcurve" smooth="yes"/>
    </contour>
  </outline>
</glyph>
<glyph name="uni0ED9" format="1">
  <advance width="1496"/>
  <unicode hex="0ED9"/>
  <outline>
    <contour>
      <point x="472" y="193" type="qcurve"/>
      <point x="470" y="243"/>
      <point x="418" y="247" type="qcurve"/>
      <point x="352" y="243"/>
      <point x="346" y="189" type="qcurve"/>
      <point x="352" y="123"/>
      <point x="418" y="117" type="qcurve"/>
      <point x="468" y="123"/>
    </contour>
    <contour>
      <point x="1328" y="343" type="line" smooth="yes"/>
      <point x="1328" y="0"/>
      <point x="1008" y="0" type="qcurve" smooth="yes"/>
      <point x="688" y="0"/>
      <point x="688" y="343" type="qcurve" smooth="yes"/>
      <point x="688" y="934" type="line" smooth="yes"/>
      <point x="688" y="1190"/>
      <point x="522" y="1190" type="qcurve" smooth="yes"/>
      <point x="356" y="1190"/>
      <point x="356" y="934" type="qcurve" smooth="yes"/>
      <point x="356" y="345" type="line"/>
      <point x="387" y="364"/>
      <point x="418" y="364" type="qcurve" smooth="yes"/>
      <point x="449" y="364"/>
      <point x="519" y="335"/>
      <point x="568" y="273"/>
      <point x="577" y="238" type="qcurve" smooth="yes"/>
      <point x="583" y="211"/>
      <point x="583" y="177" type="qcurve" smooth="yes"/>
      <point x="583" y="164"/>
      <point x="582" y="151" type="qcurve" smooth="yes"/>
      <point x="576" y="100"/>
      <point x="535" y="42"/>
      <point x="478" y="12"/>
      <point x="426" y="2"/>
      <point x="389" y="2" type="qcurve" smooth="yes"/>
      <point x="272" y="8"/>
      <point x="168" y="229"/>
      <point x="168" y="326" type="qcurve" smooth="yes"/>
      <point x="168" y="934" type="line" smooth="yes"/>
      <point x="168" y="1300"/>
      <point x="522" y="1300" type="qcurve" smooth="yes"/>
      <point x="876" y="1300"/>
      <point x="876" y="934" type="qcurve" smooth="yes"/>
      <point x="876" y="343" type="line" smooth="yes"/>
      <point x="876" y="110"/>
      <point x="1008" y="110" type="qcurve" smooth="yes"/>
      <point x="1140" y="110"/>
      <point x="1140" y="343" type="qcurve" smooth="yes"/>
      <point x="1140" y="1100" type="line" smooth="yes"/>
      <point x="1140" y="1225"/>
      <point x="1090" y="1300" type="qcurve"/>
      <point x="1278" y="1300" type="line"/>
      <point x="1328" y="1195"/>
      <point x="1328" y="1100" type="qcurve" smooth="yes"/>
    </contour>
  </outline>
</glyph>
<glyph name="uni0EDE" format="1">
  <advance width="1446"/>
  <unicode hex="0EDE"/>
  <outline>
    <contour>
      <point x="198" y="191" type="qcurve" smooth="yes"/>
      <point x="198" y="116"/>
      <point x="273" y="116" type="qcurve" smooth="yes"/>
      <point x="349" y="116"/>
      <point x="349" y="191" type="qcurve" smooth="yes"/>
      <point x="349" y="267"/>
      <point x="273" y="267" type="qcurve" smooth="yes"/>
      <point x="198" y="267"/>
    </contour>
    <contour>
      <point x="805" y="649"/>
      <point x="805" y="635" type="qcurve" smooth="yes"/>
      <point x="805" y="621"/>
      <point x="823" y="594"/>
      <point x="854" y="579"/>
      <point x="870" y="579" type="qcurve" smooth="yes"/>
      <point x="888" y="579"/>
      <point x="919" y="594"/>
      <point x="936" y="621"/>
      <point x="936" y="635" type="qcurve" smooth="yes"/>
      <point x="936" y="649"/>
      <point x="919" y="676"/>
      <point x="888" y="691"/>
      <point x="870" y="691" type="qcurve" smooth="yes"/>
      <point x="854" y="691"/>
      <point x="823" y="676"/>
    </contour>
    <contour>
      <point x="340" y="1045" type="qcurve"/>
      <point x="340" y="1068" type="line" smooth="yes"/>
      <point x="340" y="1186"/>
      <point x="268" y="1186" type="qcurve" smooth="yes"/>
      <point x="198" y="1186"/>
      <point x="198" y="1115" type="qcurve" smooth="yes"/>
      <point x="198" y="1044"/>
      <point x="311" y="1044" type="qcurve" smooth="yes"/>
      <point x="326" y="1044"/>
    </contour>
    <contour>
      <point x="1090" y="533" type="qcurve"/>
      <point x="1090" y="950" type="line" smooth="yes"/>
      <point x="1090" y="1039"/>
      <point x="968" y="1190"/>
      <point x="846" y="1190" type="qcurve" smooth="yes"/>
      <point x="658" y="1190"/>
      <point x="561" y="1033" type="qcurve"/>
      <point x="528" y="985" type="line"/>
      <point x="528" y="260" type="line" smooth="yes"/>
      <point x="528" y="123"/>
      <point x="457" y="58" type="qcurve" smooth="yes"/>
      <point x="394" y="0"/>
      <point x="273" y="0" type="qcurve" smooth="yes"/>
      <point x="171" y="0"/>
      <point x="124" y="54" type="qcurve" smooth="yes"/>
      <point x="82" y="102"/>
      <point x="82" y="191" type="qcurve" smooth="yes"/>
      <point x="82" y="281"/>
      <point x="124" y="328" type="qcurve" smooth="yes"/>
      <point x="172" y="382"/>
      <point x="273" y="382" type="qcurve" smooth="yes"/>
      <point x="310" y="382"/>
      <point x="340" y="375" type="qcurve"/>
      <point x="340" y="930" type="line"/>
      <point x="313" y="930" type="line" smooth="yes"/>
      <point x="189" y="930"/>
      <point x="132" y="983" type="qcurve" smooth="yes"/>
      <point x="82" y="1029"/>
      <point x="82" y="1115" type="qcurve" smooth="yes"/>
      <point x="82" y="1209"/>
      <point x="131" y="1255" type="qcurve" smooth="yes"/>
      <point x="179" y="1300"/>
      <point x="273" y="1300" type="qcurve" smooth="yes"/>
      <point x="475" y="1300"/>
      <point x="517" y="1159" type="qcurve"/>
      <point x="628" y="1300"/>
      <point x="846" y="1300" type="qcurve" smooth="yes"/>
      <point x="1063" y="1300"/>
      <point x="1278" y="1124"/>
      <point x="1278" y="950" type="qcurve" smooth="yes"/>
      <point x="1278" y="575" type="line"/>
      <point x="1362" y="631"/>
      <point x="1374" y="760" type="qcurve"/>
      <point x="1551" y="760" type="line"/>
      <point x="1490" y="536"/>
      <point x="1278" y="477" type="qcurve"/>
      <point x="1278" y="200" type="line" smooth="yes"/>
      <point x="1278" y="105"/>
      <point x="1228" y="0" type="qcurve"/>
      <point x="1040" y="0" type="line"/>
      <point x="1090" y="75"/>
      <point x="1090" y="200" type="qcurve" smooth="yes"/>
      <point x="1090" y="456" type="line"/>
      <point x="712" y="460"/>
      <point x="712" y="635" type="qcurve" smooth="yes"/>
      <point x="712" y="670"/>
      <point x="755" y="734"/>
      <point x="830" y="769"/>
      <point x="870" y="769" type="qcurve" smooth="yes"/>
      <point x="910" y="769"/>
      <point x="995" y="734"/>
      <point x="1037" y="670"/>
      <point x="1037" y="635" type="qcurve" smooth="yes"/>
      <point x="1037" y="600"/>
      <point x="1017" y="578" type="qcurve" smooth="yes"/>
      <point x="1016" y="576"/>
      <point x="1016" y="575" type="qcurve" smooth="yes"/>
      <point x="1045" y="538"/>
    </contour>
  </outline>
</glyph>
<glyph name="uni0EDF" format="1">
  <advance width="1365"/>
  <unicode hex="0EDF"/>
  <outline>
    <contour>
      <point x="457" y="1184" type="qcurve" smooth="yes"/>
      <point x="426" y="1184"/>
      <point x="408" y="1172" type="qcurve" smooth="yes"/>
      <point x="381" y="1154"/>
      <point x="381" y="1109" type="qcurve" smooth="yes"/>
      <point x="381" y="1033"/>
      <point x="457" y="1033" type="qcurve" smooth="yes"/>
      <point x="496" y="1033"/>
      <point x="515" y="1054" type="qcurve" smooth="yes"/>
      <point x="532" y="1073"/>
      <point x="532" y="1109" type="qcurve" smooth="yes"/>
      <point x="532" y="1150"/>
      <point x="510" y="1169" type="qcurve" smooth="yes"/>
      <point x="491" y="1184"/>
    </contour>
    <contour>
      <point x="750" y="724"/>
      <point x="750" y="710" type="qcurve" smooth="yes"/>
      <point x="750" y="696"/>
      <point x="768" y="669"/>
      <point x="799" y="654"/>
      <point x="815" y="654" type="qcurve" smooth="yes"/>
      <point x="833" y="654"/>
      <point x="864" y="669"/>
      <point x="881" y="696"/>
      <point x="881" y="710" type="qcurve" smooth="yes"/>
      <point x="881" y="724"/>
      <point x="864" y="751"/>
      <point x="833" y="766"/>
      <point x="815" y="766" type="qcurve" smooth="yes"/>
      <point x="799" y="766"/>
      <point x="768" y="751"/>
    </contour>
    <contour>
      <point x="1197" y="546" type="qcurve"/>
      <point x="1197" y="380" type="line" smooth="yes"/>
      <point x="1197" y="187"/>
      <point x="1067" y="92" type="qcurve" smooth="yes"/>
      <point x="943" y="0"/>
      <point x="668" y="0" type="qcurve" smooth="yes"/>
      <point x="392" y="0"/>
      <point x="267" y="83" type="qcurve" smooth="yes"/>
      <point x="147" y="163"/>
      <point x="147" y="350" type="qcurve" smooth="yes"/>
      <point x="147" y="574"/>
      <point x="310" y="640" type="qcurve"/>
      <point x="147" y="713"/>
      <point x="147" y="870" type="qcurve" smooth="yes"/>
      <point x="147" y="1005" type="line" smooth="yes"/>
      <point x="147" y="1177"/>
      <point x="252" y="1248" type="qcurve" smooth="yes"/>
      <point x="327" y="1300"/>
      <point x="457" y="1300" type="qcurve" smooth="yes"/>
      <point x="552" y="1300"/>
      <point x="599" y="1253" type="qcurve" smooth="yes"/>
      <point x="647" y="1205"/>
      <point x="647" y="1110" type="qcurve" smooth="yes"/>
      <point x="647" y="1014"/>
      <point x="600" y="966" type="qcurve" smooth="yes"/>
      <point x="552" y="918"/>
      <point x="457" y="918" type="qcurve" smooth="yes"/>
      <point x="381" y="918"/>
      <point x="335" y="948" type="qcurve"/>
      <point x="335" y="870" type="line" smooth="yes"/>
      <point x="335" y="704"/>
      <point x="547" y="704" type="qcurve" smooth="yes"/>
      <point x="627" y="704" type="line"/>
      <point x="627" y="570" type="line"/>
      <point x="547" y="570" type="line" smooth="yes"/>
      <point x="335" y="570"/>
      <point x="335" y="350" type="qcurve" smooth="yes"/>
      <point x="335" y="229"/>
      <point x="488" y="110"/>
      <point x="668" y="110" type="qcurve" smooth="yes"/>
      <point x="848" y="110"/>
      <point x="1009" y="253"/>
      <point x="1009" y="380" type="qcurve" smooth="yes"/>
      <point x="1009" y="532" type="line"/>
      <point x="657" y="541"/>
      <point x="657" y="710" type="qcurve" smooth="yes"/>
      <point x="657" y="745"/>
      <point x="700" y="809"/>
      <point x="775" y="844"/>
      <point x="815" y="844" type="qcurve" smooth="yes"/>
      <point x="855" y="844"/>
      <point x="940" y="809"/>
      <point x="982" y="745"/>
      <point x="982" y="710" type="qcurve" smooth="yes"/>
      <point x="982" y="675"/>
      <point x="962" y="653" type="qcurve" smooth="yes"/>
      <point x="961" y="651"/>
      <point x="961" y="650" type="qcurve" smooth="yes"/>
      <point x="981" y="625"/>
      <point x="1009" y="614" type="qcurve"/>
      <point x="1009" y="1100" type="line" smooth="yes"/>
      <point x="1009" y="1195"/>
      <point x="1059" y="1300" type="qcurve"/>
      <point x="1247" y="1300" type="line"/>
      <point x="1197" y="1225"/>
      <point x="1197" y="1100" type="qcurve" smooth="yes"/>
      <point x="1197" y="635" type="line"/>
      <point x="1305" y="687"/>
      <point x="1319" y="835" type="qcurve"/>
      <point x="1496" y="835" type="line"/>
      <point x="1431" y="598"/>
    </contour>
  </outline>
</glyph>
<glyph name="glyph140" format="1">
  <advance width="0"/>
  <outline>
    <contour>
      <point x="-66" y="-173"/>
      <point x="-80" y="-193"/>
      <point x="-80" y="-205" type="qcurve" smooth="yes"/>
      <point x="-80" y="-216"/>
      <point x="-66" y="-236"/>
      <point x="-45" y="-249"/>
      <point x="-32" y="-249" type="qcurve" smooth="yes"/>
      <point x="-19" y="-249"/>
      <point x="3" y="-236"/>
      <point x="14" y="-216"/>
      <point x="14" y="-205" type="qcurve" smooth="yes"/>
      <point x="14" y="-193"/>
      <point x="3" y="-173"/>
      <point x="-20" y="-161"/>
      <point x="-32" y="-161" type="qcurve" smooth="yes"/>
      <point x="-43" y="-161"/>
    </contour>
    <contour>
      <point x="-53" y="-347" type="qcurve"/>
      <point x="-82" y="-343"/>
      <point x="-109" y="-329" type="qcurve" smooth="yes"/>
      <point x="-147" y="-310"/>
      <point x="-187" y="-243"/>
      <point x="-187" y="-205" type="qcurve" smooth="yes"/>
      <point x="-187" y="-166"/>
      <point x="-144" y="-97"/>
      <point x="-71" y="-61"/>
      <point x="-32" y="-61" type="qcurve" smooth="yes"/>
      <point x="7" y="-61"/>
      <point x="80" y="-97"/>
      <point x="121" y="-166"/>
      <point x="121" y="-205" type="qcurve" smooth="yes"/>
      <point x="121" y="-448"/>
      <point x="-104" y="-511" type="qcurve"/>
      <point x="-171" y="-423" type="line"/>
      <point x="-90" y="-411"/>
    </contour>
  </outline>
</glyph>
<glyph name="glyph141" format="1">
  <advance width="0"/>
  <outline>
    <contour>
      <point x="-240" y="-184"/>
      <point x="-240" y="-196" type="qcurve" smooth="yes"/>
      <point x="-240" y="-209"/>
      <point x="-228" y="-229"/>
      <point x="-208" y="-242"/>
      <point x="-172" y="-244" type="qcurve"/>
      <point x="-154" y="-218"/>
      <point x="-154" y="-196" type="qcurve" smooth="yes"/>
      <point x="-154" y="-184"/>
      <point x="-166" y="-163"/>
      <point x="-186" y="-150"/>
      <point x="-197" y="-150" type="qcurve" smooth="yes"/>
      <point x="-207" y="-150"/>
      <point x="-228" y="-163"/>
    </contour>
    <contour>
      <point x="-80" y="-278" type="qcurve" smooth="yes"/>
      <point x="-93" y="-315"/>
      <point x="-93" y="-351" type="qcurve" smooth="yes"/>
      <point x="-93" y="-366"/>
      <point x="-90" y="-381" type="qcurve" smooth="yes"/>
      <point x="-82" y="-406"/>
      <point x="-38" y="-406" type="qcurve" smooth="yes"/>
      <point x="19" y="-406"/>
      <point x="19" y="-262" type="qcurve" smooth="yes"/>
      <point x="19" y="-61" type="line"/>
      <point x="153" y="-61" type="line"/>
      <point x="153" y="-268" type="line" smooth="yes"/>
      <point x="153" y="-511"/>
      <point x="-38" y="-511" type="qcurve" smooth="yes"/>
      <point x="-165" y="-511"/>
      <point x="-196" y="-446" type="qcurve" smooth="yes"/>
      <point x="-215" y="-408"/>
      <point x="-215" y="-374" type="qcurve" smooth="yes"/>
      <point x="-215" y="-348"/>
      <point x="-204" y="-324" type="qcurve"/>
      <point x="-238" y="-324"/>
      <point x="-269" y="-307" type="qcurve" smooth="yes"/>
      <point x="-303" y="-289"/>
      <point x="-335" y="-226"/>
      <point x="-335" y="-193" type="qcurve" smooth="yes"/>
      <point x="-335" y="-158"/>
      <point x="-303" y="-94"/>
      <point x="-235" y="-61"/>
      <point x="-201" y="-61" type="qcurve" smooth="yes"/>
      <point x="-165" y="-61"/>
      <point x="-99" y="-94"/>
      <point x="-62" y="-158"/>
      <point x="-62" y="-193" type="qcurve" smooth="yes"/>
      <point x="-62" y="-224"/>
    </contour>
  </outline>
</glyph>
<glyph name="glyph142" format="1">
  <advance width="0"/>
  <outline>
    <contour>
      <point x="0" y="1797" type="qcurve" smooth="yes"/>
      <point x="160" y="1797"/>
      <point x="344" y="1760"/>
      <point x="451" y="1667"/>
      <point x="451" y="1628" type="qcurve"/>
      <point x="445" y="1594"/>
      <point x="421" y="1558"/>
      <point x="348" y="1507"/>
      <point x="274" y="1472"/>
      <point x="220" y="1451" type="qcurve" smooth="yes"/>
      <point x="212" y="1451"/>
      <point x="206" y="1450" type="qcurve"/>
      <point x="146" y="1530" type="line"/>
      <point x="279" y="1574"/>
      <point x="279" y="1624" type="qcurve" smooth="yes"/>
      <point x="279" y="1673"/>
      <point x="213" y="1690" type="qcurve" smooth="yes"/>
      <point x="153" y="1705"/>
      <point x="0" y="1705" type="qcurve" smooth="yes"/>
      <point x="-153" y="1705"/>
      <point x="-213" y="1690" type="qcurve" smooth="yes"/>
      <point x="-279" y="1673"/>
      <point x="-279" y="1624" type="qcurve" smooth="yes"/>
      <point x="-279" y="1574"/>
      <point x="-146" y="1530" type="qcurve"/>
      <point x="-206" y="1450" type="line"/>
      <point x="-212" y="1451"/>
      <point x="-220" y="1451" type="qcurve" smooth="yes"/>
      <point x="-274" y="1472"/>
      <point x="-348" y="1507"/>
      <point x="-421" y="1558"/>
      <point x="-445" y="1594"/>
      <point x="-451" y="1628" type="qcurve"/>
      <point x="-451" y="1667"/>
      <point x="-344" y="1760"/>
      <point x="-160" y="1797"/>
    </contour>
  </outline>
</glyph>
<glyph name="glyph143" format="1">
  <advance width="0"/>
  <outline>
    <contour>
      <point x="118" y="1532" type="line" smooth="yes"/>
      <point x="121" y="1534"/>
      <point x="135" y="1536" type="qcurve" smooth="yes"/>
      <point x="251" y="1577"/>
      <point x="251" y="1624" type="qcurve" smooth="yes"/>
      <point x="251" y="1673"/>
      <point x="185" y="1690" type="qcurve" smooth="yes"/>
      <point x="128" y="1704"/>
      <point x="-13" y="1704" type="qcurve" smooth="yes"/>
      <point x="-155" y="1704"/>
      <point x="-212" y="1690" type="qcurve" smooth="yes"/>
      <point x="-278" y="1673"/>
      <point x="-278" y="1624" type="qcurve" smooth="yes"/>
      <point x="-278" y="1574"/>
      <point x="-145" y="1530" type="qcurve"/>
      <point x="-205" y="1450" type="line"/>
      <point x="-211" y="1451"/>
      <point x="-219" y="1451" type="qcurve" smooth="yes"/>
      <point x="-273" y="1472"/>
      <point x="-347" y="1507"/>
      <point x="-420" y="1558"/>
      <point x="-444" y="1594"/>
      <point x="-450" y="1628" type="qcurve"/>
      <point x="-450" y="1667"/>
      <point x="-343" y="1760"/>
      <point x="-251" y="1779" type="qcurve" smooth="yes"/>
      <point x="-168" y="1795"/>
      <point x="-13" y="1795" type="qcurve" smooth="yes"/>
      <point x="141" y="1795"/>
      <point x="224" y="1779" type="qcurve" smooth="yes"/>
      <point x="316" y="1760"/>
      <point x="423" y="1667"/>
      <point x="423" y="1628" type="qcurve"/>
      <point x="417" y="1594"/>
      <point x="405" y="1576" type="qcurve" smooth="yes"/>
      <point x="397" y="1563"/>
      <point x="376" y="1547" type="qcurve"/>
      <point x="530" y="1547" type="line"/>
      <point x="530" y="1450" type="line"/>
      <point x="118" y="1450" type="line"/>
    </contour>
  </outline>
</glyph>
<glyph name="glyph145" format="1">
  <advance width="0"/>
  <outline>
    <contour>
      <point x="0" y="1658" type="qcurve" smooth="yes"/>
      <point x="21" y="1658"/>
      <point x="60" y="1644"/>
      <point x="83" y="1618"/>
      <point x="83" y="1605" type="qcurve" smooth="yes"/>
      <point x="83" y="1592"/>
      <point x="61" y="1565"/>
      <point x="22" y="1551"/>
      <point x="0" y="1551" type="qcurve" smooth="yes"/>
      <point x="-22" y="1551"/>
      <point x="-61" y="1565"/>
      <point x="-83" y="1592"/>
      <point x="-83" y="1605" type="qcurve" smooth="yes"/>
      <point x="-83" y="1618"/>
      <point x="-61" y="1644"/>
      <point x="-21" y="1658"/>
    </contour>
    <contour>
      <point x="128" y="1532" type="line" smooth="yes"/>
      <point x="131" y="1534"/>
      <point x="145" y="1536" type="qcurve" smooth="yes"/>
      <point x="261" y="1577"/>
      <point x="261" y="1624" type="qcurve" smooth="yes"/>
      <point x="261" y="1673"/>
      <point x="195" y="1690" type="qcurve" smooth="yes"/>
      <point x="138" y="1704"/>
      <point x="-3" y="1704" type="qcurve" smooth="yes"/>
      <point x="-145" y="1704"/>
      <point x="-202" y="1690" type="qcurve" smooth="yes"/>
      <point x="-268" y="1673"/>
      <point x="-268" y="1624" type="qcurve" smooth="yes"/>
      <point x="-268" y="1574"/>
      <point x="-135" y="1530" type="qcurve"/>
      <point x="-195" y="1450" type="line"/>
      <point x="-201" y="1451"/>
      <point x="-209" y="1451" type="qcurve" smooth="yes"/>
      <point x="-263" y="1472"/>
      <point x="-337" y="1507"/>
      <point x="-410" y="1558"/>
      <point x="-434" y="1594"/>
      <point x="-440" y="1628" type="qcurve"/>
      <point x="-440" y="1667"/>
      <point x="-333" y="1760"/>
      <point x="-241" y="1779" type="qcurve" smooth="yes"/>
      <point x="-158" y="1795"/>
      <point x="-3" y="1795" type="qcurve" smooth="yes"/>
      <point x="151" y="1795"/>
      <point x="234" y="1779" type="qcurve" smooth="yes"/>
      <point x="326" y="1760"/>
      <point x="433" y="1667"/>
      <point x="433" y="1628" type="qcurve"/>
      <point x="427" y="1594"/>
      <point x="415" y="1576" type="qcurve" smooth="yes"/>
      <point x="407" y="1563"/>
      <point x="386" y="1547" type="qcurve"/>
      <point x="540" y="1547" type="line"/>
      <point x="540" y="1450" type="line"/>
      <point x="128" y="1450" type="line"/>
    </contour>
  </outline>
</glyph>
<glyph name="glyph146" format="1">
  <advance width="0"/>
  <outline>
    <contour>
      <point x="-419" y="1629" type="qcurve" smooth="yes"/>
      <point x="-419" y="1664"/>
      <point x="-376" y="1728"/>
      <point x="-301" y="1763"/>
      <point x="-261" y="1763" type="qcurve" smooth="yes"/>
      <point x="-221" y="1763"/>
      <point x="-136" y="1728"/>
      <point x="-94" y="1664"/>
      <point x="-94" y="1629" type="qcurve" smooth="yes"/>
      <point x="-94" y="1594"/>
      <point x="-114" y="1572" type="qcurve" smooth="yes"/>
      <point x="-115" y="1570"/>
      <point x="-115" y="1569" type="qcurve" smooth="yes"/>
      <point x="-81" y="1526"/>
      <point x="-25" y="1526" type="qcurve" smooth="yes"/>
      <point x="222" y="1526"/>
      <point x="243" y="1754" type="qcurve"/>
      <point x="420" y="1754" type="line"/>
      <point x="337" y="1450"/>
      <point x="-25" y="1450" type="qcurve" smooth="yes"/>
      <point x="-419" y="1450"/>
    </contour>
    <contour>
      <point x="-308" y="1670"/>
      <point x="-326" y="1643"/>
      <point x="-326" y="1629" type="qcurve" smooth="yes"/>
      <point x="-326" y="1615"/>
      <point x="-308" y="1588"/>
      <point x="-277" y="1573"/>
      <point x="-261" y="1573" type="qcurve" smooth="yes"/>
      <point x="-243" y="1573"/>
      <point x="-212" y="1588"/>
      <point x="-195" y="1615"/>
      <point x="-195" y="1629" type="qcurve" smooth="yes"/>
      <point x="-195" y="1643"/>
      <point x="-212" y="1670"/>
      <point x="-243" y="1685"/>
      <point x="-261" y="1685" type="qcurve" smooth="yes"/>
      <point x="-277" y="1685"/>
    </contour>
  </outline>
</glyph>
<glyph name="glyph147" format="1">
  <advance width="0"/>
  <outline>
    <contour>
      <point x="-25" y="1763" type="qcurve" smooth="yes"/>
      <point x="337" y="1763"/>
      <point x="420" y="1459" type="qcurve"/>
      <point x="243" y="1459" type="line"/>
      <point x="222" y="1687"/>
      <point x="-25" y="1687" type="qcurve" smooth="yes"/>
      <point x="-81" y="1687"/>
      <point x="-115" y="1644" type="qcurve" smooth="yes"/>
      <point x="-115" y="1643"/>
      <point x="-114" y="1641" type="qcurve" smooth="yes"/>
      <point x="-94" y="1619"/>
      <point x="-94" y="1584" type="qcurve" smooth="yes"/>
      <point x="-94" y="1549"/>
      <point x="-136" y="1485"/>
      <point x="-221" y="1450"/>
      <point x="-261" y="1450" type="qcurve" smooth="yes"/>
      <point x="-301" y="1450"/>
      <point x="-376" y="1485"/>
      <point x="-419" y="1549"/>
      <point x="-419" y="1584" type="qcurve" smooth="yes"/>
      <point x="-419" y="1763"/>
    </contour>
    <contour>
      <point x="-261" y="1528" type="qcurve" smooth="yes"/>
      <point x="-243" y="1528"/>
      <point x="-212" y="1543"/>
      <point x="-195" y="1570"/>
      <point x="-195" y="1584" type="qcurve" smooth="yes"/>
      <point x="-195" y="1598"/>
      <point x="-212" y="1625"/>
      <point x="-243" y="1640"/>
      <point x="-261" y="1640" type="qcurve" smooth="yes"/>
      <point x="-277" y="1640"/>
      <point x="-308" y="1625"/>
      <point x="-326" y="1598"/>
      <point x="-326" y="1584" type="qcurve" smooth="yes"/>
      <point x="-326" y="1570"/>
      <point x="-308" y="1543"/>
      <point x="-277" y="1528"/>
    </contour>
  </outline>
</glyph>
<glyph name="glyph152" format="1">
  <advance width="0"/>
  <outline>
    <contour>
      <point x="-46" y="1918" type="line"/>
      <point x="76" y="1918" type="line"/>
      <point x="76" y="1600" type="line"/>
      <point x="-46" y="1600" type="line"/>
    </contour>
  </outline>
</glyph>
<glyph name="glyph153" format="1">
  <advance width="0"/>
  <outline>
    <contour>
      <point x="-90" y="1802" type="qcurve" smooth="yes"/>
      <point x="-90" y="1809"/>
      <point x="-93" y="1814" type="qcurve" smooth="yes"/>
      <point x="-105" y="1833"/>
      <point x="-127" y="1833" type="qcurve" smooth="yes"/>
      <point x="-136" y="1833" type="line"/>
      <point x="-165" y="1828"/>
      <point x="-166" y="1805" type="qcurve" smooth="yes"/>
      <point x="-167" y="1804"/>
      <point x="-167" y="1803" type="qcurve" smooth="yes"/>
      <point x="-167" y="1782"/>
      <point x="-141" y="1779" type="qcurve" smooth="yes"/>
      <point x="-120" y="1777"/>
      <point x="-97" y="1777" type="qcurve"/>
      <point x="-90" y="1791"/>
    </contour>
    <contour>
      <point x="-222" y="1748" type="qcurve" smooth="yes"/>
      <point x="-254" y="1770"/>
      <point x="-254" y="1805" type="qcurve" smooth="yes"/>
      <point x="-254" y="1813" type="line"/>
      <point x="-250" y="1853"/>
      <point x="-206" y="1877" type="qcurve" smooth="yes"/>
      <point x="-170" y="1896"/>
      <point x="-123" y="1896" type="qcurve" smooth="yes"/>
      <point x="-113" y="1896"/>
      <point x="-102" y="1895" type="qcurve" smooth="yes"/>
      <point x="-41" y="1890"/>
      <point x="-19" y="1858" type="qcurve" smooth="yes"/>
      <point x="1" y="1829"/>
      <point x="1" y="1787" type="qcurve" smooth="yes"/>
      <point x="1" y="1780" type="line" smooth="yes"/>
      <point x="-1" y="1733"/>
      <point x="-88" y="1668" type="qcurve"/>
      <point x="60" y="1676"/>
      <point x="218" y="1781"/>
      <point x="259" y="1869" type="qcurve"/>
      <point x="379" y="1824" type="line"/>
      <point x="318" y="1729"/>
      <point x="206" y="1650"/>
      <point x="24" y="1600"/>
      <point x="-116" y="1600" type="qcurve" smooth="yes"/>
      <point x="-330" y="1600" type="line"/>
      <point x="-330" y="1654" type="line"/>
      <point x="-194" y="1676"/>
      <point x="-140" y="1724" type="qcurve"/>
      <point x="-192" y="1729"/>
    </contour>
  </outline>
</glyph>
<glyph name="glyph154" format="1">
  <advance width="0"/>
  <outline>
    <contour>
      <point x="168" y="1600" type="qcurve"/>
      <point x="146" y="1605"/>
      <point x="117" y="1634"/>
      <point x="113" y="1654" type="qcurve"/>
      <point x="123" y="1664"/>
      <point x="150" y="1681"/>
      <point x="164" y="1701"/>
      <point x="183" y="1720"/>
      <point x="184" y="1742" type="qcurve"/>
      <point x="177" y="1766"/>
      <point x="164" y="1778" type="qcurve" smooth="yes"/>
      <point x="152" y="1789"/>
      <point x="125" y="1789" type="qcurve" smooth="yes"/>
      <point x="120" y="1789" type="line"/>
      <point x="86" y="1763"/>
      <point x="18" y="1703"/>
      <point x="0" y="1703" type="qcurve" smooth="yes"/>
      <point x="-17" y="1703"/>
      <point x="-82" y="1771"/>
      <point x="-109" y="1786" type="qcurve"/>
      <point x="-139" y="1786"/>
      <point x="-165" y="1760"/>
      <point x="-165" y="1731" type="qcurve" smooth="yes"/>
      <point x="-165" y="1710"/>
      <point x="-144" y="1688"/>
      <point x="-120" y="1673"/>
      <point x="-90" y="1654"/>
      <point x="-79" y="1644" type="qcurve"/>
      <point x="-108" y="1603"/>
      <point x="-147" y="1594" type="qcurve"/>
      <point x="-215" y="1622"/>
      <point x="-274" y="1698"/>
      <point x="-274" y="1745" type="qcurve" smooth="yes"/>
      <point x="-274" y="1781"/>
      <point x="-240" y="1834"/>
      <point x="-202" y="1874"/>
      <point x="-151" y="1894"/>
      <point x="-114" y="1894" type="qcurve" smooth="yes"/>
      <point x="-95" y="1894"/>
      <point x="-54" y="1880"/>
      <point x="-2" y="1832"/>
      <point x="9" y="1821" type="qcurve"/>
      <point x="36" y="1842"/>
      <point x="91" y="1889"/>
      <point x="133" y="1896" type="qcurve"/>
      <point x="166" y="1896"/>
      <point x="225" y="1870"/>
      <point x="258" y="1832"/>
      <point x="268" y="1812" type="qcurve" smooth="yes"/>
      <point x="275" y="1795"/>
      <point x="275" y="1773" type="qcurve" smooth="yes"/>
      <point x="275" y="1764" type="line"/>
      <point x="300" y="1799"/>
      <point x="314" y="1843"/>
      <point x="326" y="1886" type="qcurve"/>
      <point x="355" y="1884"/>
      <point x="388" y="1864"/>
      <point x="400" y="1845" type="qcurve" smooth="yes"/>
      <point x="401" y="1841"/>
      <point x="401" y="1836" type="qcurve" smooth="yes"/>
      <point x="401" y="1793"/>
      <point x="381" y="1758" type="qcurve" smooth="yes"/>
      <point x="359" y="1718"/>
      <point x="296" y="1664"/>
      <point x="204" y="1616"/>
    </contour>
  </outline>
</glyph>
<glyph name="glyph155" format="1">
  <advance width="0"/>
  <outline>
    <contour>
      <point x="65" y="1588" type="line"/>
      <point x="-54" y="1588" type="line"/>
      <point x="-54" y="1697" type="line"/>
      <point x="-174" y="1697" type="line"/>
      <point x="-174" y="1799" type="line"/>
      <point x="-54" y="1799" type="line"/>
      <point x="-54" y="1908" type="line"/>
      <point x="65" y="1908" type="line"/>
      <point x="65" y="1799" type="line"/>
      <point x="186" y="1799" type="line"/>
      <point x="186" y="1697" type="line"/>
      <point x="65" y="1697" type="line"/>
    </contour>
  </outline>
</glyph>
<glyph name="glyph156" format="1">
  <advance width="0"/>
  <outline>
    <contour>
      <point x="-544" y="1771" type="line"/>
      <point x="-422" y="1771" type="line"/>
      <point x="-422" y="1453" type="line"/>
      <point x="-544" y="1453" type="line"/>
    </contour>
  </outline>
</glyph>
